<?plantuml 1.2026.2?><svg xmlns="http://www.w3.org/2000/svg" xmlns:xlink="http://www.w3.org/1999/xlink" contentStyleType="text/css" data-diagram-type="SEQUENCE" height="2048px" preserveAspectRatio="none" style="width:2962px;height:2048px;background:#FFFFFF;" version="1.1" viewBox="0 0 2962 2048" width="2962px" zoomAndPan="magnify"><title>Register an Air Control Area - US050</title><defs/><g><text fill="#000000" font-family="sans-serif" font-size="14" font-weight="bold" lengthAdjust="spacing" textLength="249.815" x="1357.1523" y="29.9659">Register an Air Control Area - US050</text><g><title>AirControlAreaUI</title><rect fill="#FFFFFF" height="41.24" style="stroke:#181818;stroke-width:1;" width="10" x="789.7691" y="250.0278"/></g><g><title>AirControlAreaUI</title><rect fill="#FFFFFF" height="521.3596" style="stroke:#181818;stroke-width:1;" width="10" x="789.7691" y="332.5078"/></g><g><title>AirControlAreaController</title><rect fill="#FFFFFF" height="337.1598" style="stroke:#181818;stroke-width:1;" width="10" x="1231.1486" y="475.4677"/></g><g><title>AirControlAreaService</title><rect fill="#FFFFFF" height="254.6798" style="stroke:#181818;stroke-width:1;" width="10" x="1658.0481" y="516.7076"/></g><g><title>AirControlAreaRepository</title><rect fill="#FFFFFF" height="41.24" style="stroke:#181818;stroke-width:1;" width="10" x="1940.5678" y="557.9476"/></g><g><title>AirControlAreaRepository</title><rect fill="#FFFFFF" height="41.24" style="stroke:#181818;stroke-width:1;" width="10" x="1940.5678" y="640.4276"/></g><g><title>AirControlAreaRepository</title><rect fill="#FFFFFF" height="41.24" style="stroke:#181818;stroke-width:1;" width="10" x="1940.5678" y="1766.8668"/></g><g><title>..Value Object..</title><rect fill="#FFFFFF" height="171.1999" style="stroke:#181818;stroke-width:1;" width="10" x="2150.0576" y="934.3474"/></g><g><title>..Value Object..</title><rect fill="#FFFFFF" height="225.6798" style="stroke:#181818;stroke-width:1;" width="10" x="2352.0974" y="1156.7872"/></g><g><title>..Value Object..</title><rect fill="#FFFFFF" height="171.1999" style="stroke:#181818;stroke-width:1;" width="10" x="2583.4971" y="1433.707"/></g><g><title>..Aggregate Root..</title><rect fill="#FFFFFF" height="69.4799" style="stroke:#181818;stroke-width:1;" width="10" x="2790.4169" y="1656.1469"/></g><rect fill="none" height="1243.1591" style="stroke:#000000;stroke-width:1.5;" width="2875.1196" x="80" y="696.6675"/><g class="participant-lifeline" data-entity-uid="part1" data-qualified-name="User" id="part1-lifeline"><g><title>BackOfficeOperator</title><rect fill="#000000" fill-opacity="0.00000" height="1824.5188" width="8" x="182.0899" y="132.3079"/><line style="stroke:#181818;stroke-width:0.5;stroke-dasharray:5,5;" x1="186" x2="186" y1="132.3079" y2="1956.8267"/></g></g><g class="participant-lifeline" data-entity-uid="part2" data-qualified-name="UI" id="part2-lifeline"><g><title>AirControlAreaUI</title><rect fill="#000000" fill-opacity="0.00000" height="1824.5188" width="8" x="790.7691" y="132.3079"/><line style="stroke:#181818;stroke-width:0.5;stroke-dasharray:5,5;" x1="794.2792" x2="794.2792" y1="132.3079" y2="1956.8267"/></g></g><g class="participant-lifeline" data-entity-uid="part3" data-qualified-name="Controller" id="part3-lifeline"><g><title>AirControlAreaController</title><rect fill="#000000" fill-opacity="0.00000" height="1824.5188" width="8" x="1232.1486" y="132.3079"/><line style="stroke:#181818;stroke-width:0.5;stroke-dasharray:5,5;" x1="1236.0887" x2="1236.0887" y1="132.3079" y2="1956.8267"/></g></g><g class="participant-lifeline" data-entity-uid="part4" data-qualified-name="Service" id="part4-lifeline"><g><title>AirControlAreaService</title><rect fill="#000000" fill-opacity="0.00000" height="1824.5188" width="8" x="1659.0481" y="132.3079"/><line style="stroke:#181818;stroke-width:0.5;stroke-dasharray:5,5;" x1="1662.8982" x2="1662.8982" y1="132.3079" y2="1956.8267"/></g></g><g class="participant-lifeline" data-entity-uid="part5" data-qualified-name="DB" id="part5-lifeline"><g><title>AirControlAreaRepository</title><rect fill="#000000" fill-opacity="0.00000" height="1824.5188" width="8" x="1941.5678" y="132.3079"/><line style="stroke:#181818;stroke-width:0.5;stroke-dasharray:5,5;" x1="1945.4579" x2="1945.4579" y1="132.3079" y2="1956.8267"/></g></g><g class="participant-lifeline" data-entity-uid="part6" data-qualified-name="ID" id="part6-lifeline"><g><title>..Value Object..</title><rect fill="#000000" fill-opacity="0.00000" height="1015.9793" width="8" x="2151.0576" y="940.8474"/><line style="stroke:#181818;stroke-width:0.5;stroke-dasharray:5,5;" x1="2154.6777" x2="2154.6777" y1="940.8474" y2="1956.8267"/></g></g><g class="participant-lifeline" data-entity-uid="part7" data-qualified-name="geoBound" id="part7-lifeline"><g><title>..Value Object..</title><rect fill="#000000" fill-opacity="0.00000" height="793.5395" width="8" x="2353.0974" y="1163.2872"/><line style="stroke:#181818;stroke-width:0.5;stroke-dasharray:5,5;" x1="2356.4375" x2="2356.4375" y1="1163.2872" y2="1956.8267"/></g></g><g class="participant-lifeline" data-entity-uid="part8" data-qualified-name="minFuel" id="part8-lifeline"><g><title>..Value Object..</title><rect fill="#000000" fill-opacity="0.00000" height="516.6197" width="8" x="2584.4971" y="1440.207"/><line style="stroke:#181818;stroke-width:0.5;stroke-dasharray:5,5;" x1="2587.7572" x2="2587.7572" y1="1440.207" y2="1956.8267"/></g></g><g class="participant-lifeline" data-entity-uid="part9" data-qualified-name="AirControlArea" id="part9-lifeline"><g><title>..Aggregate Root..</title><rect fill="#000000" fill-opacity="0.00000" height="294.1798" width="8" x="2791.4169" y="1662.6469"/><line style="stroke:#181818;stroke-width:0.5;stroke-dasharray:5,5;" x1="2795.237" x2="2795.237" y1="1662.6469" y2="1956.8267"/></g></g><g class="participant participant-head" data-entity-uid="part1" data-qualified-name="User" id="part1-head"><text fill="#000000" font-family="sans-serif" font-size="20" lengthAdjust="spacing" textLength="186.1798" x="90" y="126.4479">BackOfficeOperator</text><ellipse cx="186.0899" cy="53.5679" fill="#E2E2F0" rx="8" ry="8" style="stroke:#181818;stroke-width:0.5;"/><path d="M186.0899,61.5679 L186.0899,88.5679 M173.0899,69.5679 L199.0899,69.5679 M186.0899,88.5679 L173.0899,103.5679 M186.0899,88.5679 L199.0899,103.5679" fill="none" style="stroke:#181818;stroke-width:0.5;"/></g><g class="participant participant-tail" data-entity-uid="part1" data-qualified-name="User" id="part1-tail"><text fill="#000000" font-family="sans-serif" font-size="20" lengthAdjust="spacing" textLength="186.1798" x="90" y="1977.2067">BackOfficeOperator</text><ellipse cx="186.0899" cy="1991.5667" fill="#E2E2F0" rx="8" ry="8" style="stroke:#181818;stroke-width:0.5;"/><path d="M186.0899,1999.5667 L186.0899,2026.5667 M173.0899,2007.5667 L199.0899,2007.5667 M186.0899,2026.5667 L173.0899,2041.5667 M186.0899,2026.5667 L199.0899,2041.5667" fill="none" style="stroke:#181818;stroke-width:0.5;"/></g><g class="participant participant-head" data-entity-uid="part2" data-qualified-name="UI" id="part2-head"><rect fill="#E2E2F0" height="41.24" rx="2.5" ry="2.5" style="stroke:#181818;stroke-width:0.5;" width="174.9798" x="707.2792" y="90.0679"/><text fill="#000000" font-family="sans-serif" font-size="20" lengthAdjust="spacing" textLength="160.9798" x="714.2792" y="118.4479">AirControlAreaUI</text></g><g class="participant participant-tail" data-entity-uid="part2" data-qualified-name="UI" id="part2-tail"><rect fill="#E2E2F0" height="41.24" rx="2.5" ry="2.5" style="stroke:#181818;stroke-width:0.5;" width="174.9798" x="707.2792" y="1955.8267"/><text fill="#000000" font-family="sans-serif" font-size="20" lengthAdjust="spacing" textLength="160.9798" x="714.2792" y="1984.2067">AirControlAreaUI</text></g><g class="participant participant-head" data-entity-uid="part3" data-qualified-name="Controller" id="part3-head"><rect fill="#E2E2F0" height="41.24" rx="2.5" ry="2.5" style="stroke:#181818;stroke-width:0.5;" width="248.1197" x="1112.0887" y="90.0679"/><text fill="#000000" font-family="sans-serif" font-size="20" lengthAdjust="spacing" textLength="234.1197" x="1119.0887" y="118.4479">AirControlAreaController</text></g><g class="participant participant-tail" data-entity-uid="part3" data-qualified-name="Controller" id="part3-tail"><rect fill="#E2E2F0" height="41.24" rx="2.5" ry="2.5" style="stroke:#181818;stroke-width:0.5;" width="248.1197" x="1112.0887" y="1955.8267"/><text fill="#000000" font-family="sans-serif" font-size="20" lengthAdjust="spacing" textLength="234.1197" x="1119.0887" y="1984.2067">AirControlAreaController</text></g><g class="participant participant-head" data-entity-uid="part4" data-qualified-name="Service" id="part4-head"><rect fill="#E2E2F0" height="41.24" rx="2.5" ry="2.5" style="stroke:#181818;stroke-width:0.5;" width="220.2998" x="1552.8982" y="90.0679"/><text fill="#000000" font-family="sans-serif" font-size="20" lengthAdjust="spacing" textLength="206.2998" x="1559.8982" y="118.4479">AirControlAreaService</text></g><g class="participant participant-tail" data-entity-uid="part4" data-qualified-name="Service" id="part4-tail"><rect fill="#E2E2F0" height="41.24" rx="2.5" ry="2.5" style="stroke:#181818;stroke-width:0.5;" width="220.2998" x="1552.8982" y="1955.8267"/><text fill="#000000" font-family="sans-serif" font-size="20" lengthAdjust="spacing" textLength="206.2998" x="1559.8982" y="1984.2067">AirControlAreaService</text></g><g class="participant participant-head" data-entity-uid="part5" data-qualified-name="DB" id="part5-head"><text fill="#000000" font-family="sans-serif" font-size="20" lengthAdjust="spacing" textLength="240.2197" x="1822.4579" y="126.4479">AirControlAreaRepository</text><path d="M1927.5678,69.0679 C1927.5678,59.0679 1945.5678,59.0679 1945.5678,59.0679 C1945.5678,59.0679 1963.5678,59.0679 1963.5678,69.0679 L1963.5678,95.0679 C1963.5678,105.0679 1945.5678,105.0679 1945.5678,105.0679 C1945.5678,105.0679 1927.5678,105.0679 1927.5678,95.0679 L1927.5678,69.0679" fill="#E2E2F0" style="stroke:#181818;stroke-width:0.5;"/><path d="M1927.5678,69.0679 C1927.5678,79.0679 1945.5678,79.0679 1945.5678,79.0679 C1945.5678,79.0679 1963.5678,79.0679 1963.5678,69.0679" fill="none" style="stroke:#181818;stroke-width:0.5;"/></g><g class="participant participant-tail" data-entity-uid="part5" data-qualified-name="DB" id="part5-tail"><text fill="#000000" font-family="sans-serif" font-size="20" lengthAdjust="spacing" textLength="240.2197" x="1822.4579" y="1977.2067">AirControlAreaRepository</text><path d="M1927.5678,1993.0667 C1927.5678,1983.0667 1945.5678,1983.0667 1945.5678,1983.0667 C1945.5678,1983.0667 1963.5678,1983.0667 1963.5678,1993.0667 L1963.5678,2019.0667 C1963.5678,2029.0667 1945.5678,2029.0667 1945.5678,2029.0667 C1945.5678,2029.0667 1927.5678,2029.0667 1927.5678,2019.0667 L1927.5678,1993.0667" fill="#E2E2F0" style="stroke:#181818;stroke-width:0.5;"/><path d="M1927.5678,1993.0667 C1927.5678,2003.0667 1945.5678,2003.0667 1945.5678,2003.0667 C1945.5678,2003.0667 1963.5678,2003.0667 1963.5678,1993.0667" fill="none" style="stroke:#181818;stroke-width:0.5;"/></g><g class="participant participant-tail" data-entity-uid="part6" data-qualified-name="ID" id="part6-tail"><rect fill="#E2E2F0" height="68.4799" rx="2.5" ry="2.5" style="stroke:#181818;stroke-width:0.5;" width="152.7598" x="2078.6777" y="1955.8267"/><text fill="#000000" font-family="sans-serif" font-size="20" lengthAdjust="spacing" textLength="138.7598" x="2085.6777" y="1984.2067">&#171;Value Object&#187;</text><text fill="#000000" font-family="sans-serif" font-size="20" lengthAdjust="spacing" textLength="91.8599" x="2109.1276" y="2011.4466">AreaCode</text></g><g class="participant participant-tail" data-entity-uid="part7" data-qualified-name="geoBound" id="part7-tail"><rect fill="#E2E2F0" height="68.4799" rx="2.5" ry="2.5" style="stroke:#181818;stroke-width:0.5;" width="231.3198" x="2241.4375" y="1955.8267"/><text fill="#000000" font-family="sans-serif" font-size="20" lengthAdjust="spacing" textLength="138.7598" x="2287.7175" y="1984.2067">&#171;Value Object&#187;</text><text fill="#000000" font-family="sans-serif" font-size="20" lengthAdjust="spacing" textLength="217.3198" x="2248.4375" y="2011.4466">GeographicalBoundary</text></g><g class="participant participant-tail" data-entity-uid="part8" data-qualified-name="minFuel" id="part8-tail"><rect fill="#E2E2F0" height="68.4799" rx="2.5" ry="2.5" style="stroke:#181818;stroke-width:0.5;" width="211.4798" x="2482.7572" y="1955.8267"/><text fill="#000000" font-family="sans-serif" font-size="20" lengthAdjust="spacing" textLength="138.7598" x="2519.1172" y="1984.2067">&#171;Value Object&#187;</text><text fill="#000000" font-family="sans-serif" font-size="20" lengthAdjust="spacing" textLength="197.4798" x="2489.7572" y="2011.4466">MinFuelRequirement</text></g><g class="participant participant-tail" data-entity-uid="part9" data-qualified-name="AirControlArea" id="part9-tail"><rect fill="#E2E2F0" height="68.4799" rx="2.5" ry="2.5" style="stroke:#181818;stroke-width:0.5;" width="182.3598" x="2704.237" y="1955.8267"/><text fill="#000000" font-family="sans-serif" font-size="20" lengthAdjust="spacing" textLength="168.3598" x="2711.237" y="1984.2067">&#171;Aggregate Root&#187;</text><text fill="#000000" font-family="sans-serif" font-size="20" lengthAdjust="spacing" textLength="139.5798" x="2725.627" y="2011.4466">AirControlArea</text></g><g><title>AirControlAreaUI</title><rect fill="#FFFFFF" height="41.24" style="stroke:#181818;stroke-width:1;" width="10" x="789.7691" y="250.0278"/></g><g><title>AirControlAreaUI</title><rect fill="#FFFFFF" height="521.3596" style="stroke:#181818;stroke-width:1;" width="10" x="789.7691" y="332.5078"/></g><g><title>AirControlAreaController</title><rect fill="#FFFFFF" height="337.1598" style="stroke:#181818;stroke-width:1;" width="10" x="1231.1486" y="475.4677"/></g><g><title>AirControlAreaService</title><rect fill="#FFFFFF" height="254.6798" style="stroke:#181818;stroke-width:1;" width="10" x="1658.0481" y="516.7076"/></g><g><title>AirControlAreaRepository</title><rect fill="#FFFFFF" height="41.24" style="stroke:#181818;stroke-width:1;" width="10" x="1940.5678" y="557.9476"/></g><g><title>AirControlAreaRepository</title><rect fill="#FFFFFF" height="41.24" style="stroke:#181818;stroke-width:1;" width="10" x="1940.5678" y="640.4276"/></g><g><title>AirControlAreaRepository</title><rect fill="#FFFFFF" height="41.24" style="stroke:#181818;stroke-width:1;" width="10" x="1940.5678" y="1766.8668"/></g><g><title>..Value Object..</title><rect fill="#FFFFFF" height="171.1999" style="stroke:#181818;stroke-width:1;" width="10" x="2150.0576" y="934.3474"/></g><g><title>..Value Object..</title><rect fill="#FFFFFF" height="225.6798" style="stroke:#181818;stroke-width:1;" width="10" x="2352.0974" y="1156.7872"/></g><g><title>..Value Object..</title><rect fill="#FFFFFF" height="171.1999" style="stroke:#181818;stroke-width:1;" width="10" x="2583.4971" y="1433.707"/></g><g><title>..Aggregate Root..</title><rect fill="#FFFFFF" height="69.4799" style="stroke:#181818;stroke-width:1;" width="10" x="2790.4169" y="1656.1469"/></g><path d="M5,147.3079 L5,211.3079 L368,211.3079 L368,157.3079 L358,147.3079 L5,147.3079" fill="#FFFACD" style="stroke:#DAA520;stroke-width:0.5;"/><path d="M358,147.3079 L358,157.3079 L368,157.3079 L358,147.3079" fill="#FFFACD" style="stroke:#DAA520;stroke-width:0.5;"/><text fill="#000000" font-family="sans-serif" font-size="20" lengthAdjust="spacing" textLength="342.1195" x="11" y="173.6879">BackOfficeOperator is authenticated</text><text fill="#000000" font-family="sans-serif" font-size="20" lengthAdjust="spacing" textLength="237.6997" x="11" y="200.9278">and has an active session</text><g class="message" data-entity-1="part1" data-entity-2="part2" id="msg1"><polygon fill="#181818" points="777.7691,246.0278,787.7691,250.0278,777.7691,254.0278,781.7691,250.0278" style="stroke:#181818;stroke-width:1;"/><line style="stroke:#181818;stroke-width:1;" x1="186.0899" x2="783.7691" y1="250.0278" y2="250.0278"/><text fill="#000000" font-family="sans-serif" font-size="20" lengthAdjust="spacing" textLength="387.7596" x="193.0899" y="242.1678">request air control area registration form</text></g><g class="message" data-entity-1="part2" data-entity-2="part1" id="msg2"><polygon fill="#181818" points="197.0899,287.2678,187.0899,291.2678,197.0899,295.2678,193.0899,291.2678" style="stroke:#181818;stroke-width:1;"/><line style="stroke:#181818;stroke-width:1;stroke-dasharray:2,2;" x1="191.0899" x2="793.7691" y1="291.2678" y2="291.2678"/><text fill="#000000" font-family="sans-serif" font-size="20" lengthAdjust="spacing" textLength="100.8999" x="203.0899" y="283.4078">show form</text></g><g class="message" data-entity-1="part1" data-entity-2="part2" id="msg3"><polygon fill="#181818" points="777.7691,328.5078,787.7691,332.5078,777.7691,336.5078,781.7691,332.5078" style="stroke:#181818;stroke-width:1;"/><line style="stroke:#181818;stroke-width:1;" x1="186.0899" x2="783.7691" y1="332.5078" y2="332.5078"/><text fill="#000000" font-family="sans-serif" font-size="20" lengthAdjust="spacing" textLength="500.9794" x="193.0899" y="324.6478">submit(minFuelRequirement, geographicalBoundary)</text></g><path d="M553,345.5078 L553,436.5078 L784,436.5078 L784,355.5078 L774,345.5078 L553,345.5078" fill="#FFFACD" style="stroke:#DAA520;stroke-width:0.5;"/><path d="M774,345.5078 L774,355.5078 L784,355.5078 L774,345.5078" fill="#FFFACD" style="stroke:#DAA520;stroke-width:0.5;"/><text fill="#000000" font-family="sans-serif" font-size="20" lengthAdjust="spacing" textLength="192.8198" x="559" y="371.8877">airControlAreaForm:</text><text fill="#000000" font-family="sans-serif" font-size="20" lengthAdjust="spacing" textLength="209.6797" x="559" y="399.1277">- minFuelRequirement</text><text fill="#000000" font-family="sans-serif" font-size="20" lengthAdjust="spacing" textLength="210.3198" x="559" y="426.3677">- geographicBoundary</text><g class="message" data-entity-1="part2" data-entity-2="part3" id="msg4"><polygon fill="#181818" points="1219.1486,471.4677,1229.1486,475.4677,1219.1486,479.4677,1223.1486,475.4677" style="stroke:#181818;stroke-width:1;"/><line style="stroke:#181818;stroke-width:1;" x1="799.7691" x2="1225.1486" y1="475.4677" y2="475.4677"/><text fill="#000000" font-family="sans-serif" font-size="20" lengthAdjust="spacing" textLength="412.3795" x="806.7691" y="467.6077">registerAirControlArea(airControlAreaForm)</text></g><g class="message" data-entity-1="part3" data-entity-2="part4" id="msg5"><polygon fill="#181818" points="1646.0481,512.7076,1656.0481,516.7076,1646.0481,520.7076,1650.0481,516.7076" style="stroke:#181818;stroke-width:1;"/><line style="stroke:#181818;stroke-width:1;" x1="1241.1486" x2="1652.0481" y1="516.7076" y2="516.7076"/><text fill="#000000" font-family="sans-serif" font-size="20" lengthAdjust="spacing" textLength="397.8995" x="1248.1486" y="508.8476">createAirControlArea(airControlAreaForm)</text></g><g class="message" data-entity-1="part4" data-entity-2="part5" id="msg6"><polygon fill="#181818" points="1928.5678,553.9476,1938.5678,557.9476,1928.5678,561.9476,1932.5678,557.9476" style="stroke:#181818;stroke-width:1;"/><line style="stroke:#181818;stroke-width:1;" x1="1668.0481" x2="1934.5678" y1="557.9476" y2="557.9476"/><text fill="#000000" font-family="sans-serif" font-size="20" lengthAdjust="spacing" textLength="178.9398" x="1675.0481" y="550.0876">getNextAreaCode()</text></g><g class="message" data-entity-1="part5" data-entity-2="part4" id="msg7"><polygon fill="#181818" points="1679.0481,595.1876,1669.0481,599.1876,1679.0481,603.1876,1675.0481,599.1876" style="stroke:#181818;stroke-width:1;"/><line style="stroke:#181818;stroke-width:1;stroke-dasharray:2,2;" x1="1673.0481" x2="1944.5678" y1="599.1876" y2="599.1876"/><text fill="#000000" font-family="sans-serif" font-size="20" lengthAdjust="spacing" textLength="89.7599" x="1685.0481" y="591.3276">nextCode</text></g><g class="message" data-entity-1="part4" data-entity-2="part5" id="msg8"><polygon fill="#181818" points="1928.5678,636.4276,1938.5678,640.4276,1928.5678,644.4276,1932.5678,640.4276" style="stroke:#181818;stroke-width:1;"/><line style="stroke:#181818;stroke-width:1;" x1="1668.0481" x2="1934.5678" y1="640.4276" y2="640.4276"/><text fill="#000000" font-family="sans-serif" font-size="20" lengthAdjust="spacing" textLength="253.5197" x="1675.0481" y="632.5676">findByAreaCode(nextCode)</text></g><g class="message" data-entity-1="part5" data-entity-2="part4" id="msg9"><polygon fill="#181818" points="1679.0481,677.6675,1669.0481,681.6675,1679.0481,685.6675,1675.0481,681.6675" style="stroke:#181818;stroke-width:1;"/><line style="stroke:#181818;stroke-width:1;stroke-dasharray:2,2;" x1="1673.0481" x2="1944.5678" y1="681.6675" y2="681.6675"/><text fill="#000000" font-family="sans-serif" font-size="20" lengthAdjust="spacing" textLength="243.5997" x="1685.0481" y="673.8075">Optional&lt;AirControlArea&gt;</text></g><path d="M80,696.6675 L151.86,696.6675 L151.86,715.9075 L141.86,725.9075 L80,725.9075 L80,696.6675" fill="#EEEEEE" style="stroke:#000000;stroke-width:1.5;"/><rect fill="none" height="1243.1591" style="stroke:#000000;stroke-width:1.5;" width="2875.1196" x="80" y="696.6675"/><text fill="#000000" font-family="sans-serif" font-size="20" font-weight="bold" lengthAdjust="spacing" textLength="26.86" x="95" y="719.0475">alt</text><text fill="#000000" font-family="sans-serif" font-size="20" font-weight="bold" lengthAdjust="spacing" textLength="290.9597" x="166.86" y="720.0475">[AreaCode collision detected]</text><g class="message" data-entity-1="part4" data-entity-2="part3" id="msg10"><polygon fill="#181818" points="1252.1486,767.3875,1242.1486,771.3875,1252.1486,775.3875,1248.1486,771.3875" style="stroke:#181818;stroke-width:1;"/><line style="stroke:#181818;stroke-width:1;stroke-dasharray:2,2;" x1="1246.1486" x2="1662.0481" y1="771.3875" y2="771.3875"/><text fill="#000000" font-family="sans-serif" font-size="20" lengthAdjust="spacing" textLength="262.9997" x="1258.1486" y="763.5275">AreaCodeCollisionException</text></g><g class="message" data-entity-1="part3" data-entity-2="part2" id="msg11"><polygon fill="#181818" points="810.7691,808.6274,800.7691,812.6274,810.7691,816.6274,806.7691,812.6274" style="stroke:#181818;stroke-width:1;"/><line style="stroke:#181818;stroke-width:1;stroke-dasharray:2,2;" x1="804.7691" x2="1235.1486" y1="812.6274" y2="812.6274"/><text fill="#000000" font-family="sans-serif" font-size="20" lengthAdjust="spacing" textLength="151.5598" x="816.7691" y="804.7674">propagate error</text></g><g class="message" data-entity-1="part2" data-entity-2="part1" id="msg12"><polygon fill="#181818" points="197.0899,849.8674,187.0899,853.8674,197.0899,857.8674,193.0899,853.8674" style="stroke:#181818;stroke-width:1;"/><line style="stroke:#181818;stroke-width:1;stroke-dasharray:2,2;" x1="191.0899" x2="793.7691" y1="853.8674" y2="853.8674"/><text fill="#000000" font-family="sans-serif" font-size="20" lengthAdjust="spacing" textLength="208.4198" x="203.0899" y="846.0074">display error message</text></g><line style="stroke:#000000;stroke-width:1;stroke-dasharray:2,2;" x1="80" x2="2955.1196" y1="862.8674" y2="862.8674"/><text fill="#000000" font-family="sans-serif" font-size="20" font-weight="bold" lengthAdjust="spacing" textLength="206.0598" x="85" y="884.2474">[AreaCode is unique]</text><g class="message" data-entity-1="part4" data-entity-2="part6" id="msg13"><polygon fill="#181818" points="2066.6777,920.3474,2076.6777,924.3474,2066.6777,928.3474,2070.6777,924.3474" style="stroke:#181818;stroke-width:1;"/><line style="stroke:#181818;stroke-width:1;" x1="1663.0481" x2="2072.6777" y1="924.3474" y2="924.3474"/><text fill="#000000" font-family="sans-serif" font-size="20" lengthAdjust="spacing" textLength="160.6198" x="1670.0481" y="916.4874">create(nextCode)</text></g><rect fill="#E2E2F0" height="68.4799" rx="2.5" ry="2.5" style="stroke:#181818;stroke-width:0.5;" width="152.7598" x="2078.6777" y="891.1074"/><text fill="#000000" font-family="sans-serif" font-size="20" lengthAdjust="spacing" textLength="138.7598" x="2085.6777" y="919.4874">&#171;Value Object&#187;</text><text fill="#000000" font-family="sans-serif" font-size="20" lengthAdjust="spacing" textLength="91.8599" x="2109.1276" y="946.7273">AreaCode</text><path d="M2165,975.5873 L2165,1066.5873 L2645,1066.5873 L2645,985.5873 L2635,975.5873 L2165,975.5873" fill="#FFFACD" style="stroke:#DAA520;stroke-width:0.5;"/><path d="M2635,975.5873 L2635,985.5873 L2645,985.5873 L2635,975.5873" fill="#FFFACD" style="stroke:#DAA520;stroke-width:0.5;"/><text fill="#000000" font-family="sans-serif" font-size="20" lengthAdjust="spacing" textLength="326.1196" x="2171" y="1001.9673">Invariant enforced at construction:</text><text fill="#000000" font-family="sans-serif" font-size="20" lengthAdjust="spacing" textLength="459.4194" x="2171" y="1029.2073">Generated by system: must be a positive integer.</text><text fill="#000000" font-family="sans-serif" font-size="20" lengthAdjust="spacing" textLength="336.4795" x="2171" y="1056.4473">Throws if generated value is invalid.</text><g class="message" data-entity-1="part6" data-entity-2="part4" id="msg15"><polygon fill="#181818" points="1674.0481,1101.5472,1664.0481,1105.5472,1674.0481,1109.5472,1670.0481,1105.5472" style="stroke:#181818;stroke-width:1;"/><line style="stroke:#181818;stroke-width:1;stroke-dasharray:2,2;" x1="1668.0481" x2="2154.0576" y1="1105.5472" y2="1105.5472"/><text fill="#000000" font-family="sans-serif" font-size="20" lengthAdjust="spacing" textLength="90.2999" x="1680.0481" y="1097.6872">areaCode</text></g><g class="message" data-entity-1="part4" data-entity-2="part7" id="msg16"><polygon fill="#181818" points="2229.4375,1142.7872,2239.4375,1146.7872,2229.4375,1150.7872,2233.4375,1146.7872" style="stroke:#181818;stroke-width:1;"/><line style="stroke:#181818;stroke-width:1;" x1="1663.0481" x2="2235.4375" y1="1146.7872" y2="1146.7872"/><text fill="#000000" font-family="sans-serif" font-size="20" lengthAdjust="spacing" textLength="344.7596" x="1670.0481" y="1138.9272">create(coords1, coords2, coords3, ...)</text></g><rect fill="#E2E2F0" height="68.4799" rx="2.5" ry="2.5" style="stroke:#181818;stroke-width:0.5;" width="231.3198" x="2241.4375" y="1113.5472"/><text fill="#000000" font-family="sans-serif" font-size="20" lengthAdjust="spacing" textLength="138.7598" x="2287.7175" y="1141.9272">&#171;Value Object&#187;</text><text fill="#000000" font-family="sans-serif" font-size="20" lengthAdjust="spacing" textLength="217.3198" x="2248.4375" y="1169.1672">GeographicalBoundary</text><path d="M2367,1198.0272 L2367,1344.0272 L2897,1344.0272 L2897,1208.0272 L2887,1198.0272 L2367,1198.0272" fill="#FFFACD" style="stroke:#DAA520;stroke-width:0.5;"/><path d="M2887,1198.0272 L2887,1208.0272 L2897,1208.0272 L2887,1198.0272" fill="#FFFACD" style="stroke:#DAA520;stroke-width:0.5;"/><text fill="#000000" font-family="sans-serif" font-size="20" lengthAdjust="spacing" textLength="326.1196" x="2373" y="1224.4072">Invariant enforced at construction:</text><text fill="#000000" font-family="sans-serif" font-size="20" lengthAdjust="spacing" textLength="501.3596" x="2373" y="1251.6471">Points must be within lat &#8712; [-90, 90], lon &#8712; [-180, 180];</text><text fill="#000000" font-family="sans-serif" font-size="20" lengthAdjust="spacing" textLength="509.2194" x="2373" y="1278.8871">At least 3 GeoCoordinates required to form a polygon;</text><text fill="#000000" font-family="sans-serif" font-size="20" lengthAdjust="spacing" textLength="371.7795" x="2373" y="1306.1271">No need to verify if boundaries overlap;</text><text fill="#000000" font-family="sans-serif" font-size="20" lengthAdjust="spacing" textLength="158.4598" x="2373" y="1333.3671">Throws if invalid.</text><g class="message" data-entity-1="part7" data-entity-2="part4" id="msg18"><polygon fill="#181818" points="1674.0481,1378.467,1664.0481,1382.467,1674.0481,1386.467,1670.0481,1382.467" style="stroke:#181818;stroke-width:1;"/><line style="stroke:#181818;stroke-width:1;stroke-dasharray:2,2;" x1="1668.0481" x2="2356.0974" y1="1382.467" y2="1382.467"/><text fill="#000000" font-family="sans-serif" font-size="20" lengthAdjust="spacing" textLength="215.0598" x="1680.0481" y="1374.607">geographicalBoundary</text></g><g class="message" data-entity-1="part4" data-entity-2="part8" id="msg19"><polygon fill="#181818" points="2470.7572,1419.707,2480.7572,1423.707,2470.7572,1427.707,2474.7572,1423.707" style="stroke:#181818;stroke-width:1;"/><line style="stroke:#181818;stroke-width:1;" x1="1663.0481" x2="2476.7572" y1="1423.707" y2="1423.707"/><text fill="#000000" font-family="sans-serif" font-size="20" lengthAdjust="spacing" textLength="268.8997" x="1670.0481" y="1415.847">create(minFuelRequirement)</text></g><rect fill="#E2E2F0" height="68.4799" rx="2.5" ry="2.5" style="stroke:#181818;stroke-width:0.5;" width="211.4798" x="2482.7572" y="1390.467"/><text fill="#000000" font-family="sans-serif" font-size="20" lengthAdjust="spacing" textLength="138.7598" x="2519.1172" y="1418.847">&#171;Value Object&#187;</text><text fill="#000000" font-family="sans-serif" font-size="20" lengthAdjust="spacing" textLength="197.4798" x="2489.7572" y="1446.087">MinFuelRequirement</text><path d="M2598,1474.947 L2598,1565.947 L2945,1565.947 L2945,1484.947 L2935,1474.947 L2598,1474.947" fill="#FFFACD" style="stroke:#DAA520;stroke-width:0.5;"/><path d="M2935,1474.947 L2935,1484.947 L2945,1484.947 L2935,1474.947" fill="#FFFACD" style="stroke:#DAA520;stroke-width:0.5;"/><text fill="#000000" font-family="sans-serif" font-size="20" lengthAdjust="spacing" textLength="326.1196" x="2604" y="1501.327">Invariant enforced at construction:</text><text fill="#000000" font-family="sans-serif" font-size="20" lengthAdjust="spacing" textLength="256.4797" x="2604" y="1528.5669">Must be a positive number;</text><text fill="#000000" font-family="sans-serif" font-size="20" lengthAdjust="spacing" textLength="158.4598" x="2604" y="1555.8069">Throws if invalid.</text><g class="message" data-entity-1="part8" data-entity-2="part4" id="msg21"><polygon fill="#181818" points="1674.0481,1600.9069,1664.0481,1604.9069,1674.0481,1608.9069,1670.0481,1604.9069" style="stroke:#181818;stroke-width:1;"/><line style="stroke:#181818;stroke-width:1;stroke-dasharray:2,2;" x1="1668.0481" x2="2587.4971" y1="1604.9069" y2="1604.9069"/><text fill="#000000" font-family="sans-serif" font-size="20" lengthAdjust="spacing" textLength="198.0397" x="1680.0481" y="1597.0469">minFuelRequirement</text></g><g class="message" data-entity-1="part4" data-entity-2="part9" id="msg22"><polygon fill="#181818" points="2692.237,1642.1469,2702.237,1646.1469,2692.237,1650.1469,2696.237,1646.1469" style="stroke:#181818;stroke-width:1;"/><line style="stroke:#181818;stroke-width:1;" x1="1663.0481" x2="2698.237" y1="1646.1469" y2="1646.1469"/><text fill="#000000" font-family="sans-serif" font-size="20" lengthAdjust="spacing" textLength="595.3793" x="1670.0481" y="1638.2869">create(areaCode, minFuelRequirement, geographicalBoundary)</text></g><rect fill="#E2E2F0" height="68.4799" rx="2.5" ry="2.5" style="stroke:#181818;stroke-width:0.5;" width="182.3598" x="2704.237" y="1612.9069"/><text fill="#000000" font-family="sans-serif" font-size="20" lengthAdjust="spacing" textLength="168.3598" x="2711.237" y="1641.2869">&#171;Aggregate Root&#187;</text><text fill="#000000" font-family="sans-serif" font-size="20" lengthAdjust="spacing" textLength="139.5798" x="2725.627" y="1668.5268">AirControlArea</text><g class="message" data-entity-1="part9" data-entity-2="part4" id="msg24"><polygon fill="#181818" points="1674.0481,1721.6268,1664.0481,1725.6268,1674.0481,1729.6268,1670.0481,1725.6268" style="stroke:#181818;stroke-width:1;"/><line style="stroke:#181818;stroke-width:1;stroke-dasharray:2,2;" x1="1668.0481" x2="2794.4169" y1="1725.6268" y2="1725.6268"/><text fill="#000000" font-family="sans-serif" font-size="20" lengthAdjust="spacing" textLength="138.0198" x="1680.0481" y="1717.7668">airControlArea</text></g><g class="message" data-entity-1="part4" data-entity-2="part5" id="msg25"><polygon fill="#181818" points="1928.5678,1762.8668,1938.5678,1766.8668,1928.5678,1770.8668,1932.5678,1766.8668" style="stroke:#181818;stroke-width:1;"/><line style="stroke:#181818;stroke-width:1;" x1="1663.0481" x2="1934.5678" y1="1766.8668" y2="1766.8668"/><text fill="#000000" font-family="sans-serif" font-size="20" lengthAdjust="spacing" textLength="192.2598" x="1670.0481" y="1759.0068">save(airControlArea)</text></g><g class="message" data-entity-1="part5" data-entity-2="part4" id="msg26"><polygon fill="#181818" points="1674.0481,1804.1068,1664.0481,1808.1068,1674.0481,1812.1068,1670.0481,1808.1068" style="stroke:#181818;stroke-width:1;"/><line style="stroke:#181818;stroke-width:1;stroke-dasharray:2,2;" x1="1668.0481" x2="1944.5678" y1="1808.1068" y2="1808.1068"/><text fill="#000000" font-family="sans-serif" font-size="20" lengthAdjust="spacing" textLength="194.1198" x="1680.0481" y="1800.2468">savedAirControlArea</text></g><g class="message" data-entity-1="part4" data-entity-2="part3" id="msg27"><polygon fill="#181818" points="1247.1486,1845.3467,1237.1486,1849.3467,1247.1486,1853.3467,1243.1486,1849.3467" style="stroke:#181818;stroke-width:1;"/><line style="stroke:#181818;stroke-width:1;stroke-dasharray:2,2;" x1="1241.1486" x2="1662.0481" y1="1849.3467" y2="1849.3467"/><text fill="#000000" font-family="sans-serif" font-size="20" lengthAdjust="spacing" textLength="277.6996" x="1253.1486" y="1841.4867">success(savedAirControlArea)</text></g><g class="message" data-entity-1="part3" data-entity-2="part2" id="msg28"><polygon fill="#181818" points="805.7691,1886.5867,795.7691,1890.5867,805.7691,1894.5867,801.7691,1890.5867" style="stroke:#181818;stroke-width:1;"/><line style="stroke:#181818;stroke-width:1;stroke-dasharray:2,2;" x1="799.7691" x2="1235.1486" y1="1890.5867" y2="1890.5867"/><text fill="#000000" font-family="sans-serif" font-size="20" lengthAdjust="spacing" textLength="174.9798" x="811.7691" y="1882.7267">propagate success</text></g><g class="message" data-entity-1="part2" data-entity-2="part1" id="msg29"><polygon fill="#181818" points="197.0899,1927.8267,187.0899,1931.8267,197.0899,1935.8267,193.0899,1931.8267" style="stroke:#181818;stroke-width:1;"/><line style="stroke:#181818;stroke-width:1;stroke-dasharray:2,2;" x1="191.0899" x2="793.7691" y1="1931.8267" y2="1931.8267"/><text fill="#000000" font-family="sans-serif" font-size="20" lengthAdjust="spacing" textLength="584.6792" x="203.0899" y="1923.9667">confirm "Air Control Area [AREACODE] registered successfully"</text></g><?plantuml-src dLRDZjis4BxhAGRRomQm5qw208spC23Rwy27h0DljvTa3xGqajcbIPMal76V8C_P9-cGehIIx1frBuP4pNmp_BxviNdcic2QxOHAdZ6553DM2hjGqZxmln3UZIBBhK1OOywDHGrCGimrpCX2Am6nHWP3U7mOVHX5faQ3UsLnofBdNAjIfZCbb8PV5ej5F9lthPHEKGUBUHn_e90HIoozEe1Lbl44LmLgvewOWKU3EY9_onDUC6dXYl89wRXi7fTNtcnvpYWy2jJU-FNrdDC3wZqbupt2SvGoopRCODzsZOKod58-UFFvD8eatHRKdZXqLnYVkXutm4gxHKafC8lfTyba2bi28Dg95Bv7C6WCLpAA70eC9tJJCMZyiqHZWP4qIP26EMcqrutGoGKofNUHXo5mnz3Z4eOEmUTZjkgbCacnRTG9PChDZjlh7PUB4iMQmdADEqfu03cgNBDYIwcBgPETwSERJZZFWC3CWihSExXyMwGjAFYOJeTmZE-FNqFK0I8aWXnkv2ypQKav3fT7tPNc-ZXeAyrMAKIlpmuvI3w6XBmiNW9QLqiK7XpSV3gc-zXx_66hYapnkkL25JEVUdMQk99CdLbR7rTOFT2CotHwQ31hh_FOgy9L21EttMjD-h6Oi513KwK9mLqnqjomc531aae0JJuzEMg_MUrszoD17zUxjIBLVBdZjWYX20kj2fOxGzHQwRvtIqBtfLFaAJU5O8VA4NRKIop7Fe0hUXJKrCrDgJ5BoQd78czRLG1qPiNjxUzCb0YhpHz4nMJoNTRUVW8ivrrk9dHIbr9B8sVJv15yVDjedczztuH3WANSCyrTR9JKjWcDRsPTzrE_bucZTHmiFwDq0uOCDWSm1sg9tHXs9SsB3G83FwdSQE7IOexw9hZzjjNgnG3Fg4vhWBs_8z71ARhWQMNRDA7FQzujBHPewBDC5xc0pCydfeidbcQ2V-_JMvyt92UALervEu3guLtzy7u0DpStFUexg5q1EfykaU6h8e9DG_mBjrikGP3rtpz_mhVXnz40FewU1Y2eewgZjx_I6VqyVGeOiQK1oWZWFQcgPku2N5B2ngy0cfKfMEMdk1TM778bQzzxHIEaCg0jnBE3atPJSSa9mUqcmOfFH_B_kzOr5rt5Jss2lleDYnVKm9UZhU0h82oBVW64uqR_uvtIqxoDqvMy_UKInRySzvWiTnlKbt0SWdSfFhaWEmJNEP_XDyvpMf7kmrgfQcHrfhzdjtlK9xdxjU6wxla1_FT_2XqjJaJj7lLcpB5vYueUMFyERcaQjiVU3kzbHDlFlVSNftDCuxFXtTuyjnTDcIIqYAvFGBtvtvinW5wo6wc2Cqw3u-he3_wtU7qNprRpkwVcFnKLVGYHbK8ShaxkK6hlVm00?></g></svg>