<?plantuml 1.2026.2?><svg xmlns="http://www.w3.org/2000/svg" xmlns:xlink="http://www.w3.org/1999/xlink" contentStyleType="text/css" data-diagram-type="SEQUENCE" height="1341px" preserveAspectRatio="none" style="width:2637px;height:1341px;background:#FFFFFF;" version="1.1" viewBox="0 0 2637 1341" width="2637px" zoomAndPan="magnify"><defs/><g><g><title>..UI..</title><rect fill="#FFFFFF" height="1039.4793" style="stroke:#181818;stroke-width:1;" width="10" x="624.0294" y="175.9599"/></g><g><title>..Controller..</title><rect fill="#FFFFFF" height="998.2393" style="stroke:#181818;stroke-width:1;" width="10" x="852.8992" y="217.1999"/></g><g><title>CompanyCollaboratorSession</title><rect fill="#FFFFFF" height="41.24" style="stroke:#181818;stroke-width:1;" width="10" x="1491.5184" y="258.4398"/></g><g><title>..Service..</title><rect fill="#FFFFFF" height="874.5194" style="stroke:#181818;stroke-width:1;" width="10" x="1722.7181" y="340.9198"/></g><g><title>..Repository..</title><rect fill="#FFFFFF" height="41.24" style="stroke:#181818;stroke-width:1;" width="10" x="2091.7977" y="382.1598"/></g><g><title>..Repository..</title><rect fill="#FFFFFF" height="41.24" style="stroke:#181818;stroke-width:1;" width="10" x="2091.7977" y="1028.4793"/></g><g><title>..Repository..</title><rect fill="#FFFFFF" height="41.24" style="stroke:#181818;stroke-width:1;" width="10" x="2307.3075" y="666.0796"/></g><rect fill="none" height="770.0395" style="stroke:#000000;stroke-width:1.5;" width="2620.6072" x="10" y="438.3997"/><rect fill="none" height="479.1197" style="stroke:#000000;stroke-width:1.5;" width="2600.6072" x="20" y="722.3195"/><g class="participant-lifeline" data-entity-uid="part1" data-qualified-name="CC" id="part1-lifeline"><g><title>Company Collaborator</title><rect fill="#000000" fill-opacity="0.00000" height="1119.9593" width="8" x="135.2299" y="105.4799"/><line style="stroke:#181818;stroke-width:0.5;stroke-dasharray:5,5;" x1="139" x2="139" y1="105.4799" y2="1225.4392"/></g></g><g class="participant-lifeline" data-entity-uid="part2" data-qualified-name="UI" id="part2-lifeline"><g><title>..UI..</title><rect fill="#000000" fill-opacity="0.00000" height="1119.9593" width="8" x="625.0294" y="105.4799"/><line style="stroke:#181818;stroke-width:0.5;stroke-dasharray:5,5;" x1="628.8795" x2="628.8795" y1="105.4799" y2="1225.4392"/></g></g><g class="participant-lifeline" data-entity-uid="part3" data-qualified-name="CTRL" id="part3-lifeline"><g><title>..Controller..</title><rect fill="#000000" fill-opacity="0.00000" height="1119.9593" width="8" x="853.8992" y="105.4799"/><line style="stroke:#181818;stroke-width:0.5;stroke-dasharray:5,5;" x1="857.1793" x2="857.1793" y1="105.4799" y2="1225.4392"/></g></g><g class="participant-lifeline" data-entity-uid="part4" data-qualified-name="SESSION" id="part4-lifeline"><g><title>CompanyCollaboratorSession</title><rect fill="#000000" fill-opacity="0.00000" height="1119.9593" width="8" x="1492.5184" y="105.4799"/><line style="stroke:#181818;stroke-width:0.5;stroke-dasharray:5,5;" x1="1496.3685" x2="1496.3685" y1="105.4799" y2="1225.4392"/></g></g><g class="participant-lifeline" data-entity-uid="part5" data-qualified-name="SVC" id="part5-lifeline"><g><title>..Service..</title><rect fill="#000000" fill-opacity="0.00000" height="1119.9593" width="8" x="1723.7181" y="105.4799"/><line style="stroke:#181818;stroke-width:0.5;stroke-dasharray:5,5;" x1="1727.6682" x2="1727.6682" y1="105.4799" y2="1225.4392"/></g></g><g class="participant-lifeline" data-entity-uid="part6" data-qualified-name="AREPO" id="part6-lifeline"><g><title>..Repository..</title><rect fill="#000000" fill-opacity="0.00000" height="1119.9593" width="8" x="2092.7977" y="105.4799"/><line style="stroke:#181818;stroke-width:0.5;stroke-dasharray:5,5;" x1="2096.7878" x2="2096.7878" y1="105.4799" y2="1225.4392"/></g></g><g class="participant-lifeline" data-entity-uid="part7" data-qualified-name="MREPO" id="part7-lifeline"><g><title>..Repository..</title><rect fill="#000000" fill-opacity="0.00000" height="1119.9593" width="8" x="2308.3075" y="105.4799"/><line style="stroke:#181818;stroke-width:0.5;stroke-dasharray:5,5;" x1="2311.8076" x2="2311.8076" y1="105.4799" y2="1225.4392"/></g></g><g class="participant-lifeline" data-entity-uid="part8" data-qualified-name="AC" id="part8-lifeline"><g><title>..Aggregate Root..</title><rect fill="#000000" fill-opacity="0.00000" height="259.9398" width="8" x="2521.2073" y="965.4994"/><line style="stroke:#181818;stroke-width:0.5;stroke-dasharray:5,5;" x1="2524.8073" x2="2524.8073" y1="965.4994" y2="1225.4392"/></g></g><g class="participant participant-head" data-entity-uid="part1" data-qualified-name="CC" id="part1-head"><text fill="#000000" font-family="sans-serif" font-size="20" lengthAdjust="spacing" textLength="212.4598" x="30" y="99.62">Company Collaborator</text><ellipse cx="139.2299" cy="26.74" fill="#E2E2F0" rx="8" ry="8" style="stroke:#181818;stroke-width:0.5;"/><path d="M139.2299,34.74 L139.2299,61.74 M126.2299,42.74 L152.2299,42.74 M139.2299,61.74 L126.2299,76.74 M139.2299,61.74 L152.2299,76.74" fill="none" style="stroke:#181818;stroke-width:0.5;"/></g><g class="participant participant-tail" data-entity-uid="part1" data-qualified-name="CC" id="part1-tail"><text fill="#000000" font-family="sans-serif" font-size="20" lengthAdjust="spacing" textLength="212.4598" x="30" y="1245.8192">Company Collaborator</text><ellipse cx="139.2299" cy="1260.1792" fill="#E2E2F0" rx="8" ry="8" style="stroke:#181818;stroke-width:0.5;"/><path d="M139.2299,1268.1792 L139.2299,1295.1792 M126.2299,1276.1792 L152.2299,1276.1792 M139.2299,1295.1792 L126.2299,1310.1792 M139.2299,1295.1792 L152.2299,1310.1792" fill="none" style="stroke:#181818;stroke-width:0.5;"/></g><g class="participant participant-head" data-entity-uid="part2" data-qualified-name="UI" id="part2-head"><rect fill="#E2E2F0" height="68.4799" rx="2.5" ry="2.5" style="stroke:#181818;stroke-width:0.5;" width="182.2998" x="537.8795" y="36"/><text fill="#000000" font-family="sans-serif" font-size="20" font-style="italic" lengthAdjust="spacing" textLength="39.1" x="609.4794" y="64.38">&#171;UI&#187;</text><text fill="#000000" font-family="sans-serif" font-size="20" lengthAdjust="spacing" textLength="168.2998" x="544.8795" y="91.62">RegisterAircraftUI</text></g><g class="participant participant-tail" data-entity-uid="part2" data-qualified-name="UI" id="part2-tail"><rect fill="#E2E2F0" height="68.4799" rx="2.5" ry="2.5" style="stroke:#181818;stroke-width:0.5;" width="182.2998" x="537.8795" y="1224.4392"/><text fill="#000000" font-family="sans-serif" font-size="20" font-style="italic" lengthAdjust="spacing" textLength="39.1" x="609.4794" y="1252.8192">&#171;UI&#187;</text><text fill="#000000" font-family="sans-serif" font-size="20" lengthAdjust="spacing" textLength="168.2998" x="544.8795" y="1280.0592">RegisterAircraftUI</text></g><g class="participant participant-head" data-entity-uid="part3" data-qualified-name="CTRL" id="part3-head"><rect fill="#E2E2F0" height="68.4799" rx="2.5" ry="2.5" style="stroke:#181818;stroke-width:0.5;" width="255.4397" x="730.1793" y="36"/><text fill="#000000" font-family="sans-serif" font-size="20" font-style="italic" lengthAdjust="spacing" textLength="107.7799" x="804.0092" y="64.38">&#171;Controller&#187;</text><text fill="#000000" font-family="sans-serif" font-size="20" lengthAdjust="spacing" textLength="241.4397" x="737.1793" y="91.62">RegisterAircraftController</text></g><g class="participant participant-tail" data-entity-uid="part3" data-qualified-name="CTRL" id="part3-tail"><rect fill="#E2E2F0" height="68.4799" rx="2.5" ry="2.5" style="stroke:#181818;stroke-width:0.5;" width="255.4397" x="730.1793" y="1224.4392"/><text fill="#000000" font-family="sans-serif" font-size="20" font-style="italic" lengthAdjust="spacing" textLength="107.7799" x="804.0092" y="1252.8192">&#171;Controller&#187;</text><text fill="#000000" font-family="sans-serif" font-size="20" lengthAdjust="spacing" textLength="241.4397" x="737.1793" y="1280.0592">RegisterAircraftController</text></g><g class="participant participant-head" data-entity-uid="part4" data-qualified-name="SESSION" id="part4-head"><rect fill="#E2E2F0" height="41.24" rx="2.5" ry="2.5" style="stroke:#181818;stroke-width:0.5;" width="292.2997" x="1350.3685" y="63.24"/><text fill="#000000" font-family="sans-serif" font-size="20" lengthAdjust="spacing" textLength="278.2997" x="1357.3685" y="91.62">CompanyCollaboratorSession</text></g><g class="participant participant-tail" data-entity-uid="part4" data-qualified-name="SESSION" id="part4-tail"><rect fill="#E2E2F0" height="41.24" rx="2.5" ry="2.5" style="stroke:#181818;stroke-width:0.5;" width="292.2997" x="1350.3685" y="1224.4392"/><text fill="#000000" font-family="sans-serif" font-size="20" lengthAdjust="spacing" textLength="278.2997" x="1357.3685" y="1252.8192">CompanyCollaboratorSession</text></g><g class="participant participant-head" data-entity-uid="part5" data-qualified-name="SVC" id="part5-head"><rect fill="#E2E2F0" height="68.4799" rx="2.5" ry="2.5" style="stroke:#181818;stroke-width:0.5;" width="150.0998" x="1652.6682" y="36"/><text fill="#000000" font-family="sans-serif" font-size="20" font-style="italic" lengthAdjust="spacing" textLength="80.6599" x="1687.3882" y="64.38">&#171;Service&#187;</text><text fill="#000000" font-family="sans-serif" font-size="20" lengthAdjust="spacing" textLength="136.0998" x="1659.6682" y="91.62">AircraftService</text></g><g class="participant participant-tail" data-entity-uid="part5" data-qualified-name="SVC" id="part5-tail"><rect fill="#E2E2F0" height="68.4799" rx="2.5" ry="2.5" style="stroke:#181818;stroke-width:0.5;" width="150.0998" x="1652.6682" y="1224.4392"/><text fill="#000000" font-family="sans-serif" font-size="20" font-style="italic" lengthAdjust="spacing" textLength="80.6599" x="1687.3882" y="1252.8192">&#171;Service&#187;</text><text fill="#000000" font-family="sans-serif" font-size="20" lengthAdjust="spacing" textLength="136.0998" x="1659.6682" y="1280.0592">AircraftService</text></g><g class="participant participant-head" data-entity-uid="part6" data-qualified-name="AREPO" id="part6-head"><text fill="#000000" font-family="sans-serif" font-size="20" font-style="italic" lengthAdjust="spacing" textLength="112.3599" x="2037.6177" y="72.38">&#171;Repository&#187;</text><text fill="#000000" font-family="sans-serif" font-size="20" lengthAdjust="spacing" textLength="170.0198" x="2008.7878" y="99.62">AircraftRepository</text><path d="M2078.7977,15 C2078.7977,5 2096.7977,5 2096.7977,5 C2096.7977,5 2114.7977,5 2114.7977,15 L2114.7977,41 C2114.7977,51 2096.7977,51 2096.7977,51 C2096.7977,51 2078.7977,51 2078.7977,41 L2078.7977,15" fill="#E2E2F0" style="stroke:#181818;stroke-width:0.5;"/><path d="M2078.7977,15 C2078.7977,25 2096.7977,25 2096.7977,25 C2096.7977,25 2114.7977,25 2114.7977,15" fill="none" style="stroke:#181818;stroke-width:0.5;"/></g><g class="participant participant-tail" data-entity-uid="part6" data-qualified-name="AREPO" id="part6-tail"><text fill="#000000" font-family="sans-serif" font-size="20" font-style="italic" lengthAdjust="spacing" textLength="112.3599" x="2037.6177" y="1245.8192">&#171;Repository&#187;</text><text fill="#000000" font-family="sans-serif" font-size="20" lengthAdjust="spacing" textLength="170.0198" x="2008.7878" y="1273.0592">AircraftRepository</text><path d="M2078.7977,1288.9192 C2078.7977,1278.9192 2096.7977,1278.9192 2096.7977,1278.9192 C2096.7977,1278.9192 2114.7977,1278.9192 2114.7977,1288.9192 L2114.7977,1314.9192 C2114.7977,1324.9192 2096.7977,1324.9192 2096.7977,1324.9192 C2096.7977,1324.9192 2078.7977,1324.9192 2078.7977,1314.9192 L2078.7977,1288.9192" fill="#E2E2F0" style="stroke:#181818;stroke-width:0.5;"/><path d="M2078.7977,1288.9192 C2078.7977,1298.9192 2096.7977,1298.9192 2096.7977,1298.9192 C2096.7977,1298.9192 2114.7977,1298.9192 2114.7977,1288.9192" fill="none" style="stroke:#181818;stroke-width:0.5;"/></g><g class="participant participant-head" data-entity-uid="part7" data-qualified-name="MREPO" id="part7-head"><text fill="#000000" font-family="sans-serif" font-size="20" font-style="italic" lengthAdjust="spacing" textLength="112.3599" x="2253.1275" y="72.38">&#171;Repository&#187;</text><text fill="#000000" font-family="sans-serif" font-size="20" lengthAdjust="spacing" textLength="228.9997" x="2194.8076" y="99.62">AircraftModelRepository</text><path d="M2294.3075,15 C2294.3075,5 2312.3075,5 2312.3075,5 C2312.3075,5 2330.3075,5 2330.3075,15 L2330.3075,41 C2330.3075,51 2312.3075,51 2312.3075,51 C2312.3075,51 2294.3075,51 2294.3075,41 L2294.3075,15" fill="#E2E2F0" style="stroke:#181818;stroke-width:0.5;"/><path d="M2294.3075,15 C2294.3075,25 2312.3075,25 2312.3075,25 C2312.3075,25 2330.3075,25 2330.3075,15" fill="none" style="stroke:#181818;stroke-width:0.5;"/></g><g class="participant participant-tail" data-entity-uid="part7" data-qualified-name="MREPO" id="part7-tail"><text fill="#000000" font-family="sans-serif" font-size="20" font-style="italic" lengthAdjust="spacing" textLength="112.3599" x="2253.1275" y="1245.8192">&#171;Repository&#187;</text><text fill="#000000" font-family="sans-serif" font-size="20" lengthAdjust="spacing" textLength="228.9997" x="2194.8076" y="1273.0592">AircraftModelRepository</text><path d="M2294.3075,1288.9192 C2294.3075,1278.9192 2312.3075,1278.9192 2312.3075,1278.9192 C2312.3075,1278.9192 2330.3075,1278.9192 2330.3075,1288.9192 L2330.3075,1314.9192 C2330.3075,1324.9192 2312.3075,1324.9192 2312.3075,1324.9192 C2312.3075,1324.9192 2294.3075,1324.9192 2294.3075,1314.9192 L2294.3075,1288.9192" fill="#E2E2F0" style="stroke:#181818;stroke-width:0.5;"/><path d="M2294.3075,1288.9192 C2294.3075,1298.9192 2312.3075,1298.9192 2312.3075,1298.9192 C2312.3075,1298.9192 2330.3075,1298.9192 2330.3075,1288.9192" fill="none" style="stroke:#181818;stroke-width:0.5;"/></g><g class="participant participant-tail" data-entity-uid="part8" data-qualified-name="AC" id="part8-tail"><rect fill="#E2E2F0" height="68.4799" rx="2.5" ry="2.5" style="stroke:#181818;stroke-width:0.5;" width="170.7999" x="2439.8073" y="1224.4392"/><text fill="#000000" font-family="sans-serif" font-size="20" font-style="italic" lengthAdjust="spacing" textLength="156.7999" x="2446.8073" y="1252.8192">&#171;Aggregate Root&#187;</text><text fill="#000000" font-family="sans-serif" font-size="20" lengthAdjust="spacing" textLength="69.3799" x="2490.5173" y="1280.0592">Aircraft</text></g><g><title>..UI..</title><rect fill="#FFFFFF" height="1039.4793" style="stroke:#181818;stroke-width:1;" width="10" x="624.0294" y="175.9599"/></g><g><title>..Controller..</title><rect fill="#FFFFFF" height="998.2393" style="stroke:#181818;stroke-width:1;" width="10" x="852.8992" y="217.1999"/></g><g><title>CompanyCollaboratorSession</title><rect fill="#FFFFFF" height="41.24" style="stroke:#181818;stroke-width:1;" width="10" x="1491.5184" y="258.4398"/></g><g><title>..Service..</title><rect fill="#FFFFFF" height="874.5194" style="stroke:#181818;stroke-width:1;" width="10" x="1722.7181" y="340.9198"/></g><g><title>..Repository..</title><rect fill="#FFFFFF" height="41.24" style="stroke:#181818;stroke-width:1;" width="10" x="2091.7977" y="382.1598"/></g><g><title>..Repository..</title><rect fill="#FFFFFF" height="41.24" style="stroke:#181818;stroke-width:1;" width="10" x="2091.7977" y="1028.4793"/></g><g><title>..Repository..</title><rect fill="#FFFFFF" height="41.24" style="stroke:#181818;stroke-width:1;" width="10" x="2307.3075" y="666.0796"/></g><g class="message" data-entity-1="part1" data-entity-2="part2" id="msg1"><polygon fill="#181818" points="612.0294,171.9599,622.0294,175.9599,612.0294,179.9599,616.0294,175.9599" style="stroke:#181818;stroke-width:1;"/><line style="stroke:#181818;stroke-width:1;" x1="139.2299" x2="618.0294" y1="175.9599" y2="175.9599"/><text fill="#000000" font-family="sans-serif" font-size="20" font-weight="bold" lengthAdjust="spacing" textLength="11.44" x="146.2299" y="154.4799">1</text><text fill="#000000" font-family="sans-serif" font-size="20" lengthAdjust="spacing" textLength="316.4796" x="161.6699" y="140.8599">enter registration, model, engine,</text><text fill="#000000" font-family="sans-serif" font-size="20" lengthAdjust="spacing" textLength="445.1595" x="166.8699" y="168.0999">cabin seats, country, crew, year of manufacture</text></g><g class="message" data-entity-1="part2" data-entity-2="part3" id="msg2"><polygon fill="#181818" points="840.8992,213.1999,850.8992,217.1999,840.8992,221.1999,844.8992,217.1999" style="stroke:#181818;stroke-width:1;"/><line style="stroke:#181818;stroke-width:1;" x1="634.0294" x2="846.8992" y1="217.1999" y2="217.1999"/><text fill="#000000" font-family="sans-serif" font-size="20" font-weight="bold" lengthAdjust="spacing" textLength="11.44" x="641.0294" y="209.3399">2</text><text fill="#000000" font-family="sans-serif" font-size="20" lengthAdjust="spacing" textLength="170.7998" x="656.4694" y="209.3399">registerAircraft(...)</text></g><g class="message" data-entity-1="part3" data-entity-2="part4" id="msg3"><polygon fill="#181818" points="1479.5184,254.4398,1489.5184,258.4398,1479.5184,262.4398,1483.5184,258.4398" style="stroke:#181818;stroke-width:1;"/><line style="stroke:#181818;stroke-width:1;" x1="862.8992" x2="1485.5184" y1="258.4398" y2="258.4398"/><text fill="#000000" font-family="sans-serif" font-size="20" font-weight="bold" lengthAdjust="spacing" textLength="11.44" x="869.8992" y="250.5799">3</text><text fill="#000000" font-family="sans-serif" font-size="20" lengthAdjust="spacing" textLength="594.1792" x="885.3392" y="250.5799">requireAirTransportCompanyCollaborator(authz, collaborators)</text></g><g class="message" data-entity-1="part4" data-entity-2="part3" id="msg4"><polygon fill="#181818" points="873.8992,295.6798,863.8992,299.6798,873.8992,303.6798,869.8992,299.6798" style="stroke:#181818;stroke-width:1;"/><line style="stroke:#181818;stroke-width:1;stroke-dasharray:2,2;" x1="867.8992" x2="1495.5184" y1="299.6798" y2="299.6798"/><text fill="#000000" font-family="sans-serif" font-size="20" font-weight="bold" lengthAdjust="spacing" textLength="11.44" x="879.8992" y="291.8198">4</text><text fill="#000000" font-family="sans-serif" font-size="20" lengthAdjust="spacing" textLength="403.3396" x="895.3392" y="291.8198">CompanyCollaboratorUser (company IATA)</text></g><g class="message" data-entity-1="part3" data-entity-2="part5" id="msg5"><polygon fill="#181818" points="1710.7181,336.9198,1720.7181,340.9198,1710.7181,344.9198,1714.7181,340.9198" style="stroke:#181818;stroke-width:1;"/><line style="stroke:#181818;stroke-width:1;" x1="862.8992" x2="1716.7181" y1="340.9198" y2="340.9198"/><text fill="#000000" font-family="sans-serif" font-size="20" font-weight="bold" lengthAdjust="spacing" textLength="11.44" x="869.8992" y="333.0598">5</text><text fill="#000000" font-family="sans-serif" font-size="20" lengthAdjust="spacing" textLength="499.1994" x="885.3392" y="333.0598">registerAircraft(..., yearOfManufacture, companyIata)</text></g><g class="message" data-entity-1="part5" data-entity-2="part6" id="msg6"><polygon fill="#181818" points="2079.7977,378.1598,2089.7977,382.1598,2079.7977,386.1598,2083.7977,382.1598" style="stroke:#181818;stroke-width:1;"/><line style="stroke:#181818;stroke-width:1;" x1="1732.7181" x2="2085.7977" y1="382.1598" y2="382.1598"/><text fill="#000000" font-family="sans-serif" font-size="20" font-weight="bold" lengthAdjust="spacing" textLength="11.44" x="1739.7181" y="374.2998">6</text><text fill="#000000" font-family="sans-serif" font-size="20" lengthAdjust="spacing" textLength="313.0195" x="1755.1581" y="374.2998">existsByRegistration(registration)</text></g><g class="message" data-entity-1="part6" data-entity-2="part5" id="msg7"><polygon fill="#181818" points="1743.7181,419.3997,1733.7181,423.3997,1743.7181,427.3997,1739.7181,423.3997" style="stroke:#181818;stroke-width:1;"/><line style="stroke:#181818;stroke-width:1;stroke-dasharray:2,2;" x1="1737.7181" x2="2095.7977" y1="423.3997" y2="423.3997"/><text fill="#000000" font-family="sans-serif" font-size="20" font-weight="bold" lengthAdjust="spacing" textLength="11.44" x="1749.7181" y="415.5398">7</text><text fill="#000000" font-family="sans-serif" font-size="20" lengthAdjust="spacing" textLength="76.5199" x="1765.1581" y="415.5398">boolean</text></g><path d="M10,438.3997 L81.62,438.3997 L81.62,457.6397 L71.62,467.6397 L10,467.6397 L10,438.3997" fill="#EEEEEE" style="stroke:#000000;stroke-width:1.5;"/><rect fill="none" height="770.0395" style="stroke:#000000;stroke-width:1.5;" width="2620.6072" x="10" y="438.3997"/><text fill="#000000" font-family="sans-serif" font-size="20" font-weight="bold" lengthAdjust="spacing" textLength="26.62" x="25" y="460.7797">alt</text><text fill="#000000" font-family="sans-serif" font-size="20" font-weight="bold" lengthAdjust="spacing" textLength="276.0397" x="96.62" y="461.7797">[registration already exists]</text><g class="message" data-entity-1="part5" data-entity-2="part3" id="msg8"><polygon fill="#181818" points="873.8992,509.1197,863.8992,513.1197,873.8992,517.1197,869.8992,513.1197" style="stroke:#181818;stroke-width:1;"/><line style="stroke:#181818;stroke-width:1;stroke-dasharray:2,2;" x1="867.8992" x2="1721.7181" y1="513.1197" y2="513.1197"/><text fill="#000000" font-family="sans-serif" font-size="20" font-weight="bold" lengthAdjust="spacing" textLength="11.44" x="879.8992" y="505.2597">8</text><text fill="#000000" font-family="sans-serif" font-size="20" lengthAdjust="spacing" textLength="364.2995" x="895.3392" y="505.2597">DuplicateAircraftRegistrationException</text></g><g class="message" data-entity-1="part3" data-entity-2="part2" id="msg9"><polygon fill="#181818" points="645.0294,550.3596,635.0294,554.3596,645.0294,558.3596,641.0294,554.3596" style="stroke:#181818;stroke-width:1;"/><line style="stroke:#181818;stroke-width:1;stroke-dasharray:2,2;" x1="639.0294" x2="851.8992" y1="554.3596" y2="554.3596"/><text fill="#000000" font-family="sans-serif" font-size="20" font-weight="bold" lengthAdjust="spacing" textLength="11.44" x="651.0294" y="546.4997">9</text><text fill="#000000" font-family="sans-serif" font-size="20" lengthAdjust="spacing" textLength="137.2999" x="666.4694" y="546.4997">error message</text></g><g class="message" data-entity-1="part2" data-entity-2="part1" id="msg10"><polygon fill="#181818" points="150.2299,591.5996,140.2299,595.5996,150.2299,599.5996,146.2299,595.5996" style="stroke:#181818;stroke-width:1;"/><line style="stroke:#181818;stroke-width:1;stroke-dasharray:2,2;" x1="144.2299" x2="623.0294" y1="595.5996" y2="595.5996"/><text fill="#000000" font-family="sans-serif" font-size="20" font-weight="bold" lengthAdjust="spacing" textLength="22.88" x="156.2299" y="587.7396">10</text><text fill="#000000" font-family="sans-serif" font-size="20" lengthAdjust="spacing" textLength="167.3198" x="183.1099" y="587.7396">registration failed</text></g><line style="stroke:#000000;stroke-width:1;stroke-dasharray:2,2;" x1="10" x2="2630.6072" y1="604.5996" y2="604.5996"/><text fill="#000000" font-family="sans-serif" font-size="20" font-weight="bold" lengthAdjust="spacing" textLength="179.7998" x="15" y="625.9796">[new registration]</text><g class="message" data-entity-1="part5" data-entity-2="part7" id="msg11"><polygon fill="#181818" points="2295.3075,662.0796,2305.3075,666.0796,2295.3075,670.0796,2299.3075,666.0796" style="stroke:#181818;stroke-width:1;"/><line style="stroke:#181818;stroke-width:1;" x1="1732.7181" x2="2301.3075" y1="666.0796" y2="666.0796"/><text fill="#000000" font-family="sans-serif" font-size="20" font-weight="bold" lengthAdjust="spacing" textLength="22.88" x="1739.7181" y="658.2196">11</text><text fill="#000000" font-family="sans-serif" font-size="20" lengthAdjust="spacing" textLength="171.8998" x="1766.5981" y="658.2196">findByID(modelId)</text></g><g class="message" data-entity-1="part7" data-entity-2="part5" id="msg12"><polygon fill="#181818" points="1743.7181,703.3195,1733.7181,707.3195,1743.7181,711.3195,1739.7181,707.3195" style="stroke:#181818;stroke-width:1;"/><line style="stroke:#181818;stroke-width:1;stroke-dasharray:2,2;" x1="1737.7181" x2="2311.3075" y1="707.3195" y2="707.3195"/><text fill="#000000" font-family="sans-serif" font-size="20" font-weight="bold" lengthAdjust="spacing" textLength="22.88" x="1749.7181" y="699.4596">12</text><text fill="#000000" font-family="sans-serif" font-size="20" lengthAdjust="spacing" textLength="232.3797" x="1776.5981" y="699.4596">Optional&lt;AircraftModel&gt;</text></g><path d="M20,722.3195 L91.62,722.3195 L91.62,741.5595 L81.62,751.5595 L20,751.5595 L20,722.3195" fill="#EEEEEE" style="stroke:#000000;stroke-width:1.5;"/><rect fill="none" height="479.1197" style="stroke:#000000;stroke-width:1.5;" width="2600.6072" x="20" y="722.3195"/><text fill="#000000" font-family="sans-serif" font-size="20" font-weight="bold" lengthAdjust="spacing" textLength="26.62" x="35" y="744.6995">alt</text><text fill="#000000" font-family="sans-serif" font-size="20" font-weight="bold" lengthAdjust="spacing" textLength="179.2398" x="106.62" y="745.6995">[model not found]</text><g class="message" data-entity-1="part5" data-entity-2="part3" id="msg13"><polygon fill="#181818" points="873.8992,793.0395,863.8992,797.0395,873.8992,801.0395,869.8992,797.0395" style="stroke:#181818;stroke-width:1;"/><line style="stroke:#181818;stroke-width:1;stroke-dasharray:2,2;" x1="867.8992" x2="1721.7181" y1="797.0395" y2="797.0395"/><text fill="#000000" font-family="sans-serif" font-size="20" font-weight="bold" lengthAdjust="spacing" textLength="22.88" x="879.8992" y="789.1795">13</text><text fill="#000000" font-family="sans-serif" font-size="20" lengthAdjust="spacing" textLength="314.0996" x="906.7792" y="789.1795">AircraftModelNotFoundException</text></g><line style="stroke:#000000;stroke-width:1;stroke-dasharray:2,2;" x1="20" x2="2620.6072" y1="806.0395" y2="806.0395"/><text fill="#000000" font-family="sans-serif" font-size="20" font-weight="bold" lengthAdjust="spacing" textLength="139.8598" x="25" y="827.4195">[model found]</text><g class="message" data-entity-1="part5" data-entity-2="part5" id="msg14"><line style="stroke:#181818;stroke-width:1;" x1="1732.7181" x2="1774.7181" y1="894.7594" y2="894.7594"/><line style="stroke:#181818;stroke-width:1;" x1="1774.7181" x2="1774.7181" y1="894.7594" y2="907.7594"/><line style="stroke:#181818;stroke-width:1;" x1="1733.7181" x2="1774.7181" y1="907.7594" y2="907.7594"/><polygon fill="#181818" points="1743.7181,903.7594,1733.7181,907.7594,1743.7181,911.7594,1739.7181,907.7594" style="stroke:#181818;stroke-width:1;"/><text fill="#000000" font-family="sans-serif" font-size="20" font-weight="bold" lengthAdjust="spacing" textLength="22.88" x="1739.7181" y="873.2794">14</text><text fill="#000000" font-family="sans-serif" font-size="20" lengthAdjust="spacing" textLength="308.1996" x="1766.5981" y="859.6594">validateEngineCertifiedForModel</text><text fill="#000000" font-family="sans-serif" font-size="20" lengthAdjust="spacing" textLength="256.9997" x="1766.5981" y="886.8994">validateCabinAgainstModel</text></g><g class="message" data-entity-1="part5" data-entity-2="part8" id="msg15"><polygon fill="#181818" points="2427.8073,944.9994,2437.8073,948.9994,2427.8073,952.9994,2431.8073,948.9994" style="stroke:#181818;stroke-width:1;"/><line style="stroke:#181818;stroke-width:1;" x1="1732.7181" x2="2433.8073" y1="948.9994" y2="948.9994"/><text fill="#000000" font-family="sans-serif" font-size="20" font-weight="bold" lengthAdjust="spacing" textLength="22.88" x="1739.7181" y="941.1394">15</text><text fill="#000000" font-family="sans-serif" font-size="20" lengthAdjust="spacing" textLength="415.0596" x="1766.5981" y="941.1394">new Aircraft(..., ACTIVE, YearOfManufacture)</text></g><rect fill="#E2E2F0" height="68.4799" rx="2.5" ry="2.5" style="stroke:#181818;stroke-width:0.5;" width="170.7999" x="2439.8073" y="915.7594"/><text fill="#000000" font-family="sans-serif" font-size="20" font-style="italic" lengthAdjust="spacing" textLength="156.7999" x="2446.8073" y="944.1394">&#171;Aggregate Root&#187;</text><text fill="#000000" font-family="sans-serif" font-size="20" lengthAdjust="spacing" textLength="69.3799" x="2490.5173" y="971.3794">Aircraft</text><g class="message" data-entity-1="part5" data-entity-2="part6" id="msg17"><polygon fill="#181818" points="2079.7977,1024.4793,2089.7977,1028.4793,2079.7977,1032.4793,2083.7977,1028.4793" style="stroke:#181818;stroke-width:1;"/><line style="stroke:#181818;stroke-width:1;" x1="1732.7181" x2="2085.7977" y1="1028.4793" y2="1028.4793"/><text fill="#000000" font-family="sans-serif" font-size="20" font-weight="bold" lengthAdjust="spacing" textLength="22.88" x="1739.7181" y="1020.6193">16</text><text fill="#000000" font-family="sans-serif" font-size="20" lengthAdjust="spacing" textLength="122.0599" x="1766.5981" y="1020.6193">save(aircraft)</text></g><g class="message" data-entity-1="part6" data-entity-2="part5" id="msg18"><polygon fill="#181818" points="1743.7181,1065.7193,1733.7181,1069.7193,1743.7181,1073.7193,1739.7181,1069.7193" style="stroke:#181818;stroke-width:1;"/><line style="stroke:#181818;stroke-width:1;stroke-dasharray:2,2;" x1="1737.7181" x2="2095.7977" y1="1069.7193" y2="1069.7193"/><text fill="#000000" font-family="sans-serif" font-size="20" font-weight="bold" lengthAdjust="spacing" textLength="22.88" x="1749.7181" y="1061.8593">17</text><text fill="#000000" font-family="sans-serif" font-size="20" lengthAdjust="spacing" textLength="67.8199" x="1776.5981" y="1061.8593">aircraft</text></g><g class="message" data-entity-1="part5" data-entity-2="part3" id="msg19"><polygon fill="#181818" points="873.8992,1106.9593,863.8992,1110.9593,873.8992,1114.9593,869.8992,1110.9593" style="stroke:#181818;stroke-width:1;"/><line style="stroke:#181818;stroke-width:1;stroke-dasharray:2,2;" x1="867.8992" x2="1721.7181" y1="1110.9593" y2="1110.9593"/><text fill="#000000" font-family="sans-serif" font-size="20" font-weight="bold" lengthAdjust="spacing" textLength="22.88" x="879.8992" y="1103.0993">18</text><text fill="#000000" font-family="sans-serif" font-size="20" lengthAdjust="spacing" textLength="67.8199" x="906.7792" y="1103.0993">aircraft</text></g><g class="message" data-entity-1="part3" data-entity-2="part2" id="msg20"><polygon fill="#181818" points="645.0294,1148.1992,635.0294,1152.1992,645.0294,1156.1992,641.0294,1152.1992" style="stroke:#181818;stroke-width:1;"/><line style="stroke:#181818;stroke-width:1;stroke-dasharray:2,2;" x1="639.0294" x2="851.8992" y1="1152.1992" y2="1152.1992"/><text fill="#000000" font-family="sans-serif" font-size="20" font-weight="bold" lengthAdjust="spacing" textLength="22.88" x="651.0294" y="1144.3393">19</text><text fill="#000000" font-family="sans-serif" font-size="20" lengthAdjust="spacing" textLength="71.5799" x="677.9094" y="1144.3393">success</text></g><g class="message" data-entity-1="part2" data-entity-2="part1" id="msg21"><polygon fill="#181818" points="150.2299,1189.4392,140.2299,1193.4392,150.2299,1197.4392,146.2299,1193.4392" style="stroke:#181818;stroke-width:1;"/><line style="stroke:#181818;stroke-width:1;stroke-dasharray:2,2;" x1="144.2299" x2="623.0294" y1="1193.4392" y2="1193.4392"/><text fill="#000000" font-family="sans-serif" font-size="20" font-weight="bold" lengthAdjust="spacing" textLength="22.88" x="156.2299" y="1185.5792">20</text><text fill="#000000" font-family="sans-serif" font-size="20" lengthAdjust="spacing" textLength="243.3397" x="183.1099" y="1185.5792">aircraft registered (Active)</text></g><?plantuml-src VLLTQ-Cm47pthn1zSafIZdii9U2wAHWkpP6Fma5VDlRQ9-f8EKbEw_xwMybsP2U-2mISzSxiQ7PNqUzS7471ePJfEsOimnogqZnBOJRy2zdtRq40bP6YEknHqNDgf68tiJmSGTGibcK9Uwc0eZSCD8lZ820-mrDE2ORThB7Wsg2Ak4eLv6QNkBnTmXuUTiby_l_ic7Gege4j-tRzWt0-UeblTVLbRL1hBeN3RnQRJR9w6MAwMXjK9vvYa_WQKvqsGaKoCB07ZJvxZKUfEV7N3X2j5pzN1F7XKTHIPbXUG9TZq565JIMhB2eAXGKOP6if3UK7SSncSslhFKD13ZBbh2GBwF1JTh25f_Igu0AdRuAbiEU2QGIZfooL5JbQquF2Zoch4HIJEJk0g7BgUANGDfwVRC5T4WHKXegvRjotXNpFmhkxkudFjraap-OIfks0W_sfk492RHK8VPJAZ7GlfE7x_MKL-fZkiNSTxNXdNjS8sqwJCM7Q3cyIRQD9aE4LcLTBOp1-mCQaLRxq5bcHZZYXjlSblj9EM2OYRCQ4MlH9ZFgnNlUQ5FOxriCxJD0WPsTHUobB1D6NtoG6K9f1yncK2Y6hsw81eu-JuwrwgeubJud3JxV7BpvJFDe7XsoiEO-QKdGT76Z5e43ttew69VR6jIfou2Lc0PQq3m8_1Y-zfdcx3lSivo9xh9Edq8rkaarSqlcmBis5bXVEh9nOA1y6IpTtkJst6eA6b1npLPYGXkMq39cBZpWru7oHT55Iyj0XTyA6ReIgKtc2ajFzW0ktaJ7IkkSSisUf7FMRw19YkwXH0LpefkebNnJVtXAXzNGueL6yJLuNK_RhSb8dLnIjvnfE649BuhCk9gmBNuva1pmdNCtcFqoz0Ww7J5TfIXDsVjiViGvwNbBw3miZMxKz9L83x7UmvxIHlP_kXkhzfXlkBm00?></g></svg>