<?plantuml 1.2026.2?><svg xmlns="http://www.w3.org/2000/svg" xmlns:xlink="http://www.w3.org/1999/xlink" contentStyleType="text/css" data-diagram-type="SEQUENCE" height="890px" preserveAspectRatio="none" style="width:2512px;height:890px;background:#FFFFFF;" version="1.1" viewBox="0 0 2512 890" width="2512px" zoomAndPan="magnify"><defs/><g><g><title>..UI..</title><rect fill="#FFFFFF" height="590.3596" style="stroke:#181818;stroke-width:1;" width="10" x="533.4094" y="162.7199"/></g><g><title>..Controller..</title><rect fill="#FFFFFF" height="123.7199" style="stroke:#181818;stroke-width:1;" width="10" x="1102.6088" y="203.9599"/></g><g><title>..Controller..</title><rect fill="#FFFFFF" height="206.1999" style="stroke:#181818;stroke-width:1;" width="10" x="1102.6088" y="451.3997"/></g><g><title>..Service..</title><rect fill="#FFFFFF" height="123.7199" style="stroke:#181818;stroke-width:1;" width="10" x="1648.2682" y="492.6397"/></g><g><title>..Repository..</title><rect fill="#FFFFFF" height="41.24" style="stroke:#181818;stroke-width:1;" width="10" x="1981.5178" y="245.1999"/></g><g><title>..Repository..</title><rect fill="#FFFFFF" height="41.24" style="stroke:#181818;stroke-width:1;" width="10" x="2327.7274" y="533.8797"/></g><g class="participant-lifeline" data-entity-uid="part1" data-qualified-name="BO" id="part1-lifeline"><g><title>..Actor..</title><rect fill="#000000" fill-opacity="0.00000" height="651.5996" width="8" x="97.9299" y="119.4799"/><line style="stroke:#181818;stroke-width:0.5;stroke-dasharray:5,5;" x1="101" x2="101" y1="119.4799" y2="771.0796"/></g></g><g class="participant-lifeline" data-entity-uid="part2" data-qualified-name="UI" id="part2-lifeline"><g><title>..UI..</title><rect fill="#000000" fill-opacity="0.00000" height="651.5996" width="8" x="534.4094" y="119.4799"/><line style="stroke:#181818;stroke-width:0.5;stroke-dasharray:5,5;" x1="538.1996" x2="538.1996" y1="119.4799" y2="771.0796"/></g></g><g class="participant-lifeline" data-entity-uid="part3" data-qualified-name="Ctrl" id="part3-lifeline"><g><title>..Controller..</title><rect fill="#000000" fill-opacity="0.00000" height="651.5996" width="8" x="1103.6088" y="119.4799"/><line style="stroke:#181818;stroke-width:0.5;stroke-dasharray:5,5;" x1="1106.829" x2="1106.829" y1="119.4799" y2="771.0796"/></g></g><g class="participant-lifeline" data-entity-uid="part4" data-qualified-name="Svc" id="part4-lifeline"><g><title>..Service..</title><rect fill="#000000" fill-opacity="0.00000" height="651.5996" width="8" x="1649.2682" y="119.4799"/><line style="stroke:#181818;stroke-width:0.5;stroke-dasharray:5,5;" x1="1652.4083" x2="1652.4083" y1="119.4799" y2="771.0796"/></g></g><g class="participant-lifeline" data-entity-uid="part5" data-qualified-name="CompRepo" id="part5-lifeline"><g><title>..Repository..</title><rect fill="#000000" fill-opacity="0.00000" height="651.5996" width="8" x="1982.5178" y="119.4799"/><line style="stroke:#181818;stroke-width:0.5;stroke-dasharray:5,5;" x1="1986.128" x2="1986.128" y1="119.4799" y2="771.0796"/></g></g><g class="participant-lifeline" data-entity-uid="part6" data-qualified-name="ColRepo" id="part6-lifeline"><g><title>..Repository..</title><rect fill="#000000" fill-opacity="0.00000" height="651.5996" width="8" x="2328.7274" y="119.4799"/><line style="stroke:#181818;stroke-width:0.5;stroke-dasharray:5,5;" x1="2331.9076" x2="2331.9076" y1="119.4799" y2="771.0796"/></g></g><g class="participant participant-head" data-entity-uid="part1" data-qualified-name="BO" id="part1-head"><text fill="#000000" font-family="sans-serif" font-size="20" font-style="italic" lengthAdjust="spacing" textLength="65.24" x="66.3099" y="86.38">&#171;Actor&#187;</text><text fill="#000000" font-family="sans-serif" font-size="20" lengthAdjust="spacing" textLength="187.8598" x="5" y="113.62">Backoffice Operator</text><ellipse cx="101.9299" cy="13.5" fill="#E2E2F0" rx="8" ry="8" style="stroke:#181818;stroke-width:0.5;"/><path d="M101.9299,21.5 L101.9299,48.5 M88.9299,29.5 L114.9299,29.5 M101.9299,48.5 L88.9299,63.5 M101.9299,48.5 L114.9299,63.5" fill="none" style="stroke:#181818;stroke-width:0.5;"/></g><g class="participant participant-tail" data-entity-uid="part1" data-qualified-name="BO" id="part1-tail"><text fill="#000000" font-family="sans-serif" font-size="20" font-style="italic" lengthAdjust="spacing" textLength="65.24" x="66.3099" y="791.4596">&#171;Actor&#187;</text><text fill="#000000" font-family="sans-serif" font-size="20" lengthAdjust="spacing" textLength="187.8598" x="5" y="818.6995">Backoffice Operator</text><ellipse cx="101.9299" cy="833.0595" fill="#E2E2F0" rx="8" ry="8" style="stroke:#181818;stroke-width:0.5;"/><path d="M101.9299,841.0595 L101.9299,868.0595 M88.9299,849.0595 L114.9299,849.0595 M101.9299,868.0595 L88.9299,883.0595 M101.9299,868.0595 L114.9299,883.0595" fill="none" style="stroke:#181818;stroke-width:0.5;"/></g><g class="participant participant-head" data-entity-uid="part2" data-qualified-name="UI" id="part2-head"><rect fill="#E2E2F0" height="68.4799" rx="2.5" ry="2.5" style="stroke:#181818;stroke-width:0.5;" width="328.4196" x="374.1996" y="50"/><text fill="#000000" font-family="sans-serif" font-size="20" font-style="italic" lengthAdjust="spacing" textLength="39.1" x="518.8594" y="78.38">&#171;UI&#187;</text><text fill="#000000" font-family="sans-serif" font-size="20" lengthAdjust="spacing" textLength="314.4196" x="381.1996" y="105.62">ListCompanyCollaboratorUsersUI</text></g><g class="participant participant-tail" data-entity-uid="part2" data-qualified-name="UI" id="part2-tail"><rect fill="#E2E2F0" height="68.4799" rx="2.5" ry="2.5" style="stroke:#181818;stroke-width:0.5;" width="328.4196" x="374.1996" y="770.0796"/><text fill="#000000" font-family="sans-serif" font-size="20" font-style="italic" lengthAdjust="spacing" textLength="39.1" x="518.8594" y="798.4596">&#171;UI&#187;</text><text fill="#000000" font-family="sans-serif" font-size="20" lengthAdjust="spacing" textLength="314.4196" x="381.1996" y="825.6995">ListCompanyCollaboratorUsersUI</text></g><g class="participant participant-head" data-entity-uid="part3" data-qualified-name="Ctrl" id="part3-head"><rect fill="#E2E2F0" height="68.4799" rx="2.5" ry="2.5" style="stroke:#181818;stroke-width:0.5;" width="401.5595" x="906.829" y="50"/><text fill="#000000" font-family="sans-serif" font-size="20" font-style="italic" lengthAdjust="spacing" textLength="107.7799" x="1053.7188" y="78.38">&#171;Controller&#187;</text><text fill="#000000" font-family="sans-serif" font-size="20" lengthAdjust="spacing" textLength="387.5595" x="913.829" y="105.62">ListCompanyCollaboratorUsersController</text></g><g class="participant participant-tail" data-entity-uid="part3" data-qualified-name="Ctrl" id="part3-tail"><rect fill="#E2E2F0" height="68.4799" rx="2.5" ry="2.5" style="stroke:#181818;stroke-width:0.5;" width="401.5595" x="906.829" y="770.0796"/><text fill="#000000" font-family="sans-serif" font-size="20" font-style="italic" lengthAdjust="spacing" textLength="107.7799" x="1053.7188" y="798.4596">&#171;Controller&#187;</text><text fill="#000000" font-family="sans-serif" font-size="20" lengthAdjust="spacing" textLength="387.5595" x="913.829" y="825.6995">ListCompanyCollaboratorUsersController</text></g><g class="participant participant-head" data-entity-uid="part4" data-qualified-name="Svc" id="part4-head"><rect fill="#E2E2F0" height="68.4799" rx="2.5" ry="2.5" style="stroke:#181818;stroke-width:0.5;" width="331.7196" x="1487.4083" y="50"/><text fill="#000000" font-family="sans-serif" font-size="20" font-style="italic" lengthAdjust="spacing" textLength="80.6599" x="1612.9382" y="78.38">&#171;Service&#187;</text><text fill="#000000" font-family="sans-serif" font-size="20" lengthAdjust="spacing" textLength="317.7196" x="1494.4083" y="105.62">CompanyCollaboratorUserService</text></g><g class="participant participant-tail" data-entity-uid="part4" data-qualified-name="Svc" id="part4-tail"><rect fill="#E2E2F0" height="68.4799" rx="2.5" ry="2.5" style="stroke:#181818;stroke-width:0.5;" width="331.7196" x="1487.4083" y="770.0796"/><text fill="#000000" font-family="sans-serif" font-size="20" font-style="italic" lengthAdjust="spacing" textLength="80.6599" x="1612.9382" y="798.4596">&#171;Service&#187;</text><text fill="#000000" font-family="sans-serif" font-size="20" lengthAdjust="spacing" textLength="317.7196" x="1494.4083" y="825.6995">CompanyCollaboratorUserService</text></g><g class="participant participant-head" data-entity-uid="part5" data-qualified-name="CompRepo" id="part5-head"><text fill="#000000" font-family="sans-serif" font-size="20" font-style="italic" lengthAdjust="spacing" textLength="112.3599" x="1927.3378" y="86.38">&#171;Repository&#187;</text><text fill="#000000" font-family="sans-serif" font-size="20" lengthAdjust="spacing" textLength="308.7797" x="1829.128" y="113.62">AirTransportCompanyRepository</text><path d="M1968.5178,29 C1968.5178,19 1986.5178,19 1986.5178,19 C1986.5178,19 2004.5178,19 2004.5178,29 L2004.5178,55 C2004.5178,65 1986.5178,65 1986.5178,65 C1986.5178,65 1968.5178,65 1968.5178,55 L1968.5178,29" fill="#E2E2F0" style="stroke:#181818;stroke-width:0.5;"/><path d="M1968.5178,29 C1968.5178,39 1986.5178,39 1986.5178,39 C1986.5178,39 2004.5178,39 2004.5178,29" fill="none" style="stroke:#181818;stroke-width:0.5;"/></g><g class="participant participant-tail" data-entity-uid="part5" data-qualified-name="CompRepo" id="part5-tail"><text fill="#000000" font-family="sans-serif" font-size="20" font-style="italic" lengthAdjust="spacing" textLength="112.3599" x="1927.3378" y="791.4596">&#171;Repository&#187;</text><text fill="#000000" font-family="sans-serif" font-size="20" lengthAdjust="spacing" textLength="308.7797" x="1829.128" y="818.6995">AirTransportCompanyRepository</text><path d="M1968.5178,834.5595 C1968.5178,824.5595 1986.5178,824.5595 1986.5178,824.5595 C1986.5178,824.5595 2004.5178,824.5595 2004.5178,834.5595 L2004.5178,860.5595 C2004.5178,870.5595 1986.5178,870.5595 1986.5178,870.5595 C1986.5178,870.5595 1968.5178,870.5595 1968.5178,860.5595 L1968.5178,834.5595" fill="#E2E2F0" style="stroke:#181818;stroke-width:0.5;"/><path d="M1968.5178,834.5595 C1968.5178,844.5595 1986.5178,844.5595 1986.5178,844.5595 C1986.5178,844.5595 2004.5178,844.5595 2004.5178,834.5595" fill="none" style="stroke:#181818;stroke-width:0.5;"/></g><g class="participant participant-head" data-entity-uid="part6" data-qualified-name="ColRepo" id="part6-head"><text fill="#000000" font-family="sans-serif" font-size="20" font-style="italic" lengthAdjust="spacing" textLength="112.3599" x="2273.5474" y="86.38">&#171;Repository&#187;</text><text fill="#000000" font-family="sans-serif" font-size="20" lengthAdjust="spacing" textLength="351.6396" x="2153.9076" y="113.62">CompanyCollaboratorUserRepository</text><path d="M2314.7274,29 C2314.7274,19 2332.7274,19 2332.7274,19 C2332.7274,19 2350.7274,19 2350.7274,29 L2350.7274,55 C2350.7274,65 2332.7274,65 2332.7274,65 C2332.7274,65 2314.7274,65 2314.7274,55 L2314.7274,29" fill="#E2E2F0" style="stroke:#181818;stroke-width:0.5;"/><path d="M2314.7274,29 C2314.7274,39 2332.7274,39 2332.7274,39 C2332.7274,39 2350.7274,39 2350.7274,29" fill="none" style="stroke:#181818;stroke-width:0.5;"/></g><g class="participant participant-tail" data-entity-uid="part6" data-qualified-name="ColRepo" id="part6-tail"><text fill="#000000" font-family="sans-serif" font-size="20" font-style="italic" lengthAdjust="spacing" textLength="112.3599" x="2273.5474" y="791.4596">&#171;Repository&#187;</text><text fill="#000000" font-family="sans-serif" font-size="20" lengthAdjust="spacing" textLength="351.6396" x="2153.9076" y="818.6995">CompanyCollaboratorUserRepository</text><path d="M2314.7274,834.5595 C2314.7274,824.5595 2332.7274,824.5595 2332.7274,824.5595 C2332.7274,824.5595 2350.7274,824.5595 2350.7274,834.5595 L2350.7274,860.5595 C2350.7274,870.5595 2332.7274,870.5595 2332.7274,870.5595 C2332.7274,870.5595 2314.7274,870.5595 2314.7274,860.5595 L2314.7274,834.5595" fill="#E2E2F0" style="stroke:#181818;stroke-width:0.5;"/><path d="M2314.7274,834.5595 C2314.7274,844.5595 2332.7274,844.5595 2332.7274,844.5595 C2332.7274,844.5595 2350.7274,844.5595 2350.7274,834.5595" fill="none" style="stroke:#181818;stroke-width:0.5;"/></g><g><title>..UI..</title><rect fill="#FFFFFF" height="590.3596" style="stroke:#181818;stroke-width:1;" width="10" x="533.4094" y="162.7199"/></g><g><title>..Controller..</title><rect fill="#FFFFFF" height="123.7199" style="stroke:#181818;stroke-width:1;" width="10" x="1102.6088" y="203.9599"/></g><g><title>..Controller..</title><rect fill="#FFFFFF" height="206.1999" style="stroke:#181818;stroke-width:1;" width="10" x="1102.6088" y="451.3997"/></g><g><title>..Service..</title><rect fill="#FFFFFF" height="123.7199" style="stroke:#181818;stroke-width:1;" width="10" x="1648.2682" y="492.6397"/></g><g><title>..Repository..</title><rect fill="#FFFFFF" height="41.24" style="stroke:#181818;stroke-width:1;" width="10" x="1981.5178" y="245.1999"/></g><g><title>..Repository..</title><rect fill="#FFFFFF" height="41.24" style="stroke:#181818;stroke-width:1;" width="10" x="2327.7274" y="533.8797"/></g><g class="message" data-entity-1="part1" data-entity-2="part2" id="msg1"><polygon fill="#181818" points="521.4094,158.7199,531.4094,162.7199,521.4094,166.7199,525.4094,162.7199" style="stroke:#181818;stroke-width:1;"/><line style="stroke:#181818;stroke-width:1;" x1="101.9299" x2="527.4094" y1="162.7199" y2="162.7199"/><text fill="#000000" font-family="sans-serif" font-size="20" lengthAdjust="spacing" textLength="267.8397" x="108.9299" y="154.8599">requests list of collaborators</text></g><g class="message" data-entity-1="part2" data-entity-2="part3" id="msg2"><polygon fill="#181818" points="1090.6088,199.9599,1100.6088,203.9599,1090.6088,207.9599,1094.6088,203.9599" style="stroke:#181818;stroke-width:1;"/><line style="stroke:#181818;stroke-width:1;" x1="543.4094" x2="1096.6088" y1="203.9599" y2="203.9599"/><text fill="#000000" font-family="sans-serif" font-size="20" lengthAdjust="spacing" textLength="257.4997" x="550.4094" y="196.0999">allAirTransportCompanies()</text></g><g class="message" data-entity-1="part3" data-entity-2="part5" id="msg3"><polygon fill="#181818" points="1969.5178,241.1999,1979.5178,245.1999,1969.5178,249.1999,1973.5178,245.1999" style="stroke:#181818;stroke-width:1;"/><line style="stroke:#181818;stroke-width:1;" x1="1112.6088" x2="1975.5178" y1="245.1999" y2="245.1999"/><text fill="#000000" font-family="sans-serif" font-size="20" lengthAdjust="spacing" textLength="71.7999" x="1119.6088" y="237.3399">findAll()</text></g><g class="message" data-entity-1="part5" data-entity-2="part3" id="msg4"><polygon fill="#181818" points="1123.6088,282.4398,1113.6088,286.4398,1123.6088,290.4398,1119.6088,286.4398" style="stroke:#181818;stroke-width:1;"/><line style="stroke:#181818;stroke-width:1;stroke-dasharray:2,2;" x1="1117.6088" x2="1985.5178" y1="286.4398" y2="286.4398"/><text fill="#000000" font-family="sans-serif" font-size="20" lengthAdjust="spacing" textLength="102.2999" x="1129.6088" y="278.5799">companies</text></g><g class="message" data-entity-1="part3" data-entity-2="part2" id="msg5"><polygon fill="#181818" points="554.4094,323.6798,544.4094,327.6798,554.4094,331.6798,550.4094,327.6798" style="stroke:#181818;stroke-width:1;"/><line style="stroke:#181818;stroke-width:1;stroke-dasharray:2,2;" x1="548.4094" x2="1106.6088" y1="327.6798" y2="327.6798"/><text fill="#000000" font-family="sans-serif" font-size="20" lengthAdjust="spacing" textLength="102.2999" x="560.4094" y="319.8198">companies</text></g><g class="message" data-entity-1="part2" data-entity-2="part1" id="msg6"><polygon fill="#181818" points="112.9299,364.9198,102.9299,368.9198,112.9299,372.9198,108.9299,368.9198" style="stroke:#181818;stroke-width:1;"/><line style="stroke:#181818;stroke-width:1;" x1="106.9299" x2="532.4094" y1="368.9198" y2="368.9198"/><text fill="#000000" font-family="sans-serif" font-size="20" lengthAdjust="spacing" textLength="407.4795" x="118.9299" y="361.0598">displays companies and prompts for choice</text></g><g class="message" data-entity-1="part1" data-entity-2="part2" id="msg7"><polygon fill="#181818" points="521.4094,406.1598,531.4094,410.1598,521.4094,414.1598,525.4094,410.1598" style="stroke:#181818;stroke-width:1;"/><line style="stroke:#181818;stroke-width:1;" x1="101.9299" x2="527.4094" y1="410.1598" y2="410.1598"/><text fill="#000000" font-family="sans-serif" font-size="20" lengthAdjust="spacing" textLength="255.7197" x="108.9299" y="402.2998">selects company (iataCode)</text></g><g class="message" data-entity-1="part2" data-entity-2="part3" id="msg8"><polygon fill="#181818" points="1090.6088,447.3997,1100.6088,451.3997,1090.6088,455.3997,1094.6088,451.3997" style="stroke:#181818;stroke-width:1;"/><line style="stroke:#181818;stroke-width:1;" x1="543.4094" x2="1096.6088" y1="451.3997" y2="451.3997"/><text fill="#000000" font-family="sans-serif" font-size="20" lengthAdjust="spacing" textLength="540.1994" x="550.4094" y="443.5398">activeCompanyCollaboratorsUsersForCompany(iataCode)</text></g><g class="message" data-entity-1="part3" data-entity-2="part4" id="msg9"><polygon fill="#181818" points="1636.2682,488.6397,1646.2682,492.6397,1636.2682,496.6397,1640.2682,492.6397" style="stroke:#181818;stroke-width:1;"/><line style="stroke:#181818;stroke-width:1;" x1="1112.6088" x2="1642.2682" y1="492.6397" y2="492.6397"/><text fill="#000000" font-family="sans-serif" font-size="20" lengthAdjust="spacing" textLength="516.6594" x="1119.6088" y="484.7797">findActiveCollaboratorsByCompany(ColRepo, iataCode)</text></g><g class="message" data-entity-1="part4" data-entity-2="part6" id="msg10"><polygon fill="#181818" points="2315.7274,529.8797,2325.7274,533.8797,2315.7274,537.8797,2319.7274,533.8797" style="stroke:#181818;stroke-width:1;"/><line style="stroke:#181818;stroke-width:1;" x1="1658.2682" x2="2321.7274" y1="533.8797" y2="533.8797"/><text fill="#000000" font-family="sans-serif" font-size="20" lengthAdjust="spacing" textLength="422.9594" x="1665.2682" y="526.0197">findByCompanyIataCodeAndActive(iataCode)</text></g><g class="message" data-entity-1="part6" data-entity-2="part4" id="msg11"><polygon fill="#181818" points="1669.2682,571.1197,1659.2682,575.1197,1669.2682,579.1197,1665.2682,575.1197" style="stroke:#181818;stroke-width:1;"/><line style="stroke:#181818;stroke-width:1;stroke-dasharray:2,2;" x1="1663.2682" x2="2331.7274" y1="575.1197" y2="575.1197"/><text fill="#000000" font-family="sans-serif" font-size="20" lengthAdjust="spacing" textLength="181.9598" x="1675.2682" y="567.2597">activeCollaborators</text></g><g class="message" data-entity-1="part4" data-entity-2="part3" id="msg12"><polygon fill="#181818" points="1123.6088,612.3596,1113.6088,616.3596,1123.6088,620.3596,1119.6088,616.3596" style="stroke:#181818;stroke-width:1;"/><line style="stroke:#181818;stroke-width:1;stroke-dasharray:2,2;" x1="1117.6088" x2="1652.2682" y1="616.3596" y2="616.3596"/><text fill="#000000" font-family="sans-serif" font-size="20" lengthAdjust="spacing" textLength="181.9598" x="1129.6088" y="608.4997">activeCollaborators</text></g><g class="message" data-entity-1="part3" data-entity-2="part2" id="msg13"><polygon fill="#181818" points="554.4094,653.5996,544.4094,657.5996,554.4094,661.5996,550.4094,657.5996" style="stroke:#181818;stroke-width:1;"/><line style="stroke:#181818;stroke-width:1;stroke-dasharray:2,2;" x1="548.4094" x2="1106.6088" y1="657.5996" y2="657.5996"/><text fill="#000000" font-family="sans-serif" font-size="20" lengthAdjust="spacing" textLength="181.9598" x="560.4094" y="649.7396">activeCollaborators</text></g><g class="message" data-entity-1="part2" data-entity-2="part2" id="msg14"><line style="stroke:#181818;stroke-width:1;" x1="543.4094" x2="585.4094" y1="698.8396" y2="698.8396"/><line style="stroke:#181818;stroke-width:1;" x1="585.4094" x2="585.4094" y1="698.8396" y2="711.8396"/><line style="stroke:#181818;stroke-width:1;" x1="544.4094" x2="585.4094" y1="711.8396" y2="711.8396"/><polygon fill="#181818" points="554.4094,707.8396,544.4094,711.8396,554.4094,715.8396,550.4094,711.8396" style="stroke:#181818;stroke-width:1;"/><text fill="#000000" font-family="sans-serif" font-size="20" lengthAdjust="spacing" textLength="309.5596" x="550.4094" y="690.9796">render list of active collaborators</text></g><g class="message" data-entity-1="part2" data-entity-2="part1" id="msg15"><polygon fill="#181818" points="112.9299,749.0796,102.9299,753.0796,112.9299,757.0796,108.9299,753.0796" style="stroke:#181818;stroke-width:1;"/><line style="stroke:#181818;stroke-width:1;stroke-dasharray:2,2;" x1="106.9299" x2="537.4094" y1="753.0796" y2="753.0796"/><text fill="#000000" font-family="sans-serif" font-size="20" lengthAdjust="spacing" textLength="264.8197" x="118.9299" y="745.2196">displays active collaborators</text></g><?plantuml-src bPFTQkCm48Nl_HH3hXBOmjBB40A9eH1OA3IR1vXAOrP4jLn93RXFloFvHxATBAplBCtvPkRCo5rLtQ353st4bIH8gl1B-nTJ-xFw9dZ-MQ3mniBgYE9ggae9WjU6BFBX2j31yHLskqE8sUyBHdabL8ErXzKlvNnfFlYdBOtM-6wYwkB8kiifYYyd5bzE_wCikJJBXzIbBxtLp4YdSzO3pfdiZNk9ZFDDCA8_ORr4Z-_e25O7PNzRh5rZx53G6pN6AQQqNNu-3KSCI3SJneC25Xnz3rEmlK_xuDCMB7r-aVCEDDi3fWAH8LsOaxgX9muk2XQmB9gp1THwsOWYjzuaKGWj2k0lYe9uw6mBbQhbGMkE3m59qqTqiY7yAIKMGwOO8Mcfp38ERIPHBeZbTLsn9LkGoZKQMvV20Mi9ZULVjgZYbHL_3CypTz2H9k47JGjhnLCgZQJDtB6Gb-vCpiKTV36slyi8_x0oB5ZlOW_EYCTsOFKxy0CITE8tOpfk-08pJabdGnfPfvvm65AkfypP7FKuncwKUfnaLpekonwZ9sFLQQfZaKjRvvWCCVOuNOfxoWVhqR-LMf8TNqeddpsO4BvOfxkHMIP-N7y1?></g></svg>