<svg xmlns="http://www.w3.org/2000/svg" xmlns:xlink="http://www.w3.org/1999/xlink" contentStyleType="text/css" data-diagram-type="SEQUENCE" height="1161px" preserveAspectRatio="none" style="width:1883px;height:1161px;background:#FFFFFF;" version="1.1" viewBox="0 0 1883 1161" width="1883px" zoomAndPan="magnify"><?plantuml 1.2026.3beta6?><defs/><g><g class="title" data-source-line="1"><text fill="#000000" font-family="sans-serif" font-size="14" font-weight="700" lengthAdjust="spacing" textLength="275.8301" x="800.1855" y="27.9951">Add weather data to flight - US082</text></g><g><title>WeatherDataUI</title><rect fill="#FFFFFF" height="694.1875" style="stroke:#181818;stroke-width:1;" width="10" x="487.1528" y="199.9922"/></g><g><title>WeatherDataController</title><rect fill="#FFFFFF" height="145.6641" style="stroke:#181818;stroke-width:1;" width="10" x="862.4238" y="229.125"/></g><g><title>WeatherDataController</title><rect fill="#FFFFFF" height="174.7969" style="stroke:#181818;stroke-width:1;" width="10" x="862.4238" y="433.0547"/></g><g><title>WeatherDataController</title><rect fill="#FFFFFF" height="169.7969" style="stroke:#181818;stroke-width:1;" width="10" x="862.4238" y="695.25"/></g><g><title>WeatherDataService</title><rect fill="#FFFFFF" height="87.3984" style="stroke:#181818;stroke-width:1;" width="10" x="1237.6948" y="258.2578"/></g><g><title>WeatherDataService</title><rect fill="#FFFFFF" height="87.3984" style="stroke:#181818;stroke-width:1;" width="10" x="1237.6948" y="491.3203"/></g><g><title>WeatherDataService</title><rect fill="#FFFFFF" height="111.5313" style="stroke:#181818;stroke-width:1;" width="10" x="1237.6948" y="724.3828"/></g><g><title>FlightPlanRepository</title><rect fill="#FFFFFF" height="29.1328" style="stroke:#181818;stroke-width:1;" width="10" x="1607.9658" y="287.3906"/></g><g><title>FlightPlanRepository</title><rect fill="#FFFFFF" height="29.1328" style="stroke:#181818;stroke-width:1;" width="10" x="1607.9658" y="938.1172"/></g><g><title>WeatherDataRepository</title><rect fill="#FFFFFF" height="29.1328" style="stroke:#181818;stroke-width:1;" width="10" x="1780.0679" y="520.4531"/></g><g><title>WeatherDataRepository</title><rect fill="#FFFFFF" height="29.1328" style="stroke:#181818;stroke-width:1;" width="10" x="1780.0679" y="753.5156"/></g><rect fill="none" height="265" style="stroke:#000000;stroke-width:1.5;" width="1626.9346" x="71" y="797.6484"/><g class="participant-lifeline" data-entity-uid="part1" data-qualified-name="User" data-source-line="5" id="part1-lifeline"><g><title>Pilot</title><rect fill="#000000" fill-opacity="0.00000" height="961.0547" width="8" x="95.1382" y="118.5938"/><line style="stroke:#181818;stroke-width:0.5;stroke-dasharray:5,5;" x1="99" x2="99" y1="118.5938" y2="1079.6484"/></g></g><g class="participant-lifeline" data-entity-uid="part2" data-qualified-name="UI" data-source-line="6" id="part2-lifeline"><g><title>WeatherDataUI</title><rect fill="#000000" fill-opacity="0.00000" height="961.0547" width="8" x="488.1528" y="118.5938"/><line style="stroke:#181818;stroke-width:0.5;stroke-dasharray:5,5;" x1="491.3677" x2="491.3677" y1="118.5938" y2="1079.6484"/></g></g><g class="participant-lifeline" data-entity-uid="part3" data-qualified-name="Controller" data-source-line="7" id="part3-lifeline"><g><title>WeatherDataController</title><rect fill="#000000" fill-opacity="0.00000" height="961.0547" width="8" x="863.4238" y="118.5938"/><line style="stroke:#181818;stroke-width:0.5;stroke-dasharray:5,5;" x1="867.2402" x2="867.2402" y1="118.5938" y2="1079.6484"/></g></g><g class="participant-lifeline" data-entity-uid="part4" data-qualified-name="Service" data-source-line="8" id="part4-lifeline"><g><title>WeatherDataService</title><rect fill="#000000" fill-opacity="0.00000" height="961.0547" width="8" x="1238.6948" y="118.5938"/><line style="stroke:#181818;stroke-width:0.5;stroke-dasharray:5,5;" x1="1242.2271" x2="1242.2271" y1="118.5938" y2="1079.6484"/></g></g><g class="participant-lifeline" data-entity-uid="part5" data-qualified-name="DBFlightPlan" data-source-line="9" id="part5-lifeline"><g><title>FlightPlanRepository</title><rect fill="#000000" fill-opacity="0.00000" height="961.0547" width="8" x="1608.9658" y="118.5938"/><line style="stroke:#181818;stroke-width:0.5;stroke-dasharray:5,5;" x1="1611.9971" x2="1611.9971" y1="118.5938" y2="1079.6484"/></g></g><g class="participant-lifeline" data-entity-uid="part6" data-qualified-name="DBWeather" data-source-line="10" id="part6-lifeline"><g><title>WeatherDataRepository</title><rect fill="#000000" fill-opacity="0.00000" height="961.0547" width="8" x="1781.0679" y="118.5938"/><line style="stroke:#181818;stroke-width:0.5;stroke-dasharray:5,5;" x1="1784.9346" x2="1784.9346" y1="118.5938" y2="1079.6484"/></g></g><g class="participant participant-head" data-entity-uid="part1" data-qualified-name="User" data-source-line="5" id="part1-head"><text fill="#000000" font-family="sans-serif" font-size="14" lengthAdjust="spacing" textLength="30.2764" x="81" y="115.292">Pilot</text><ellipse cx="99.1382" cy="50.7969" fill="#E2E2F0" rx="8" ry="8" style="stroke:#181818;stroke-width:0.5;"/><path d="M99.1382,58.7969 L99.1382,85.7969 M86.1382,66.7969 L112.1382,66.7969 M99.1382,85.7969 L86.1382,100.7969 M99.1382,85.7969 L112.1382,100.7969" fill="none" style="stroke:#181818;stroke-width:0.5;"/></g><g class="participant participant-tail" data-entity-uid="part1" data-qualified-name="User" data-source-line="5" id="part1-tail"><text fill="#000000" font-family="sans-serif" font-size="14" lengthAdjust="spacing" textLength="30.2764" x="81" y="1091.6436">Pilot</text><ellipse cx="99.1382" cy="1103.4453" fill="#E2E2F0" rx="8" ry="8" style="stroke:#181818;stroke-width:0.5;"/><path d="M99.1382,1111.4453 L99.1382,1138.4453 M86.1382,1119.4453 L112.1382,1119.4453 M99.1382,1138.4453 L86.1382,1153.4453 M99.1382,1138.4453 L112.1382,1153.4453" fill="none" style="stroke:#181818;stroke-width:0.5;"/></g><g class="participant participant-head" data-entity-uid="part2" data-qualified-name="UI" data-source-line="6" id="part2-head"><rect fill="#E2E2F0" height="30.2969" rx="2.5" ry="2.5" style="stroke:#181818;stroke-width:0.5;" width="121.5703" x="431.3677" y="87.2969"/><text fill="#000000" font-family="sans-serif" font-size="14" lengthAdjust="spacing" textLength="107.5703" x="438.3677" y="107.292">WeatherDataUI</text></g><g class="participant participant-tail" data-entity-uid="part2" data-qualified-name="UI" data-source-line="6" id="part2-tail"><rect fill="#E2E2F0" height="30.2969" rx="2.5" ry="2.5" style="stroke:#181818;stroke-width:0.5;" width="121.5703" x="431.3677" y="1078.6484"/><text fill="#000000" font-family="sans-serif" font-size="14" lengthAdjust="spacing" textLength="107.5703" x="438.3677" y="1098.6436">WeatherDataUI</text></g><g class="participant participant-head" data-entity-uid="part3" data-qualified-name="Controller" data-source-line="7" id="part3-head"><rect fill="#E2E2F0" height="30.2969" rx="2.5" ry="2.5" style="stroke:#181818;stroke-width:0.5;" width="176.3672" x="779.2402" y="87.2969"/><text fill="#000000" font-family="sans-serif" font-size="14" lengthAdjust="spacing" textLength="162.3672" x="786.2402" y="107.292">WeatherDataController</text></g><g class="participant participant-tail" data-entity-uid="part3" data-qualified-name="Controller" data-source-line="7" id="part3-tail"><rect fill="#E2E2F0" height="30.2969" rx="2.5" ry="2.5" style="stroke:#181818;stroke-width:0.5;" width="176.3672" x="779.2402" y="1078.6484"/><text fill="#000000" font-family="sans-serif" font-size="14" lengthAdjust="spacing" textLength="162.3672" x="786.2402" y="1098.6436">WeatherDataController</text></g><g class="participant participant-head" data-entity-uid="part4" data-qualified-name="Service" data-source-line="8" id="part4-head"><rect fill="#E2E2F0" height="30.2969" rx="2.5" ry="2.5" style="stroke:#181818;stroke-width:0.5;" width="158.9355" x="1163.2271" y="87.2969"/><text fill="#000000" font-family="sans-serif" font-size="14" lengthAdjust="spacing" textLength="144.9355" x="1170.2271" y="107.292">WeatherDataService</text></g><g class="participant participant-tail" data-entity-uid="part4" data-qualified-name="Service" data-source-line="8" id="part4-tail"><rect fill="#E2E2F0" height="30.2969" rx="2.5" ry="2.5" style="stroke:#181818;stroke-width:0.5;" width="158.9355" x="1163.2271" y="1078.6484"/><text fill="#000000" font-family="sans-serif" font-size="14" lengthAdjust="spacing" textLength="144.9355" x="1170.2271" y="1098.6436">WeatherDataService</text></g><g class="participant participant-head" data-entity-uid="part5" data-qualified-name="DBFlightPlan" data-source-line="9" id="part5-head"><text fill="#000000" font-family="sans-serif" font-size="14" lengthAdjust="spacing" textLength="143.9375" x="1537.9971" y="115.292">FlightPlanRepository</text><path d="M1594.9658,66.2969 C1594.9658,56.2969 1612.9658,56.2969 1612.9658,56.2969 C1612.9658,56.2969 1630.9658,56.2969 1630.9658,66.2969 L1630.9658,92.2969 C1630.9658,102.2969 1612.9658,102.2969 1612.9658,102.2969 C1612.9658,102.2969 1594.9658,102.2969 1594.9658,92.2969 L1594.9658,66.2969" fill="#E2E2F0" style="stroke:#181818;stroke-width:0.5;"/><path d="M1594.9658,66.2969 C1594.9658,76.2969 1612.9658,76.2969 1612.9658,76.2969 C1612.9658,76.2969 1630.9658,76.2969 1630.9658,66.2969" fill="none" style="stroke:#181818;stroke-width:0.5;"/></g><g class="participant participant-tail" data-entity-uid="part5" data-qualified-name="DBFlightPlan" data-source-line="9" id="part5-tail"><text fill="#000000" font-family="sans-serif" font-size="14" lengthAdjust="spacing" textLength="143.9375" x="1537.9971" y="1091.6436">FlightPlanRepository</text><path d="M1594.9658,1104.9453 C1594.9658,1094.9453 1612.9658,1094.9453 1612.9658,1094.9453 C1612.9658,1094.9453 1630.9658,1094.9453 1630.9658,1104.9453 L1630.9658,1130.9453 C1630.9658,1140.9453 1612.9658,1140.9453 1612.9658,1140.9453 C1612.9658,1140.9453 1594.9658,1140.9453 1594.9658,1130.9453 L1594.9658,1104.9453" fill="#E2E2F0" style="stroke:#181818;stroke-width:0.5;"/><path d="M1594.9658,1104.9453 C1594.9658,1114.9453 1612.9658,1114.9453 1612.9658,1114.9453 C1612.9658,1114.9453 1630.9658,1114.9453 1630.9658,1104.9453" fill="none" style="stroke:#181818;stroke-width:0.5;"/></g><g class="participant participant-head" data-entity-uid="part6" data-qualified-name="DBWeather" data-source-line="10" id="part6-head"><text fill="#000000" font-family="sans-serif" font-size="14" lengthAdjust="spacing" textLength="168.2666" x="1697.9346" y="115.292">WeatherDataRepository</text><path d="M1767.0679,66.2969 C1767.0679,56.2969 1785.0679,56.2969 1785.0679,56.2969 C1785.0679,56.2969 1803.0679,56.2969 1803.0679,66.2969 L1803.0679,92.2969 C1803.0679,102.2969 1785.0679,102.2969 1785.0679,102.2969 C1785.0679,102.2969 1767.0679,102.2969 1767.0679,92.2969 L1767.0679,66.2969" fill="#E2E2F0" style="stroke:#181818;stroke-width:0.5;"/><path d="M1767.0679,66.2969 C1767.0679,76.2969 1785.0679,76.2969 1785.0679,76.2969 C1785.0679,76.2969 1803.0679,76.2969 1803.0679,66.2969" fill="none" style="stroke:#181818;stroke-width:0.5;"/></g><g class="participant participant-tail" data-entity-uid="part6" data-qualified-name="DBWeather" data-source-line="10" id="part6-tail"><text fill="#000000" font-family="sans-serif" font-size="14" lengthAdjust="spacing" textLength="168.2666" x="1697.9346" y="1091.6436">WeatherDataRepository</text><path d="M1767.0679,1104.9453 C1767.0679,1094.9453 1785.0679,1094.9453 1785.0679,1094.9453 C1785.0679,1094.9453 1803.0679,1094.9453 1803.0679,1104.9453 L1803.0679,1130.9453 C1803.0679,1140.9453 1785.0679,1140.9453 1785.0679,1140.9453 C1785.0679,1140.9453 1767.0679,1140.9453 1767.0679,1130.9453 L1767.0679,1104.9453" fill="#E2E2F0" style="stroke:#181818;stroke-width:0.5;"/><path d="M1767.0679,1104.9453 C1767.0679,1114.9453 1785.0679,1114.9453 1785.0679,1114.9453 C1785.0679,1114.9453 1803.0679,1114.9453 1803.0679,1104.9453" fill="none" style="stroke:#181818;stroke-width:0.5;"/></g><g><title>WeatherDataUI</title><rect fill="#FFFFFF" height="694.1875" style="stroke:#181818;stroke-width:1;" width="10" x="487.1528" y="199.9922"/></g><g><title>WeatherDataController</title><rect fill="#FFFFFF" height="145.6641" style="stroke:#181818;stroke-width:1;" width="10" x="862.4238" y="229.125"/></g><g><title>WeatherDataController</title><rect fill="#FFFFFF" height="174.7969" style="stroke:#181818;stroke-width:1;" width="10" x="862.4238" y="433.0547"/></g><g><title>WeatherDataController</title><rect fill="#FFFFFF" height="169.7969" style="stroke:#181818;stroke-width:1;" width="10" x="862.4238" y="695.25"/></g><g><title>WeatherDataService</title><rect fill="#FFFFFF" height="87.3984" style="stroke:#181818;stroke-width:1;" width="10" x="1237.6948" y="258.2578"/></g><g><title>WeatherDataService</title><rect fill="#FFFFFF" height="87.3984" style="stroke:#181818;stroke-width:1;" width="10" x="1237.6948" y="491.3203"/></g><g><title>WeatherDataService</title><rect fill="#FFFFFF" height="111.5313" style="stroke:#181818;stroke-width:1;" width="10" x="1237.6948" y="724.3828"/></g><g><title>FlightPlanRepository</title><rect fill="#FFFFFF" height="29.1328" style="stroke:#181818;stroke-width:1;" width="10" x="1607.9658" y="287.3906"/></g><g><title>FlightPlanRepository</title><rect fill="#FFFFFF" height="29.1328" style="stroke:#181818;stroke-width:1;" width="10" x="1607.9658" y="938.1172"/></g><g><title>WeatherDataRepository</title><rect fill="#FFFFFF" height="29.1328" style="stroke:#181818;stroke-width:1;" width="10" x="1780.0679" y="520.4531"/></g><g><title>WeatherDataRepository</title><rect fill="#FFFFFF" height="29.1328" style="stroke:#181818;stroke-width:1;" width="10" x="1780.0679" y="753.5156"/></g><path d="M5,133.5938 L5,173.5938 L193,173.5938 L193,143.5938 L183,133.5938 L5,133.5938" fill="#FFFACD" style="stroke:#DAA520;stroke-width:0.5;"/><path d="M183,133.5938 L183,143.5938 L193,143.5938 L183,133.5938" fill="#FFFACD" style="stroke:#DAA520;stroke-width:0.5;"/><text fill="#000000" font-family="sans-serif" font-size="13" lengthAdjust="spacing" textLength="137.7124" x="11" y="150.6606">Pilot is authenticated</text><text fill="#000000" font-family="sans-serif" font-size="13" lengthAdjust="spacing" textLength="167.8066" x="11" y="165.7935">and has an active session</text><g class="message" data-entity-1="part1" data-entity-2="part2" data-source-line="14" id="msg1"><polygon fill="#181818" points="475.1528,195.9922,485.1528,199.9922,475.1528,203.9922,479.1528,199.9922" style="stroke:#181818;stroke-width:1;"/><line style="stroke:#181818;stroke-width:1;" x1="99.1382" x2="481.1528" y1="199.9922" y2="199.9922"/><text fill="#000000" font-family="sans-serif" font-size="13" lengthAdjust="spacing" textLength="126.1978" x="106.1382" y="194.9263">request flight plans</text></g><g class="message" data-entity-1="part2" data-entity-2="part3" data-source-line="16" id="msg2"><polygon fill="#181818" points="850.4238,225.125,860.4238,229.125,850.4238,233.125,854.4238,229.125" style="stroke:#181818;stroke-width:1;"/><line style="stroke:#181818;stroke-width:1;" x1="497.1528" x2="856.4238" y1="229.125" y2="229.125"/><text fill="#000000" font-family="sans-serif" font-size="13" lengthAdjust="spacing" textLength="187.5479" x="504.1528" y="224.0591">getFlightPlansByPilot(pilotId)</text></g><g class="message" data-entity-1="part3" data-entity-2="part4" data-source-line="18" id="msg3"><polygon fill="#181818" points="1225.6948,254.2578,1235.6948,258.2578,1225.6948,262.2578,1229.6948,258.2578" style="stroke:#181818;stroke-width:1;"/><line style="stroke:#181818;stroke-width:1;" x1="872.4238" x2="1231.6948" y1="258.2578" y2="258.2578"/><text fill="#000000" font-family="sans-serif" font-size="13" lengthAdjust="spacing" textLength="187.5479" x="879.4238" y="253.1919">getFlightPlansByPilot(pilotId)</text></g><g class="message" data-entity-1="part4" data-entity-2="part5" data-source-line="20" id="msg4"><polygon fill="#181818" points="1595.9658,283.3906,1605.9658,287.3906,1595.9658,291.3906,1599.9658,287.3906" style="stroke:#181818;stroke-width:1;"/><line style="stroke:#181818;stroke-width:1;" x1="1247.6948" x2="1601.9658" y1="287.3906" y2="287.3906"/><text fill="#000000" font-family="sans-serif" font-size="13" lengthAdjust="spacing" textLength="132.2471" x="1254.6948" y="282.3247">findByPilotId(pilotId)</text></g><g class="message" data-entity-1="part5" data-entity-2="part4" data-source-line="22" id="msg5"><polygon fill="#181818" points="1258.6948,312.5234,1248.6948,316.5234,1258.6948,320.5234,1254.6948,316.5234" style="stroke:#181818;stroke-width:1;"/><line style="stroke:#181818;stroke-width:1;stroke-dasharray:2,2;" x1="1252.6948" x2="1611.9658" y1="316.5234" y2="316.5234"/><text fill="#000000" font-family="sans-serif" font-size="13" lengthAdjust="spacing" textLength="67.8184" x="1264.6948" y="311.4575">flightPlans</text></g><g class="message" data-entity-1="part4" data-entity-2="part3" data-source-line="24" id="msg6"><polygon fill="#181818" points="883.4238,341.6563,873.4238,345.6563,883.4238,349.6563,879.4238,345.6563" style="stroke:#181818;stroke-width:1;"/><line style="stroke:#181818;stroke-width:1;stroke-dasharray:2,2;" x1="877.4238" x2="1241.6948" y1="345.6563" y2="345.6563"/><text fill="#000000" font-family="sans-serif" font-size="13" lengthAdjust="spacing" textLength="67.8184" x="889.4238" y="340.5903">flightPlans</text></g><g class="message" data-entity-1="part3" data-entity-2="part2" data-source-line="26" id="msg7"><polygon fill="#181818" points="508.1528,370.7891,498.1528,374.7891,508.1528,378.7891,504.1528,374.7891" style="stroke:#181818;stroke-width:1;"/><line style="stroke:#181818;stroke-width:1;stroke-dasharray:2,2;" x1="502.1528" x2="866.4238" y1="374.7891" y2="374.7891"/><text fill="#000000" font-family="sans-serif" font-size="13" lengthAdjust="spacing" textLength="67.8184" x="514.1528" y="369.7231">flightPlans</text></g><g class="message" data-entity-1="part2" data-entity-2="part1" data-source-line="28" id="msg8"><polygon fill="#181818" points="110.1382,399.9219,100.1382,403.9219,110.1382,407.9219,106.1382,403.9219" style="stroke:#181818;stroke-width:1;"/><line style="stroke:#181818;stroke-width:1;stroke-dasharray:2,2;" x1="104.1382" x2="486.1528" y1="403.9219" y2="403.9219"/><text fill="#000000" font-family="sans-serif" font-size="13" lengthAdjust="spacing" textLength="141.978" x="116.1382" y="398.856">display all flight plans</text></g><g class="message" data-entity-1="part1" data-entity-2="part2" data-source-line="30" id="msg9"><polygon fill="#181818" points="475.1528,429.0547,485.1528,433.0547,475.1528,437.0547,479.1528,433.0547" style="stroke:#181818;stroke-width:1;"/><line style="stroke:#181818;stroke-width:1;" x1="99.1382" x2="481.1528" y1="433.0547" y2="433.0547"/><text fill="#000000" font-family="sans-serif" font-size="13" lengthAdjust="spacing" textLength="150.8838" x="106.1382" y="427.9888">chooses one flight plan</text></g><g class="message" data-entity-1="part2" data-entity-2="part3" data-source-line="32" id="msg10"><polygon fill="#181818" points="850.4238,458.1875,860.4238,462.1875,850.4238,466.1875,854.4238,462.1875" style="stroke:#181818;stroke-width:1;"/><line style="stroke:#181818;stroke-width:1;" x1="497.1528" x2="856.4238" y1="462.1875" y2="462.1875"/><text fill="#000000" font-family="sans-serif" font-size="13" lengthAdjust="spacing" textLength="271.7178" x="504.1528" y="457.1216">getWeatherDataByFlightPlan(flightPlanId)</text></g><g class="message" data-entity-1="part3" data-entity-2="part4" data-source-line="33" id="msg11"><polygon fill="#181818" points="1225.6948,487.3203,1235.6948,491.3203,1225.6948,495.3203,1229.6948,491.3203" style="stroke:#181818;stroke-width:1;"/><line style="stroke:#181818;stroke-width:1;" x1="872.4238" x2="1231.6948" y1="491.3203" y2="491.3203"/><text fill="#000000" font-family="sans-serif" font-size="13" lengthAdjust="spacing" textLength="271.7178" x="879.4238" y="486.2544">getWeatherDataByFlightPlan(flightPlanId)</text></g><g class="message" data-entity-1="part4" data-entity-2="part6" data-source-line="35" id="msg12"><polygon fill="#181818" points="1768.0679,516.4531,1778.0679,520.4531,1768.0679,524.4531,1772.0679,520.4531" style="stroke:#181818;stroke-width:1;"/><line style="stroke:#181818;stroke-width:1;" x1="1247.6948" x2="1774.0679" y1="520.4531" y2="520.4531"/><text fill="#000000" font-family="sans-serif" font-size="13" lengthAdjust="spacing" textLength="318.4302" x="1254.6948" y="515.3872">findByAirControlArea(flightPlan.airControlAreaId)</text></g><g class="message" data-entity-1="part6" data-entity-2="part4" data-source-line="37" id="msg13"><polygon fill="#181818" points="1258.6948,545.5859,1248.6948,549.5859,1258.6948,553.5859,1254.6948,549.5859" style="stroke:#181818;stroke-width:1;"/><line style="stroke:#181818;stroke-width:1;stroke-dasharray:2,2;" x1="1252.6948" x2="1784.0679" y1="549.5859" y2="549.5859"/><text fill="#000000" font-family="sans-serif" font-size="13" lengthAdjust="spacing" textLength="107.0405" x="1264.6948" y="544.52">weatherDataList</text></g><g class="message" data-entity-1="part4" data-entity-2="part3" data-source-line="39" id="msg14"><polygon fill="#181818" points="883.4238,574.7188,873.4238,578.7188,883.4238,582.7188,879.4238,578.7188" style="stroke:#181818;stroke-width:1;"/><line style="stroke:#181818;stroke-width:1;stroke-dasharray:2,2;" x1="877.4238" x2="1241.6948" y1="578.7188" y2="578.7188"/><text fill="#000000" font-family="sans-serif" font-size="13" lengthAdjust="spacing" textLength="107.0405" x="889.4238" y="573.6528">weatherDataList</text></g><g class="message" data-entity-1="part3" data-entity-2="part2" data-source-line="41" id="msg15"><polygon fill="#181818" points="508.1528,603.8516,498.1528,607.8516,508.1528,611.8516,504.1528,607.8516" style="stroke:#181818;stroke-width:1;"/><line style="stroke:#181818;stroke-width:1;stroke-dasharray:2,2;" x1="502.1528" x2="866.4238" y1="607.8516" y2="607.8516"/><text fill="#000000" font-family="sans-serif" font-size="13" lengthAdjust="spacing" textLength="107.0405" x="514.1528" y="602.7856">weatherDataList</text></g><g class="message" data-entity-1="part2" data-entity-2="part1" data-source-line="43" id="msg16"><polygon fill="#181818" points="110.1382,632.9844,100.1382,636.9844,110.1382,640.9844,106.1382,636.9844" style="stroke:#181818;stroke-width:1;"/><line style="stroke:#181818;stroke-width:1;stroke-dasharray:2,2;" x1="104.1382" x2="486.1528" y1="636.9844" y2="636.9844"/><text fill="#000000" font-family="sans-serif" font-size="13" lengthAdjust="spacing" textLength="199.7925" x="116.1382" y="631.9185">display available weather data</text></g><g class="message" data-entity-1="part1" data-entity-2="part2" data-source-line="45" id="msg17"><polygon fill="#181818" points="475.1528,662.1172,485.1528,666.1172,475.1528,670.1172,479.1528,666.1172" style="stroke:#181818;stroke-width:1;"/><line style="stroke:#181818;stroke-width:1;" x1="99.1382" x2="481.1528" y1="666.1172" y2="666.1172"/><text fill="#000000" font-family="sans-serif" font-size="13" lengthAdjust="spacing" textLength="143.6602" x="106.1382" y="661.0513">chooses weather data</text></g><g class="message" data-entity-1="part2" data-entity-2="part3" data-source-line="46" id="msg18"><polygon fill="#181818" points="850.4238,691.25,860.4238,695.25,850.4238,699.25,854.4238,695.25" style="stroke:#181818;stroke-width:1;"/><line style="stroke:#181818;stroke-width:1;" x1="497.1528" x2="856.4238" y1="695.25" y2="695.25"/><text fill="#000000" font-family="sans-serif" font-size="13" lengthAdjust="spacing" textLength="346.271" x="504.1528" y="690.1841">linkWeatherToFlightPlan(weatherDataId, flightPlanId)</text></g><g class="message" data-entity-1="part3" data-entity-2="part4" data-source-line="48" id="msg19"><polygon fill="#181818" points="1225.6948,720.3828,1235.6948,724.3828,1225.6948,728.3828,1229.6948,724.3828" style="stroke:#181818;stroke-width:1;"/><line style="stroke:#181818;stroke-width:1;" x1="872.4238" x2="1231.6948" y1="724.3828" y2="724.3828"/><text fill="#000000" font-family="sans-serif" font-size="13" lengthAdjust="spacing" textLength="346.271" x="879.4238" y="719.3169">linkWeatherToFlightPlan(weatherDataId, flightPlanId)</text></g><g class="message" data-entity-1="part4" data-entity-2="part6" data-source-line="51" id="msg20"><polygon fill="#181818" points="1768.0679,749.5156,1778.0679,753.5156,1768.0679,757.5156,1772.0679,753.5156" style="stroke:#181818;stroke-width:1;"/><line style="stroke:#181818;stroke-width:1;" x1="1247.6948" x2="1774.0679" y1="753.5156" y2="753.5156"/><text fill="#000000" font-family="sans-serif" font-size="13" lengthAdjust="spacing" textLength="159.9229" x="1254.6948" y="748.4497">findById(weatherDataId)</text></g><g class="message" data-entity-1="part6" data-entity-2="part4" data-source-line="53" id="msg21"><polygon fill="#181818" points="1258.6948,778.6484,1248.6948,782.6484,1258.6948,786.6484,1254.6948,782.6484" style="stroke:#181818;stroke-width:1;"/><line style="stroke:#181818;stroke-width:1;stroke-dasharray:2,2;" x1="1252.6948" x2="1784.0679" y1="782.6484" y2="782.6484"/><text fill="#000000" font-family="sans-serif" font-size="13" lengthAdjust="spacing" textLength="163.2871" x="1264.6948" y="777.5825">Optional&lt;WeatherData&gt;</text></g><path d="M71,797.6484 L135.4429,797.6484 L135.4429,804.7813 L125.4429,814.7813 L71,814.7813 L71,797.6484" fill="#EEEEEE" style="stroke:#000000;stroke-width:1.5;"/><rect fill="none" height="265" style="stroke:#000000;stroke-width:1.5;" width="1626.9346" x="71" y="797.6484"/><text fill="#000000" font-family="sans-serif" font-size="13" font-weight="700" lengthAdjust="spacing" textLength="19.4429" x="86" y="810.7153">alt</text><text fill="#000000" font-family="sans-serif" font-size="11" font-weight="700" lengthAdjust="spacing" textLength="156.4653" x="150.4429" y="809.8589">[WeatherData not found]</text><g class="message" data-entity-1="part4" data-entity-2="part3" data-source-line="57" id="msg22"><polygon fill="#181818" points="883.4238,831.9141,873.4238,835.9141,883.4238,839.9141,879.4238,835.9141" style="stroke:#181818;stroke-width:1;"/><line style="stroke:#181818;stroke-width:1;stroke-dasharray:2,2;" x1="877.4238" x2="1241.6948" y1="835.9141" y2="835.9141"/><text fill="#000000" font-family="sans-serif" font-size="13" lengthAdjust="spacing" textLength="213.6812" x="889.4238" y="830.8481">WeatherDataNotFoundException</text></g><g class="message" data-entity-1="part3" data-entity-2="part2" data-source-line="59" id="msg23"><polygon fill="#181818" points="508.1528,861.0469,498.1528,865.0469,508.1528,869.0469,504.1528,865.0469" style="stroke:#181818;stroke-width:1;"/><line style="stroke:#181818;stroke-width:1;stroke-dasharray:2,2;" x1="502.1528" x2="866.4238" y1="865.0469" y2="865.0469"/><text fill="#000000" font-family="sans-serif" font-size="13" lengthAdjust="spacing" textLength="103.2002" x="514.1528" y="859.981">propagate error</text></g><g class="message" data-entity-1="part2" data-entity-2="part1" data-source-line="61" id="msg24"><polygon fill="#181818" points="110.1382,890.1797,100.1382,894.1797,110.1382,898.1797,106.1382,894.1797" style="stroke:#181818;stroke-width:1;"/><line style="stroke:#181818;stroke-width:1;stroke-dasharray:2,2;" x1="104.1382" x2="491.1528" y1="894.1797" y2="894.1797"/><text fill="#000000" font-family="sans-serif" font-size="13" lengthAdjust="spacing" textLength="144.8345" x="116.1382" y="889.1138">display error message</text></g><line style="stroke:#000000;stroke-width:1;stroke-dasharray:2,2;" x1="71" x2="1697.9346" y1="903.1797" y2="903.1797"/><text fill="#000000" font-family="sans-serif" font-size="11" font-weight="700" lengthAdjust="spacing" textLength="131.9893" x="76" y="913.3901">[WeatherData found]</text><g class="message" data-entity-1="part4" data-entity-2="part5" data-source-line="65" id="msg25"><polygon fill="#181818" points="1595.9658,934.1172,1605.9658,938.1172,1595.9658,942.1172,1599.9658,938.1172" style="stroke:#181818;stroke-width:1;"/><line style="stroke:#181818;stroke-width:1;" x1="1242.6948" x2="1601.9658" y1="938.1172" y2="938.1172"/><text fill="#000000" font-family="sans-serif" font-size="13" lengthAdjust="spacing" textLength="346.271" x="1249.6948" y="933.0513">linkWeatherToFlightPlan(weatherDataId, flightPlanId)</text></g><g class="message" data-entity-1="part5" data-entity-2="part4" data-source-line="67" id="msg26"><polygon fill="#181818" points="1253.6948,963.25,1243.6948,967.25,1253.6948,971.25,1249.6948,967.25" style="stroke:#181818;stroke-width:1;"/><line style="stroke:#181818;stroke-width:1;stroke-dasharray:2,2;" x1="1247.6948" x2="1611.9658" y1="967.25" y2="967.25"/><text fill="#000000" font-family="sans-serif" font-size="13" lengthAdjust="spacing" textLength="118.0029" x="1259.6948" y="962.1841">updatedFlightPlan</text></g><g class="message" data-entity-1="part4" data-entity-2="part3" data-source-line="69" id="msg27"><polygon fill="#181818" points="878.4238,992.3828,868.4238,996.3828,878.4238,1000.3828,874.4238,996.3828" style="stroke:#181818;stroke-width:1;"/><line style="stroke:#181818;stroke-width:1;stroke-dasharray:2,2;" x1="872.4238" x2="1241.6948" y1="996.3828" y2="996.3828"/><text fill="#000000" font-family="sans-serif" font-size="13" lengthAdjust="spacing" textLength="178.9976" x="884.4238" y="991.3169">success(updatedFlightPlan)</text></g><g class="message" data-entity-1="part3" data-entity-2="part2" data-source-line="71" id="msg28"><polygon fill="#181818" points="503.1528,1021.5156,493.1528,1025.5156,503.1528,1029.5156,499.1528,1025.5156" style="stroke:#181818;stroke-width:1;"/><line style="stroke:#181818;stroke-width:1;stroke-dasharray:2,2;" x1="497.1528" x2="866.4238" y1="1025.5156" y2="1025.5156"/><text fill="#000000" font-family="sans-serif" font-size="13" lengthAdjust="spacing" textLength="122.0654" x="509.1528" y="1020.4497">propagate success</text></g><g class="message" data-entity-1="part2" data-entity-2="part1" data-source-line="73" id="msg29"><polygon fill="#181818" points="110.1382,1050.6484,100.1382,1054.6484,110.1382,1058.6484,106.1382,1054.6484" style="stroke:#181818;stroke-width:1;"/><line style="stroke:#181818;stroke-width:1;stroke-dasharray:2,2;" x1="104.1382" x2="491.1528" y1="1054.6484" y2="1054.6484"/><text fill="#000000" font-family="sans-serif" font-size="13" lengthAdjust="spacing" textLength="369.0146" x="116.1382" y="1049.5825">confirm "Weather data added to flight plan successfully"</text></g><?plantuml-src fLPTRzem57tthxXYBwqqfghIf0bDbK8P4jAqLUlGNlPo6r_0gcjdjg7Zt-ywJOWJ4len7Y31vnpkFSUv9gYW2J8fuP4mRCY1n80GBAoqMcy2Z65vU_7fKlXxPGfq-03VRA0fvlThPxT6Nbjj7RoRp-VPzQoBiawIgn2pBFjuUI44ve5lRvIs0T33qfCJJ0agLmMQ0ADVJuNCk8xbObHY5eE8Qsk2irgJAv7DxI3ZbjnEvLJ2gsiHUxv3Jp2QbrtVQ3G_gB1USQtx4ZgRDai9FX4-8bHhGXZs0koEpOtTJghcbGVSCi1mcHX8_ZPe96oOYWRO9RKZyEIziaQ8I8Jn5Lin0KT_jkH3dL315NbH4bWcchLSH6ZZnGJM59ho_NHVLd1MnFU5F6_8YN_DPHIhd7gvKcrjzHarKWidi596LlI5x15e6PxUm3YjPzKK8oJrimyrT5mPuDQbfmvKrWym4jkYzn5S1YsLvtJsW5gtqshbcM-ivQ316afHOaZ-ADfa4qxtJTzdJRNHsU50NyO_7MsbKUUQALVzNkO84wKFs5hfH5u_CeUhTjYFJQ5VbG_jm6lkKDedo2SIFy5wDlKTAertF5_JsTgVVGjn7B9MvhxgxwTD4aggMyZtC13Oyq_r_-dNzftS4VoGjzHUa_lt8l0KHFqvsQbN_UaBr04I6F3mXLKygGJmQsXp90m-kUOH_-LlJkNlbiIUtHA_xjanXRC5hYEGdBEkoqx2Y2kzEwSamWCFVrnJLu07l23DXq_QPK-7tO7xfeoZOlzGZIl3OtbRo7YcTV130_fKCdwRvsp4sP7Y-PjpgIHVaqnkpKgvXyE1__Gt2QKacVnPYcExLbzjjTwFUi8Z8_y1?></g></svg>