<?plantuml 1.2026.2?><svg xmlns="http://www.w3.org/2000/svg" xmlns:xlink="http://www.w3.org/1999/xlink" contentStyleType="text/css" data-diagram-type="SEQUENCE" height="1850px" preserveAspectRatio="none" style="width:2051px;height:1850px;background:#FFFFFF;" version="1.1" viewBox="0 0 2051 1850" width="2051px" zoomAndPan="magnify"><defs/><g><g><title>..UI..</title><rect fill="#FFFFFF" height="1493.5589" style="stroke:#181818;stroke-width:1;" width="10" x="343.8897" y="230.4398"/></g><g><title>..Controller..</title><rect fill="#FFFFFF" height="1397.839" style="stroke:#181818;stroke-width:1;" width="10" x="637.0893" y="326.1598"/></g><g><title>..Service..</title><rect fill="#FFFFFF" height="1080.4392" style="stroke:#181818;stroke-width:1;" width="10" x="930.289" y="449.1197"/></g><g><title>..Factory..</title><rect fill="#FFFFFF" height="354.3997" style="stroke:#181818;stroke-width:1;" width="10" x="1209.0087" y="833.9994"/></g><g><title>..Repository..</title><rect fill="#FFFFFF" height="41.24" style="stroke:#181818;stroke-width:1;" width="10" x="1535.4683" y="621.3195"/></g><g><title>..Repository..</title><rect fill="#FFFFFF" height="41.24" style="stroke:#181818;stroke-width:1;" width="10" x="1750.9781" y="490.3596"/></g><g><title>..Repository..</title><rect fill="#FFFFFF" height="41.24" style="stroke:#181818;stroke-width:1;" width="10" x="1750.9781" y="1229.6391"/></g><rect fill="none" height="975.9593" rx="2.5" ry="2.5" style="stroke:#000000;stroke-width:1.5;" width="1550.4184" x="494.3695" y="546.5996"/><rect fill="none" height="740.2794" rx="2.5" ry="2.5" style="stroke:#000000;stroke-width:1.5;" width="1530.4184" x="504.3695" y="677.5595"/><rect fill="none" height="180.4398" rx="2.5" ry="2.5" style="stroke:#000000;stroke-width:1.5;" width="493.3094" x="286.4997" y="1536.5589"/><g class="participant-lifeline" data-entity-uid="part1" data-qualified-name="Actor" id="part1-lifeline"><g><title>Company Collaborator</title><rect fill="#000000" fill-opacity="0.00000" height="1628.5188" width="8" x="110.2299" y="105.4799"/><line style="stroke:#181818;stroke-width:0.5;stroke-dasharray:5,5;" x1="114" x2="114" y1="105.4799" y2="1733.9987"/></g></g><g class="participant-lifeline" data-entity-uid="part2" data-qualified-name="UI" id="part2-lifeline"><g><title>..UI..</title><rect fill="#000000" fill-opacity="0.00000" height="1628.5188" width="8" x="344.8897" y="105.4799"/><line style="stroke:#181818;stroke-width:0.5;stroke-dasharray:5,5;" x1="348.4997" x2="348.4997" y1="105.4799" y2="1733.9987"/></g></g><g class="participant-lifeline" data-entity-uid="part3" data-qualified-name="Ctrl" id="part3-lifeline"><g><title>..Controller..</title><rect fill="#000000" fill-opacity="0.00000" height="1628.5188" width="8" x="638.0893" y="105.4799"/><line style="stroke:#181818;stroke-width:0.5;stroke-dasharray:5,5;" x1="641.3695" x2="641.3695" y1="105.4799" y2="1733.9987"/></g></g><g class="participant-lifeline" data-entity-uid="part4" data-qualified-name="Svc" id="part4-lifeline"><g><title>..Service..</title><rect fill="#000000" fill-opacity="0.00000" height="1628.5188" width="8" x="931.289" y="105.4799"/><line style="stroke:#181818;stroke-width:0.5;stroke-dasharray:5,5;" x1="935.239" x2="935.239" y1="105.4799" y2="1733.9987"/></g></g><g class="participant-lifeline" data-entity-uid="part5" data-qualified-name="Factory" id="part5-lifeline"><g><title>..Factory..</title><rect fill="#000000" fill-opacity="0.00000" height="1628.5188" width="8" x="1210.0087" y="105.4799"/><line style="stroke:#181818;stroke-width:0.5;stroke-dasharray:5,5;" x1="1213.8287" x2="1213.8287" y1="105.4799" y2="1733.9987"/></g></g><g class="participant-lifeline" data-entity-uid="part6" data-qualified-name="ModelRepo" id="part6-lifeline"><g><title>..Repository..</title><rect fill="#000000" fill-opacity="0.00000" height="1628.5188" width="8" x="1536.4683" y="105.4799"/><line style="stroke:#181818;stroke-width:0.5;stroke-dasharray:5,5;" x1="1539.9684" x2="1539.9684" y1="105.4799" y2="1733.9987"/></g></g><g class="participant-lifeline" data-entity-uid="part7" data-qualified-name="AircraftRepo" id="part7-lifeline"><g><title>..Repository..</title><rect fill="#000000" fill-opacity="0.00000" height="1628.5188" width="8" x="1751.9781" y="105.4799"/><line style="stroke:#181818;stroke-width:0.5;stroke-dasharray:5,5;" x1="1755.9682" x2="1755.9682" y1="105.4799" y2="1733.9987"/></g></g><g class="participant-lifeline" data-entity-uid="part8" data-qualified-name="Aircraft" id="part8-lifeline"><g><title>..Aggregate Root..</title><rect fill="#000000" fill-opacity="0.00000" height="1628.5188" width="8" x="1935.3879" y="105.4799"/><line style="stroke:#181818;stroke-width:0.5;stroke-dasharray:5,5;" x1="1938.988" x2="1938.988" y1="105.4799" y2="1733.9987"/></g></g><g class="participant participant-head" data-entity-uid="part1" data-qualified-name="Actor" id="part1-head"><text fill="#000000" font-family="sans-serif" font-size="20" lengthAdjust="spacing" textLength="212.4598" x="5" y="99.62">Company Collaborator</text><ellipse cx="114.2299" cy="26.74" fill="#E2E2F0" rx="8" ry="8" style="stroke:#181818;stroke-width:0.5;"/><path d="M114.2299,34.74 L114.2299,61.74 M101.2299,42.74 L127.2299,42.74 M114.2299,61.74 L101.2299,76.74 M114.2299,61.74 L127.2299,76.74" fill="none" style="stroke:#181818;stroke-width:0.5;"/></g><g class="participant participant-tail" data-entity-uid="part1" data-qualified-name="Actor" id="part1-tail"><text fill="#000000" font-family="sans-serif" font-size="20" lengthAdjust="spacing" textLength="212.4598" x="5" y="1754.3787">Company Collaborator</text><ellipse cx="114.2299" cy="1768.7387" fill="#E2E2F0" rx="8" ry="8" style="stroke:#181818;stroke-width:0.5;"/><path d="M114.2299,1776.7387 L114.2299,1803.7387 M101.2299,1784.7387 L127.2299,1784.7387 M114.2299,1803.7387 L101.2299,1818.7387 M114.2299,1803.7387 L127.2299,1818.7387" fill="none" style="stroke:#181818;stroke-width:0.5;"/></g><g class="participant participant-head" data-entity-uid="part2" data-qualified-name="UI" id="part2-head"><rect fill="#E2E2F0" height="68.4799" rx="2.5" ry="2.5" style="stroke:#181818;stroke-width:0.5;" width="104.7799" x="296.4997" y="36"/><text fill="#000000" font-family="sans-serif" font-size="20" font-style="italic" lengthAdjust="spacing" textLength="39.1" x="329.3397" y="64.38">&#171;UI&#187;</text><text fill="#000000" font-family="sans-serif" font-size="20" lengthAdjust="spacing" textLength="90.7799" x="303.4997" y="91.62">AircraftUI</text></g><g class="participant participant-tail" data-entity-uid="part2" data-qualified-name="UI" id="part2-tail"><rect fill="#E2E2F0" height="68.4799" rx="2.5" ry="2.5" style="stroke:#181818;stroke-width:0.5;" width="104.7799" x="296.4997" y="1732.9987"/><text fill="#000000" font-family="sans-serif" font-size="20" font-style="italic" lengthAdjust="spacing" textLength="39.1" x="329.3397" y="1761.3787">&#171;UI&#187;</text><text fill="#000000" font-family="sans-serif" font-size="20" lengthAdjust="spacing" textLength="90.7799" x="303.4997" y="1788.6187">AircraftUI</text></g><g class="participant participant-head" data-entity-uid="part3" data-qualified-name="Ctrl" id="part3-head"><rect fill="#E2E2F0" height="68.4799" rx="2.5" ry="2.5" style="stroke:#181818;stroke-width:0.5;" width="255.4397" x="514.3695" y="36"/><text fill="#000000" font-family="sans-serif" font-size="20" font-style="italic" lengthAdjust="spacing" textLength="107.7799" x="588.1994" y="64.38">&#171;Controller&#187;</text><text fill="#000000" font-family="sans-serif" font-size="20" lengthAdjust="spacing" textLength="241.4397" x="521.3695" y="91.62">RegisterAircraftController</text></g><g class="participant participant-tail" data-entity-uid="part3" data-qualified-name="Ctrl" id="part3-tail"><rect fill="#E2E2F0" height="68.4799" rx="2.5" ry="2.5" style="stroke:#181818;stroke-width:0.5;" width="255.4397" x="514.3695" y="1732.9987"/><text fill="#000000" font-family="sans-serif" font-size="20" font-style="italic" lengthAdjust="spacing" textLength="107.7799" x="588.1994" y="1761.3787">&#171;Controller&#187;</text><text fill="#000000" font-family="sans-serif" font-size="20" lengthAdjust="spacing" textLength="241.4397" x="521.3695" y="1788.6187">RegisterAircraftController</text></g><g class="participant participant-head" data-entity-uid="part4" data-qualified-name="Svc" id="part4-head"><rect fill="#E2E2F0" height="68.4799" rx="2.5" ry="2.5" style="stroke:#181818;stroke-width:0.5;" width="150.0998" x="860.239" y="36"/><text fill="#000000" font-family="sans-serif" font-size="20" font-style="italic" lengthAdjust="spacing" textLength="80.6599" x="894.959" y="64.38">&#171;Service&#187;</text><text fill="#000000" font-family="sans-serif" font-size="20" lengthAdjust="spacing" textLength="136.0998" x="867.239" y="91.62">AircraftService</text></g><g class="participant participant-tail" data-entity-uid="part4" data-qualified-name="Svc" id="part4-tail"><rect fill="#E2E2F0" height="68.4799" rx="2.5" ry="2.5" style="stroke:#181818;stroke-width:0.5;" width="150.0998" x="860.239" y="1732.9987"/><text fill="#000000" font-family="sans-serif" font-size="20" font-style="italic" lengthAdjust="spacing" textLength="80.6599" x="894.959" y="1761.3787">&#171;Service&#187;</text><text fill="#000000" font-family="sans-serif" font-size="20" lengthAdjust="spacing" textLength="136.0998" x="867.239" y="1788.6187">AircraftService</text></g><g class="participant participant-head" data-entity-uid="part5" data-qualified-name="Factory" id="part5-head"><rect fill="#E2E2F0" height="68.4799" rx="2.5" ry="2.5" style="stroke:#181818;stroke-width:0.5;" width="152.3598" x="1137.8287" y="36"/><text fill="#000000" font-family="sans-serif" font-size="20" font-style="italic" lengthAdjust="spacing" textLength="84.2399" x="1171.8887" y="64.38">&#171;Factory&#187;</text><text fill="#000000" font-family="sans-serif" font-size="20" lengthAdjust="spacing" textLength="138.3598" x="1144.8287" y="91.62">AircraftFactory</text></g><g class="participant participant-tail" data-entity-uid="part5" data-qualified-name="Factory" id="part5-tail"><rect fill="#E2E2F0" height="68.4799" rx="2.5" ry="2.5" style="stroke:#181818;stroke-width:0.5;" width="152.3598" x="1137.8287" y="1732.9987"/><text fill="#000000" font-family="sans-serif" font-size="20" font-style="italic" lengthAdjust="spacing" textLength="84.2399" x="1171.8887" y="1761.3787">&#171;Factory&#187;</text><text fill="#000000" font-family="sans-serif" font-size="20" lengthAdjust="spacing" textLength="138.3598" x="1144.8287" y="1788.6187">AircraftFactory</text></g><g class="participant participant-head" data-entity-uid="part6" data-qualified-name="ModelRepo" id="part6-head"><text fill="#000000" font-family="sans-serif" font-size="20" font-style="italic" lengthAdjust="spacing" textLength="112.3599" x="1481.2883" y="72.38">&#171;Repository&#187;</text><text fill="#000000" font-family="sans-serif" font-size="20" lengthAdjust="spacing" textLength="228.9997" x="1422.9684" y="99.62">AircraftModelRepository</text><path d="M1522.4683,15 C1522.4683,5 1540.4683,5 1540.4683,5 C1540.4683,5 1558.4683,5 1558.4683,15 L1558.4683,41 C1558.4683,51 1540.4683,51 1540.4683,51 C1540.4683,51 1522.4683,51 1522.4683,41 L1522.4683,15" fill="#E2E2F0" style="stroke:#181818;stroke-width:0.5;"/><path d="M1522.4683,15 C1522.4683,25 1540.4683,25 1540.4683,25 C1540.4683,25 1558.4683,25 1558.4683,15" fill="none" style="stroke:#181818;stroke-width:0.5;"/></g><g class="participant participant-tail" data-entity-uid="part6" data-qualified-name="ModelRepo" id="part6-tail"><text fill="#000000" font-family="sans-serif" font-size="20" font-style="italic" lengthAdjust="spacing" textLength="112.3599" x="1481.2883" y="1754.3787">&#171;Repository&#187;</text><text fill="#000000" font-family="sans-serif" font-size="20" lengthAdjust="spacing" textLength="228.9997" x="1422.9684" y="1781.6187">AircraftModelRepository</text><path d="M1522.4683,1797.4787 C1522.4683,1787.4787 1540.4683,1787.4787 1540.4683,1787.4787 C1540.4683,1787.4787 1558.4683,1787.4787 1558.4683,1797.4787 L1558.4683,1823.4787 C1558.4683,1833.4787 1540.4683,1833.4787 1540.4683,1833.4787 C1540.4683,1833.4787 1522.4683,1833.4787 1522.4683,1823.4787 L1522.4683,1797.4787" fill="#E2E2F0" style="stroke:#181818;stroke-width:0.5;"/><path d="M1522.4683,1797.4787 C1522.4683,1807.4787 1540.4683,1807.4787 1540.4683,1807.4787 C1540.4683,1807.4787 1558.4683,1807.4787 1558.4683,1797.4787" fill="none" style="stroke:#181818;stroke-width:0.5;"/></g><g class="participant participant-head" data-entity-uid="part7" data-qualified-name="AircraftRepo" id="part7-head"><text fill="#000000" font-family="sans-serif" font-size="20" font-style="italic" lengthAdjust="spacing" textLength="112.3599" x="1696.7981" y="72.38">&#171;Repository&#187;</text><text fill="#000000" font-family="sans-serif" font-size="20" lengthAdjust="spacing" textLength="170.0198" x="1667.9682" y="99.62">AircraftRepository</text><path d="M1737.9781,15 C1737.9781,5 1755.9781,5 1755.9781,5 C1755.9781,5 1773.9781,5 1773.9781,15 L1773.9781,41 C1773.9781,51 1755.9781,51 1755.9781,51 C1755.9781,51 1737.9781,51 1737.9781,41 L1737.9781,15" fill="#E2E2F0" style="stroke:#181818;stroke-width:0.5;"/><path d="M1737.9781,15 C1737.9781,25 1755.9781,25 1755.9781,25 C1755.9781,25 1773.9781,25 1773.9781,15" fill="none" style="stroke:#181818;stroke-width:0.5;"/></g><g class="participant participant-tail" data-entity-uid="part7" data-qualified-name="AircraftRepo" id="part7-tail"><text fill="#000000" font-family="sans-serif" font-size="20" font-style="italic" lengthAdjust="spacing" textLength="112.3599" x="1696.7981" y="1754.3787">&#171;Repository&#187;</text><text fill="#000000" font-family="sans-serif" font-size="20" lengthAdjust="spacing" textLength="170.0198" x="1667.9682" y="1781.6187">AircraftRepository</text><path d="M1737.9781,1797.4787 C1737.9781,1787.4787 1755.9781,1787.4787 1755.9781,1787.4787 C1755.9781,1787.4787 1773.9781,1787.4787 1773.9781,1797.4787 L1773.9781,1823.4787 C1773.9781,1833.4787 1755.9781,1833.4787 1755.9781,1833.4787 C1755.9781,1833.4787 1737.9781,1833.4787 1737.9781,1823.4787 L1737.9781,1797.4787" fill="#E2E2F0" style="stroke:#181818;stroke-width:0.5;"/><path d="M1737.9781,1797.4787 C1737.9781,1807.4787 1755.9781,1807.4787 1755.9781,1807.4787 C1755.9781,1807.4787 1773.9781,1807.4787 1773.9781,1797.4787" fill="none" style="stroke:#181818;stroke-width:0.5;"/></g><g class="participant participant-head" data-entity-uid="part8" data-qualified-name="Aircraft" id="part8-head"><rect fill="#E2E2F0" height="68.4799" rx="2.5" ry="2.5" style="stroke:#181818;stroke-width:0.5;" width="170.7999" x="1853.988" y="36"/><text fill="#000000" font-family="sans-serif" font-size="20" font-style="italic" lengthAdjust="spacing" textLength="156.7999" x="1860.988" y="64.38">&#171;Aggregate Root&#187;</text><text fill="#000000" font-family="sans-serif" font-size="20" lengthAdjust="spacing" textLength="69.3799" x="1904.698" y="91.62">Aircraft</text></g><g class="participant participant-tail" data-entity-uid="part8" data-qualified-name="Aircraft" id="part8-tail"><rect fill="#E2E2F0" height="68.4799" rx="2.5" ry="2.5" style="stroke:#181818;stroke-width:0.5;" width="170.7999" x="1853.988" y="1732.9987"/><text fill="#000000" font-family="sans-serif" font-size="20" font-style="italic" lengthAdjust="spacing" textLength="156.7999" x="1860.988" y="1761.3787">&#171;Aggregate Root&#187;</text><text fill="#000000" font-family="sans-serif" font-size="20" lengthAdjust="spacing" textLength="69.3799" x="1904.698" y="1788.6187">Aircraft</text></g><g><title>..UI..</title><rect fill="#FFFFFF" height="1493.5589" style="stroke:#181818;stroke-width:1;" width="10" x="343.8897" y="230.4398"/></g><g><title>..Controller..</title><rect fill="#FFFFFF" height="1397.839" style="stroke:#181818;stroke-width:1;" width="10" x="637.0893" y="326.1598"/></g><g><title>..Service..</title><rect fill="#FFFFFF" height="1080.4392" style="stroke:#181818;stroke-width:1;" width="10" x="930.289" y="449.1197"/></g><g><title>..Factory..</title><rect fill="#FFFFFF" height="354.3997" style="stroke:#181818;stroke-width:1;" width="10" x="1209.0087" y="833.9994"/></g><g><title>..Repository..</title><rect fill="#FFFFFF" height="41.24" style="stroke:#181818;stroke-width:1;" width="10" x="1535.4683" y="621.3195"/></g><g><title>..Repository..</title><rect fill="#FFFFFF" height="41.24" style="stroke:#181818;stroke-width:1;" width="10" x="1750.9781" y="490.3596"/></g><g><title>..Repository..</title><rect fill="#FFFFFF" height="41.24" style="stroke:#181818;stroke-width:1;" width="10" x="1750.9781" y="1229.6391"/></g><g class="message" data-entity-1="part1" data-entity-2="part2" id="msg1"><polygon fill="#181818" points="331.8897,226.4398,341.8897,230.4398,331.8897,234.4398,335.8897,230.4398" style="stroke:#181818;stroke-width:1;"/><line style="stroke:#181818;stroke-width:1;" x1="114.2299" x2="337.8897" y1="230.4398" y2="230.4398"/><text fill="#000000" font-family="sans-serif" font-size="20" lengthAdjust="spacing" textLength="59.9799" x="128.9999" y="140.8599">enters</text><text fill="#000000" font-family="sans-serif" font-size="20" lengthAdjust="spacing" textLength="5.2" x="188.9798" y="140.8599">&#160;</text><text fill="#000000" font-family="sans-serif" font-size="20" lengthAdjust="spacing" textLength="67.8199" x="194.1798" y="140.8599">aircraft</text><text fill="#000000" font-family="sans-serif" font-size="20" lengthAdjust="spacing" textLength="5.2" x="261.9997" y="140.8599">&#160;</text><text fill="#000000" font-family="sans-serif" font-size="20" lengthAdjust="spacing" textLength="61.9199" x="267.1997" y="140.8599">details</text><text fill="#000000" font-family="sans-serif" font-size="20" lengthAdjust="spacing" textLength="121.4799" x="123.7299" y="168.0999">(registration,</text><text fill="#000000" font-family="sans-serif" font-size="20" lengthAdjust="spacing" textLength="5.2" x="245.2097" y="168.0999">&#160;</text><text fill="#000000" font-family="sans-serif" font-size="20" lengthAdjust="spacing" textLength="83.9799" x="250.4097" y="168.0999">modelId,</text><text fill="#000000" font-family="sans-serif" font-size="20" lengthAdjust="spacing" textLength="148.1598" x="125.2599" y="195.3399">engineModelId,</text><text fill="#000000" font-family="sans-serif" font-size="20" lengthAdjust="spacing" textLength="5.2" x="273.4197" y="195.3399">&#160;</text><text fill="#000000" font-family="sans-serif" font-size="20" lengthAdjust="spacing" textLength="54.2399" x="278.6197" y="195.3399">seats,</text><text fill="#000000" font-family="sans-serif" font-size="20" lengthAdjust="spacing" textLength="78.0999" x="190.0098" y="222.5799">country)</text></g><g class="message" data-entity-1="part2" data-entity-2="part3" id="msg2"><polygon fill="#181818" points="625.0893,322.1598,635.0893,326.1598,625.0893,330.1598,629.0893,326.1598" style="stroke:#181818;stroke-width:1;"/><line style="stroke:#181818;stroke-width:1;" x1="353.8897" x2="631.0893" y1="326.1598" y2="326.1598"/><text fill="#000000" font-family="sans-serif" font-size="20" lengthAdjust="spacing" textLength="264.1996" x="363.3897" y="263.8198">registerAircraft(registration,</text><text fill="#000000" font-family="sans-serif" font-size="20" lengthAdjust="spacing" textLength="83.9799" x="376.8196" y="291.0598">modelId,</text><text fill="#000000" font-family="sans-serif" font-size="20" lengthAdjust="spacing" textLength="5.2" x="460.7995" y="291.0598">&#160;</text><text fill="#000000" font-family="sans-serif" font-size="20" lengthAdjust="spacing" textLength="148.1598" x="465.9995" y="291.0598">engineModelId,</text><text fill="#000000" font-family="sans-serif" font-size="20" lengthAdjust="spacing" textLength="54.2399" x="426.7196" y="318.2998">seats,</text><text fill="#000000" font-family="sans-serif" font-size="20" lengthAdjust="spacing" textLength="5.2" x="480.9595" y="318.2998">&#160;</text><text fill="#000000" font-family="sans-serif" font-size="20" lengthAdjust="spacing" textLength="78.0999" x="486.1595" y="318.2998">country)</text></g><g class="message" data-entity-1="part3" data-entity-2="part4" id="msg3"><polygon fill="#181818" points="918.289,445.1197,928.289,449.1197,918.289,453.1197,922.289,449.1197" style="stroke:#181818;stroke-width:1;"/><line style="stroke:#181818;stroke-width:1;" x1="647.0893" x2="924.289" y1="449.1197" y2="449.1197"/><text fill="#000000" font-family="sans-serif" font-size="20" lengthAdjust="spacing" textLength="264.1996" x="656.5893" y="359.5398">registerAircraft(registration,</text><text fill="#000000" font-family="sans-serif" font-size="20" lengthAdjust="spacing" textLength="83.9799" x="670.0193" y="386.7797">modelId,</text><text fill="#000000" font-family="sans-serif" font-size="20" lengthAdjust="spacing" textLength="5.2" x="753.9992" y="386.7797">&#160;</text><text fill="#000000" font-family="sans-serif" font-size="20" lengthAdjust="spacing" textLength="148.1598" x="759.1992" y="386.7797">engineModelId,</text><text fill="#000000" font-family="sans-serif" font-size="20" lengthAdjust="spacing" textLength="54.2399" x="720.2392" y="414.0197">seats,</text><text fill="#000000" font-family="sans-serif" font-size="20" lengthAdjust="spacing" textLength="5.2" x="774.4791" y="414.0197">&#160;</text><text fill="#000000" font-family="sans-serif" font-size="20" lengthAdjust="spacing" textLength="77.4599" x="779.6791" y="414.0197">country,</text><text fill="#000000" font-family="sans-serif" font-size="20" lengthAdjust="spacing" textLength="184.2398" x="696.5692" y="441.2597">sessionCompanyId)</text></g><g class="message" data-entity-1="part4" data-entity-2="part7" id="msg4"><polygon fill="#181818" points="1738.9781,486.3596,1748.9781,490.3596,1738.9781,494.3596,1742.9781,490.3596" style="stroke:#181818;stroke-width:1;"/><line style="stroke:#181818;stroke-width:1;" x1="940.289" x2="1744.9781" y1="490.3596" y2="490.3596"/><text fill="#000000" font-family="sans-serif" font-size="20" lengthAdjust="spacing" textLength="313.0195" x="1189.1238" y="482.4997">existsByRegistration(registration)</text></g><g class="message" data-entity-1="part7" data-entity-2="part4" id="msg5"><polygon fill="#181818" points="951.289,527.5996,941.289,531.5996,951.289,535.5996,947.289,531.5996" style="stroke:#181818;stroke-width:1;"/><line style="stroke:#181818;stroke-width:1;stroke-dasharray:2,2;" x1="945.289" x2="1754.9781" y1="531.5996" y2="531.5996"/><text fill="#000000" font-family="sans-serif" font-size="20" lengthAdjust="spacing" textLength="141.9198" x="1277.1736" y="523.7396">exists(boolean)</text></g><path d="M496.8695,546.5996 L566.2294,546.5996 L566.2294,565.8396 L556.2294,575.8396 L494.3695,575.8396 L494.3695,549.0996 A2.5,2.5 0 0 1 496.8695,546.5996" fill="#EEEEEE" style="stroke:#000000;stroke-width:1.5;"/><rect fill="none" height="975.9593" rx="2.5" ry="2.5" style="stroke:#000000;stroke-width:1.5;" width="1550.4184" x="494.3695" y="546.5996"/><text fill="#000000" font-family="sans-serif" font-size="20" font-weight="bold" lengthAdjust="spacing" textLength="26.86" x="509.3695" y="568.9796">alt</text><text fill="#000000" font-family="sans-serif" font-size="20" font-weight="bold" lengthAdjust="spacing" textLength="152.2398" x="581.2294" y="569.9796">[exists == false]</text><g class="message" data-entity-1="part4" data-entity-2="part6" id="msg6"><polygon fill="#181818" points="1523.4683,617.3195,1533.4683,621.3195,1523.4683,625.3195,1527.4683,621.3195" style="stroke:#181818;stroke-width:1;"/><line style="stroke:#181818;stroke-width:1;" x1="940.289" x2="1529.4683" y1="621.3195" y2="621.3195"/><text fill="#000000" font-family="sans-serif" font-size="20" lengthAdjust="spacing" textLength="169.5998" x="1153.0787" y="613.4596">findById(modelId)</text></g><g class="message" data-entity-1="part6" data-entity-2="part4" id="msg7"><polygon fill="#181818" points="951.289,658.5595,941.289,662.5595,951.289,666.5595,947.289,662.5595" style="stroke:#181818;stroke-width:1;"/><line style="stroke:#181818;stroke-width:1;stroke-dasharray:2,2;" x1="945.289" x2="1539.4683" y1="662.5595" y2="662.5595"/><text fill="#000000" font-family="sans-serif" font-size="20" lengthAdjust="spacing" textLength="89.8399" x="1195.4587" y="654.6995">theModel</text></g><path d="M506.8695,677.5595 L576.2294,677.5595 L576.2294,696.7995 L566.2294,706.7995 L504.3695,706.7995 L504.3695,680.0595 A2.5,2.5 0 0 1 506.8695,677.5595" fill="#EEEEEE" style="stroke:#000000;stroke-width:1.5;"/><rect fill="none" height="740.2794" rx="2.5" ry="2.5" style="stroke:#000000;stroke-width:1.5;" width="1530.4184" x="504.3695" y="677.5595"/><text fill="#000000" font-family="sans-serif" font-size="20" font-weight="bold" lengthAdjust="spacing" textLength="26.86" x="519.3695" y="699.9395">alt</text><text fill="#000000" font-family="sans-serif" font-size="20" font-weight="bold" lengthAdjust="spacing" textLength="174.7398" x="591.2294" y="700.9395">[theModel != null]</text><g class="message" data-entity-1="part4" data-entity-2="part5" id="msg8"><polygon fill="#181818" points="1197.0087,829.9994,1207.0087,833.9994,1197.0087,837.9994,1201.0087,833.9994" style="stroke:#181818;stroke-width:1;"/><line style="stroke:#181818;stroke-width:1;" x1="940.289" x2="1203.0087" y1="833.9994" y2="833.9994"/><text fill="#000000" font-family="sans-serif" font-size="20" lengthAdjust="spacing" textLength="249.7197" x="949.789" y="744.4195">createAircraft(registration,</text><text fill="#000000" font-family="sans-serif" font-size="20" lengthAdjust="spacing" textLength="95.1999" x="950.3689" y="771.6594">theModel,</text><text fill="#000000" font-family="sans-serif" font-size="20" lengthAdjust="spacing" textLength="5.2" x="1045.5688" y="771.6594">&#160;</text><text fill="#000000" font-family="sans-serif" font-size="20" lengthAdjust="spacing" textLength="148.1598" x="1050.7688" y="771.6594">engineModelId,</text><text fill="#000000" font-family="sans-serif" font-size="20" lengthAdjust="spacing" textLength="54.2399" x="1006.1989" y="798.8994">seats,</text><text fill="#000000" font-family="sans-serif" font-size="20" lengthAdjust="spacing" textLength="5.2" x="1060.4388" y="798.8994">&#160;</text><text fill="#000000" font-family="sans-serif" font-size="20" lengthAdjust="spacing" textLength="77.4599" x="1065.6388" y="798.8994">country,</text><text fill="#000000" font-family="sans-serif" font-size="20" lengthAdjust="spacing" textLength="184.2398" x="982.5289" y="826.1394">sessionCompanyId)</text></g><g class="message" data-entity-1="part5" data-entity-2="part5" id="msg9"><line style="stroke:#181818;stroke-width:1;" x1="1219.0087" x2="1261.0087" y1="902.4793" y2="902.4793"/><line style="stroke:#181818;stroke-width:1;" x1="1261.0087" x2="1261.0087" y1="902.4793" y2="915.4793"/><line style="stroke:#181818;stroke-width:1;" x1="1220.0087" x2="1261.0087" y1="915.4793" y2="915.4793"/><polygon fill="#181818" points="1230.0087,911.4793,1220.0087,915.4793,1230.0087,919.4793,1226.0087,915.4793" style="stroke:#181818;stroke-width:1;"/><text fill="#000000" font-family="sans-serif" font-size="20" lengthAdjust="spacing" textLength="184.2398" x="1244.5186" y="867.3794">validateSeats(seats,</text><text fill="#000000" font-family="sans-serif" font-size="20" lengthAdjust="spacing" textLength="221.2598" x="1226.0087" y="894.6193">theModel.maxCapacity)</text></g><g class="message" data-entity-1="part5" data-entity-2="part5" id="msg10"><line style="stroke:#181818;stroke-width:1;" x1="1219.0087" x2="1261.0087" y1="983.9593" y2="983.9593"/><line style="stroke:#181818;stroke-width:1;" x1="1261.0087" x2="1261.0087" y1="983.9593" y2="996.9593"/><line style="stroke:#181818;stroke-width:1;" x1="1220.0087" x2="1261.0087" y1="996.9593" y2="996.9593"/><polygon fill="#181818" points="1230.0087,992.9593,1220.0087,996.9593,1230.0087,1000.9593,1226.0087,996.9593" style="stroke:#181818;stroke-width:1;"/><text fill="#000000" font-family="sans-serif" font-size="20" lengthAdjust="spacing" textLength="292.4597" x="1226.0087" y="948.8593">validateEngine(engineModelId,</text><text fill="#000000" font-family="sans-serif" font-size="20" lengthAdjust="spacing" textLength="95.8399" x="1324.3185" y="976.0993">theModel)</text></g><g class="message" data-entity-1="part5" data-entity-2="part8" id="msg11"><polygon fill="#181818" points="1927.3879,1143.1591,1937.3879,1147.1591,1927.3879,1151.1591,1931.3879,1147.1591" style="stroke:#181818;stroke-width:1;"/><line style="stroke:#181818;stroke-width:1;" x1="1219.0087" x2="1933.3879" y1="1147.1591" y2="1147.1591"/><text fill="#000000" font-family="sans-serif" font-size="20" lengthAdjust="spacing" textLength="160.8398" x="1498.7784" y="1030.3393">new(registration,</text><text fill="#000000" font-family="sans-serif" font-size="20" lengthAdjust="spacing" textLength="130.0199" x="1514.1884" y="1057.5792">theModel.id(),</text><text fill="#000000" font-family="sans-serif" font-size="20" lengthAdjust="spacing" textLength="148.1598" x="1475.3984" y="1084.8192">engineModelId,</text><text fill="#000000" font-family="sans-serif" font-size="20" lengthAdjust="spacing" textLength="5.2" x="1623.5582" y="1084.8192">&#160;</text><text fill="#000000" font-family="sans-serif" font-size="20" lengthAdjust="spacing" textLength="54.2399" x="1628.7582" y="1084.8192">seats,</text><text fill="#000000" font-family="sans-serif" font-size="20" lengthAdjust="spacing" textLength="77.4599" x="1540.4683" y="1112.0592">country,</text><text fill="#000000" font-family="sans-serif" font-size="20" lengthAdjust="spacing" textLength="184.2398" x="1487.0784" y="1139.2992">sessionCompanyId)</text></g><g class="message" data-entity-1="part5" data-entity-2="part4" id="msg12"><polygon fill="#181818" points="951.289,1184.3991,941.289,1188.3991,951.289,1192.3991,947.289,1188.3991" style="stroke:#181818;stroke-width:1;"/><line style="stroke:#181818;stroke-width:1;stroke-dasharray:2,2;" x1="945.289" x2="1213.0087" y1="1188.3991" y2="1188.3991"/><text fill="#000000" font-family="sans-serif" font-size="20" lengthAdjust="spacing" textLength="108.7399" x="1022.7789" y="1180.5391">newAircraft</text></g><g class="message" data-entity-1="part4" data-entity-2="part7" id="msg13"><polygon fill="#181818" points="1738.9781,1225.6391,1748.9781,1229.6391,1738.9781,1233.6391,1742.9781,1229.6391" style="stroke:#181818;stroke-width:1;"/><line style="stroke:#181818;stroke-width:1;" x1="940.289" x2="1744.9781" y1="1229.6391" y2="1229.6391"/><text fill="#000000" font-family="sans-serif" font-size="20" lengthAdjust="spacing" textLength="162.9798" x="1264.1436" y="1221.7791">save(newAircraft)</text></g><g class="message" data-entity-1="part7" data-entity-2="part4" id="msg14"><polygon fill="#181818" points="951.289,1266.8791,941.289,1270.8791,951.289,1274.8791,947.289,1270.8791" style="stroke:#181818;stroke-width:1;"/><line style="stroke:#181818;stroke-width:1;stroke-dasharray:2,2;" x1="945.289" x2="1754.9781" y1="1270.8791" y2="1270.8791"/><text fill="#000000" font-family="sans-serif" font-size="20" lengthAdjust="spacing" textLength="71.5799" x="1312.3436" y="1263.0191">success</text></g><g class="message" data-entity-1="part4" data-entity-2="part3" id="msg15"><polygon fill="#181818" points="658.0893,1308.119,648.0893,1312.119,658.0893,1316.119,654.0893,1312.119" style="stroke:#181818;stroke-width:1;"/><line style="stroke:#181818;stroke-width:1;stroke-dasharray:2,2;" x1="652.0893" x2="929.289" y1="1312.119" y2="1312.119"/><text fill="#000000" font-family="sans-serif" font-size="20" lengthAdjust="spacing" textLength="71.5799" x="752.8992" y="1304.2591">success</text></g><line style="stroke:#000000;stroke-width:1;stroke-dasharray:2,2;" x1="504.3695" x2="2034.7879" y1="1321.119" y2="1321.119"/><text fill="#000000" font-family="sans-serif" font-size="20" font-weight="bold" lengthAdjust="spacing" textLength="180.4598" x="509.3695" y="1342.499">[theModel == null]</text><g class="message" data-entity-1="part4" data-entity-2="part3" id="msg16"><polygon fill="#181818" points="658.0893,1405.839,648.0893,1409.839,658.0893,1413.839,654.0893,1409.839" style="stroke:#181818;stroke-width:1;"/><line style="stroke:#181818;stroke-width:1;stroke-dasharray:2,2;" x1="652.0893" x2="929.289" y1="1409.839" y2="1409.839"/><text fill="#000000" font-family="sans-serif" font-size="20" lengthAdjust="spacing" textLength="125.4599" x="688.6692" y="1374.739">error("Invalid</text><text fill="#000000" font-family="sans-serif" font-size="20" lengthAdjust="spacing" textLength="5.2" x="814.1291" y="1374.739">&#160;</text><text fill="#000000" font-family="sans-serif" font-size="20" lengthAdjust="spacing" textLength="69.3799" x="819.3291" y="1374.739">Aircraft</text><text fill="#000000" font-family="sans-serif" font-size="20" lengthAdjust="spacing" textLength="73.1399" x="752.1192" y="1401.979">Model")</text></g><line style="stroke:#000000;stroke-width:1;stroke-dasharray:2,2;" x1="494.3695" x2="2044.7879" y1="1425.839" y2="1425.839"/><text fill="#000000" font-family="sans-serif" font-size="20" font-weight="bold" lengthAdjust="spacing" textLength="147.2798" x="499.3695" y="1447.219">[exists == true]</text><g class="message" data-entity-1="part4" data-entity-2="part3" id="msg17"><polygon fill="#181818" points="658.0893,1510.5589,648.0893,1514.5589,658.0893,1518.5589,654.0893,1514.5589" style="stroke:#181818;stroke-width:1;"/><line style="stroke:#181818;stroke-width:1;stroke-dasharray:2,2;" x1="652.0893" x2="929.289" y1="1514.5589" y2="1514.5589"/><text fill="#000000" font-family="sans-serif" font-size="20" lengthAdjust="spacing" textLength="176.6198" x="700.3792" y="1479.4589">error("Registration</text><text fill="#000000" font-family="sans-serif" font-size="20" lengthAdjust="spacing" textLength="69.6399" x="717.4892" y="1506.6989">already</text><text fill="#000000" font-family="sans-serif" font-size="20" lengthAdjust="spacing" textLength="5.2" x="787.1291" y="1506.6989">&#160;</text><text fill="#000000" font-family="sans-serif" font-size="20" lengthAdjust="spacing" textLength="67.5599" x="792.3291" y="1506.6989">exists")</text></g><path d="M288.9997,1536.5589 L358.3597,1536.5589 L358.3597,1555.7989 L348.3597,1565.7989 L286.4997,1565.7989 L286.4997,1539.0589 A2.5,2.5 0 0 1 288.9997,1536.5589" fill="#EEEEEE" style="stroke:#000000;stroke-width:1.5;"/><rect fill="none" height="180.4398" rx="2.5" ry="2.5" style="stroke:#000000;stroke-width:1.5;" width="493.3094" x="286.4997" y="1536.5589"/><text fill="#000000" font-family="sans-serif" font-size="20" font-weight="bold" lengthAdjust="spacing" textLength="26.86" x="301.4997" y="1558.9389">alt</text><text fill="#000000" font-family="sans-serif" font-size="20" font-weight="bold" lengthAdjust="spacing" textLength="88.5799" x="373.3597" y="1559.9389">[success]</text><g class="message" data-entity-1="part3" data-entity-2="part2" id="msg18"><polygon fill="#181818" points="364.8897,1634.5188,354.8897,1638.5188,364.8897,1642.5188,360.8897,1638.5188" style="stroke:#181818;stroke-width:1;"/><line style="stroke:#181818;stroke-width:1;stroke-dasharray:2,2;" x1="358.8897" x2="636.0893" y1="1638.5188" y2="1638.5188"/><text fill="#000000" font-family="sans-serif" font-size="20" lengthAdjust="spacing" textLength="69.3799" x="409.7396" y="1603.4188">Aircraft</text><text fill="#000000" font-family="sans-serif" font-size="20" lengthAdjust="spacing" textLength="5.2" x="479.1195" y="1603.4188">&#160;</text><text fill="#000000" font-family="sans-serif" font-size="20" lengthAdjust="spacing" textLength="96.9199" x="484.3195" y="1603.4188">registered</text><text fill="#000000" font-family="sans-serif" font-size="20" lengthAdjust="spacing" textLength="111.3399" x="439.8196" y="1630.6588">successfully</text></g><line style="stroke:#000000;stroke-width:1;stroke-dasharray:2,2;" x1="286.4997" x2="779.8092" y1="1647.5188" y2="1647.5188"/><text fill="#000000" font-family="sans-serif" font-size="20" font-weight="bold" lengthAdjust="spacing" textLength="64.6799" x="291.4997" y="1668.8988">[error]</text><g class="message" data-entity-1="part3" data-entity-2="part2" id="msg19"><polygon fill="#181818" points="364.8897,1704.9987,354.8897,1708.9987,364.8897,1712.9987,360.8897,1708.9987" style="stroke:#181818;stroke-width:1;"/><line style="stroke:#181818;stroke-width:1;stroke-dasharray:2,2;" x1="358.8897" x2="636.0893" y1="1708.9987" y2="1708.9987"/><text fill="#000000" font-family="sans-serif" font-size="20" lengthAdjust="spacing" textLength="114.2999" x="409.7396" y="1701.1388">Registration</text><text fill="#000000" font-family="sans-serif" font-size="20" lengthAdjust="spacing" textLength="5.2" x="524.0395" y="1701.1388">&#160;</text><text fill="#000000" font-family="sans-serif" font-size="20" lengthAdjust="spacing" textLength="51.9999" x="529.2394" y="1701.1388">failed</text></g><?plantuml-src hLPDR-8m4BtdLyno2b9RLIlrWaebYhPI3hs0-05kCgHMZStQ1fhzzJisSMBJKDJkvaJiUU_DTp1lN6wPPXkXoZUieC8rsmdxfAHTyZy8Fsyp4qp0lB9A7RYiOSs4mVW6V-zGblYCnh0QPuBN4agK5dLafT5ibJJ1wX65EioqLWUmUXVJQRMJLQcqH0rtqVc6lRVOetDtjrd6IgiqZEPgisMoWRaIWhqepUXq1Cp0pDrdXBUyv6HYOJJZkjHiRLU5jrWLS7-_AXuUKgi5rjnG0C5wJZdHn8v7thdLWd3zwIa-u9Qezxn43rhkIyAq9-S0JpwanWFQtmHgVn6eOfQzC8CzubbLA1QuLOPtoEwCiFtL8Fm46H-VWWSTJb24cDMrnffPX8LIbb2PBm9SFxXSJy3tXG4M41LQneM1NFkKK-suabUmSH4KrHNPrrpYStWroAovWfAQnEfcx3g0xvtQgiWo4Y0PNvm9w9CI_gk0eyqoeCSBa90hw7_ISU_64A1jvQ8QUwbEdRIEukvnmgIVr8eo-qwovh5PHFg9C-EEeAEDARhRXFUw2_J8dxye9P15P1KEq_LgmhPWc4xRzG7HquRJD-q4rbnMZvI5l4tVE05qUXqakUw9UkVjwp7rYM7aUS-KAf7h0Ge_fY1tGgGMKG1XNYTGQgekdkc8mFVDbXXCH2lzqJNt1ByI5_TCSDe6k7IYUIiTNBkXPJjdMrPosuo_pldBnvMVX1V8Bn9sssG24WzdidV3gtpyZHH-Bjxr2ma7DpuWehOvc_VX4JLiZtb4_Kb51oVpmeIQNLbIm9yvF3oXYTVz2XtYGvhUVYIcxKXS84BwqEjyL4ZV8Ns1FSaepGBAAal4-jNX_obSbeaN84qmpMBLj2oHbjF9JhBJRLatzoVH7xT--8nr8OJrJ_-VMi2Q4j9alVlEgM6InD4rVGRn6BfpBVBAVtcYzrNn5m00?></g></svg>