<?plantuml 1.2026.2?><svg xmlns="http://www.w3.org/2000/svg" xmlns:xlink="http://www.w3.org/1999/xlink" contentStyleType="text/css" data-diagram-type="SEQUENCE" height="2229px" preserveAspectRatio="none" style="width:2788px;height:2229px;background:#FFFFFF;" version="1.1" viewBox="0 0 2788 2229" width="2788px" zoomAndPan="magnify"><defs/><g><g><title>..UI..</title><rect fill="#FFFFFF" height="1937.4787" style="stroke:#181818;stroke-width:1;" width="10" x="380.8296" y="162.7199"/></g><g><title>..Controller..</title><rect fill="#FFFFFF" height="1896.2387" style="stroke:#181818;stroke-width:1;" width="10" x="660.8693" y="203.9599"/></g><g><title>..Service..</title><rect fill="#FFFFFF" height="1801.7588" style="stroke:#181818;stroke-width:1;" width="10" x="1147.2889" y="299.4398"/></g><g><title>..Repository..</title><rect fill="#FFFFFF" height="41.24" style="stroke:#181818;stroke-width:1;" width="10" x="1416.0686" y="340.6798"/></g><g><title>..Repository..</title><rect fill="#FFFFFF" height="41.24" style="stroke:#181818;stroke-width:1;" width="10" x="1661.4684" y="542.1197"/></g><g><title>..Repository..</title><rect fill="#FFFFFF" height="216.4398" style="stroke:#181818;stroke-width:1;" width="10" x="1661.4684" y="1537.599"/></g><g><title>..Repository..</title><rect fill="#FFFFFF" height="41.24" style="stroke:#181818;stroke-width:1;" width="10" x="1904.0681" y="792.0395"/></g><g><title>..Aggregate Root..</title><rect fill="#FFFFFF" height="122.7199" style="stroke:#181818;stroke-width:1;" width="10" x="2114.5679" y="978.2393"/></g><g><title>..Aggregate Root..</title><rect fill="#FFFFFF" height="161.9599" style="stroke:#181818;stroke-width:1;" width="10" x="2114.5679" y="1190.6792"/></g><g><title>..Aggregate Root..</title><rect fill="#FFFFFF" height="95.4799" style="stroke:#181818;stroke-width:1;" width="10" x="2114.5679" y="1400.8791"/></g><g><title>..Entity..</title><rect fill="#FFFFFF" height="69.4799" style="stroke:#181818;stroke-width:1;" width="10" x="2641.9774" y="1241.9192"/></g><rect fill="none" height="1364.119" style="stroke:#000000;stroke-width:1.5;" width="2304.8578" x="476.4695" y="396.9198"/><rect fill="none" height="1155.6792" style="stroke:#000000;stroke-width:1.5;" width="2284.8578" x="486.4695" y="598.3596"/><rect fill="none" height="220.6798" style="stroke:#000000;stroke-width:1.5;" width="1537.6985" x="496.4695" y="717.3195"/><rect fill="none" height="82.7199" style="stroke:#000000;stroke-width:1.5;" width="760.3593" x="506.4695" y="848.2794"/><rect fill="none" height="244.6798" style="stroke:#000000;stroke-width:1.5;" width="1723.5783" x="1037.749" y="1115.9593"/><rect fill="none" height="194.4398" style="stroke:#000000;stroke-width:1.5;" width="1287.4988" x="506.4695" y="1552.599"/><rect fill="none" height="318.1598" style="stroke:#000000;stroke-width:1.5;" width="1256.8288" x="10" y="1775.0388"/><g class="participant-lifeline" data-entity-uid="part1" data-qualified-name="BO" id="part1-lifeline"><g><title>..Actor..</title><rect fill="#000000" fill-opacity="0.00000" height="1990.7187" width="8" x="112.9299" y="119.4799"/><line style="stroke:#181818;stroke-width:0.5;stroke-dasharray:5,5;" x1="116" x2="116" y1="119.4799" y2="2110.1986"/></g></g><g class="participant-lifeline" data-entity-uid="part2" data-qualified-name="UI" id="part2-lifeline"><g><title>..UI..</title><rect fill="#000000" fill-opacity="0.00000" height="1990.7187" width="8" x="381.8296" y="119.4799"/><line style="stroke:#181818;stroke-width:0.5;stroke-dasharray:5,5;" x1="385.1897" x2="385.1897" y1="119.4799" y2="2110.1986"/></g></g><g class="participant-lifeline" data-entity-uid="part3" data-qualified-name="Ctrl" id="part3-lifeline"><g><title>..Controller..</title><rect fill="#000000" fill-opacity="0.00000" height="1990.7187" width="8" x="661.8693" y="119.4799"/><line style="stroke:#181818;stroke-width:0.5;stroke-dasharray:5,5;" x1="665.4695" x2="665.4695" y1="119.4799" y2="2110.1986"/></g></g><g class="participant-lifeline" data-entity-uid="part4" data-qualified-name="Svc" id="part4-lifeline"><g><title>..Service..</title><rect fill="#000000" fill-opacity="0.00000" height="1990.7187" width="8" x="1148.2889" y="119.4799"/><line style="stroke:#181818;stroke-width:0.5;stroke-dasharray:5,5;" x1="1151.749" x2="1151.749" y1="119.4799" y2="2110.1986"/></g></g><g class="participant-lifeline" data-entity-uid="part5" data-qualified-name="ManRepo" id="part5-lifeline"><g><title>..Repository..</title><rect fill="#000000" fill-opacity="0.00000" height="1990.7187" width="8" x="1417.0686" y="119.4799"/><line style="stroke:#181818;stroke-width:0.5;stroke-dasharray:5,5;" x1="1420.1688" x2="1420.1688" y1="119.4799" y2="2110.1986"/></g></g><g class="participant-lifeline" data-entity-uid="part6" data-qualified-name="ModelRepo" id="part6-lifeline"><g><title>..Repository..</title><rect fill="#000000" fill-opacity="0.00000" height="1990.7187" width="8" x="1662.4684" y="119.4799"/><line style="stroke:#181818;stroke-width:0.5;stroke-dasharray:5,5;" x1="1665.9685" x2="1665.9685" y1="119.4799" y2="2110.1986"/></g></g><g class="participant-lifeline" data-entity-uid="part7" data-qualified-name="EngRepo" id="part7-lifeline"><g><title>..Repository..</title><rect fill="#000000" fill-opacity="0.00000" height="1990.7187" width="8" x="1905.0681" y="119.4799"/><line style="stroke:#181818;stroke-width:0.5;stroke-dasharray:5,5;" x1="1908.9683" x2="1908.9683" y1="119.4799" y2="2110.1986"/></g></g><g class="participant-lifeline" data-entity-uid="part8" data-qualified-name="AM" id="part8-lifeline"><g><title>..Aggregate Root..</title><rect fill="#000000" fill-opacity="0.00000" height="1990.7187" width="8" x="2115.5679" y="119.4799"/><line style="stroke:#181818;stroke-width:0.5;stroke-dasharray:5,5;" x1="2119.168" x2="2119.168" y1="119.4799" y2="2110.1986"/></g></g><g class="participant-lifeline" data-entity-uid="part9" data-qualified-name="EC" id="part9-lifeline"><g><title>..Entity..</title><rect fill="#000000" fill-opacity="0.00000" height="861.7794" width="8" x="2642.9774" y="1248.4192"/><line style="stroke:#181818;stroke-width:0.5;stroke-dasharray:5,5;" x1="2646.6275" x2="2646.6275" y1="1248.4192" y2="2110.1986"/></g></g><g class="participant participant-head" data-entity-uid="part1" data-qualified-name="BO" id="part1-head"><text fill="#000000" font-family="sans-serif" font-size="20" font-style="italic" lengthAdjust="spacing" textLength="65.24" x="81.3099" y="86.38">&#171;Actor&#187;</text><text fill="#000000" font-family="sans-serif" font-size="20" lengthAdjust="spacing" textLength="187.8598" x="20" y="113.62">Backoffice Operator</text><ellipse cx="116.9299" cy="13.5" fill="#E2E2F0" rx="8" ry="8" style="stroke:#181818;stroke-width:0.5;"/><path d="M116.9299,21.5 L116.9299,48.5 M103.9299,29.5 L129.9299,29.5 M116.9299,48.5 L103.9299,63.5 M116.9299,48.5 L129.9299,63.5" fill="none" style="stroke:#181818;stroke-width:0.5;"/></g><g class="participant participant-tail" data-entity-uid="part1" data-qualified-name="BO" id="part1-tail"><text fill="#000000" font-family="sans-serif" font-size="20" font-style="italic" lengthAdjust="spacing" textLength="65.24" x="81.3099" y="2130.5786">&#171;Actor&#187;</text><text fill="#000000" font-family="sans-serif" font-size="20" lengthAdjust="spacing" textLength="187.8598" x="20" y="2157.8186">Backoffice Operator</text><ellipse cx="116.9299" cy="2172.1786" fill="#E2E2F0" rx="8" ry="8" style="stroke:#181818;stroke-width:0.5;"/><path d="M116.9299,2180.1786 L116.9299,2207.1786 M103.9299,2188.1786 L129.9299,2188.1786 M116.9299,2207.1786 L103.9299,2222.1786 M116.9299,2207.1786 L129.9299,2222.1786" fill="none" style="stroke:#181818;stroke-width:0.5;"/></g><g class="participant participant-head" data-entity-uid="part2" data-qualified-name="UI" id="part2-head"><rect fill="#E2E2F0" height="68.4799" rx="2.5" ry="2.5" style="stroke:#181818;stroke-width:0.5;" width="241.2797" x="265.1897" y="50"/><text fill="#000000" font-family="sans-serif" font-size="20" font-style="italic" lengthAdjust="spacing" textLength="39.1" x="366.2796" y="78.38">&#171;UI&#187;</text><text fill="#000000" font-family="sans-serif" font-size="20" lengthAdjust="spacing" textLength="227.2797" x="272.1897" y="105.62">RegisterAircraftModelUI</text></g><g class="participant participant-tail" data-entity-uid="part2" data-qualified-name="UI" id="part2-tail"><rect fill="#E2E2F0" height="68.4799" rx="2.5" ry="2.5" style="stroke:#181818;stroke-width:0.5;" width="241.2797" x="265.1897" y="2109.1986"/><text fill="#000000" font-family="sans-serif" font-size="20" font-style="italic" lengthAdjust="spacing" textLength="39.1" x="366.2796" y="2137.5786">&#171;UI&#187;</text><text fill="#000000" font-family="sans-serif" font-size="20" lengthAdjust="spacing" textLength="227.2797" x="272.1897" y="2164.8186">RegisterAircraftModelUI</text></g><g class="participant participant-head" data-entity-uid="part3" data-qualified-name="Ctrl" id="part3-head"><rect fill="#E2E2F0" height="68.4799" rx="2.5" ry="2.5" style="stroke:#181818;stroke-width:0.5;" width="298.7996" x="516.4695" y="50"/><text fill="#000000" font-family="sans-serif" font-size="20" font-style="italic" lengthAdjust="spacing" textLength="107.7799" x="611.9793" y="78.38">&#171;Controller&#187;</text><text fill="#000000" font-family="sans-serif" font-size="20" lengthAdjust="spacing" textLength="284.7996" x="523.4695" y="105.62">CreateAircraftModelController</text></g><g class="participant participant-tail" data-entity-uid="part3" data-qualified-name="Ctrl" id="part3-tail"><rect fill="#E2E2F0" height="68.4799" rx="2.5" ry="2.5" style="stroke:#181818;stroke-width:0.5;" width="298.7996" x="516.4695" y="2109.1986"/><text fill="#000000" font-family="sans-serif" font-size="20" font-style="italic" lengthAdjust="spacing" textLength="107.7799" x="611.9793" y="2137.5786">&#171;Controller&#187;</text><text fill="#000000" font-family="sans-serif" font-size="20" lengthAdjust="spacing" textLength="284.7996" x="523.4695" y="2164.8186">CreateAircraftModelController</text></g><g class="participant participant-head" data-entity-uid="part4" data-qualified-name="Svc" id="part4-head"><rect fill="#E2E2F0" height="68.4799" rx="2.5" ry="2.5" style="stroke:#181818;stroke-width:0.5;" width="209.0798" x="1047.749" y="50"/><text fill="#000000" font-family="sans-serif" font-size="20" font-style="italic" lengthAdjust="spacing" textLength="80.6599" x="1111.9589" y="78.38">&#171;Service&#187;</text><text fill="#000000" font-family="sans-serif" font-size="20" lengthAdjust="spacing" textLength="195.0798" x="1054.749" y="105.62">AircraftModelService</text></g><g class="participant participant-tail" data-entity-uid="part4" data-qualified-name="Svc" id="part4-tail"><rect fill="#E2E2F0" height="68.4799" rx="2.5" ry="2.5" style="stroke:#181818;stroke-width:0.5;" width="209.0798" x="1047.749" y="2109.1986"/><text fill="#000000" font-family="sans-serif" font-size="20" font-style="italic" lengthAdjust="spacing" textLength="80.6599" x="1111.9589" y="2137.5786">&#171;Service&#187;</text><text fill="#000000" font-family="sans-serif" font-size="20" lengthAdjust="spacing" textLength="195.0798" x="1054.749" y="2164.8186">AircraftModelService</text></g><g class="participant participant-head" data-entity-uid="part5" data-qualified-name="ManRepo" id="part5-head"><text fill="#000000" font-family="sans-serif" font-size="20" font-style="italic" lengthAdjust="spacing" textLength="112.3599" x="1361.8887" y="86.38">&#171;Repository&#187;</text><text fill="#000000" font-family="sans-serif" font-size="20" lengthAdjust="spacing" textLength="229.7997" x="1303.1688" y="113.62">ManufacturerRepository</text><path d="M1403.0686,29 C1403.0686,19 1421.0686,19 1421.0686,19 C1421.0686,19 1439.0686,19 1439.0686,29 L1439.0686,55 C1439.0686,65 1421.0686,65 1421.0686,65 C1421.0686,65 1403.0686,65 1403.0686,55 L1403.0686,29" fill="#E2E2F0" style="stroke:#181818;stroke-width:0.5;"/><path d="M1403.0686,29 C1403.0686,39 1421.0686,39 1421.0686,39 C1421.0686,39 1439.0686,39 1439.0686,29" fill="none" style="stroke:#181818;stroke-width:0.5;"/></g><g class="participant participant-tail" data-entity-uid="part5" data-qualified-name="ManRepo" id="part5-tail"><text fill="#000000" font-family="sans-serif" font-size="20" font-style="italic" lengthAdjust="spacing" textLength="112.3599" x="1361.8887" y="2130.5786">&#171;Repository&#187;</text><text fill="#000000" font-family="sans-serif" font-size="20" lengthAdjust="spacing" textLength="229.7997" x="1303.1688" y="2157.8186">ManufacturerRepository</text><path d="M1403.0686,2173.6786 C1403.0686,2163.6786 1421.0686,2163.6786 1421.0686,2163.6786 C1421.0686,2163.6786 1439.0686,2163.6786 1439.0686,2173.6786 L1439.0686,2199.6786 C1439.0686,2209.6786 1421.0686,2209.6786 1421.0686,2209.6786 C1421.0686,2209.6786 1403.0686,2209.6786 1403.0686,2199.6786 L1403.0686,2173.6786" fill="#E2E2F0" style="stroke:#181818;stroke-width:0.5;"/><path d="M1403.0686,2173.6786 C1403.0686,2183.6786 1421.0686,2183.6786 1421.0686,2183.6786 C1421.0686,2183.6786 1439.0686,2183.6786 1439.0686,2173.6786" fill="none" style="stroke:#181818;stroke-width:0.5;"/></g><g class="participant participant-head" data-entity-uid="part6" data-qualified-name="ModelRepo" id="part6-head"><text fill="#000000" font-family="sans-serif" font-size="20" font-style="italic" lengthAdjust="spacing" textLength="112.3599" x="1607.2884" y="86.38">&#171;Repository&#187;</text><text fill="#000000" font-family="sans-serif" font-size="20" lengthAdjust="spacing" textLength="228.9997" x="1548.9685" y="113.62">AircraftModelRepository</text><path d="M1648.4684,29 C1648.4684,19 1666.4684,19 1666.4684,19 C1666.4684,19 1684.4684,19 1684.4684,29 L1684.4684,55 C1684.4684,65 1666.4684,65 1666.4684,65 C1666.4684,65 1648.4684,65 1648.4684,55 L1648.4684,29" fill="#E2E2F0" style="stroke:#181818;stroke-width:0.5;"/><path d="M1648.4684,29 C1648.4684,39 1666.4684,39 1666.4684,39 C1666.4684,39 1684.4684,39 1684.4684,29" fill="none" style="stroke:#181818;stroke-width:0.5;"/></g><g class="participant participant-tail" data-entity-uid="part6" data-qualified-name="ModelRepo" id="part6-tail"><text fill="#000000" font-family="sans-serif" font-size="20" font-style="italic" lengthAdjust="spacing" textLength="112.3599" x="1607.2884" y="2130.5786">&#171;Repository&#187;</text><text fill="#000000" font-family="sans-serif" font-size="20" lengthAdjust="spacing" textLength="228.9997" x="1548.9685" y="2157.8186">AircraftModelRepository</text><path d="M1648.4684,2173.6786 C1648.4684,2163.6786 1666.4684,2163.6786 1666.4684,2163.6786 C1666.4684,2163.6786 1684.4684,2163.6786 1684.4684,2173.6786 L1684.4684,2199.6786 C1684.4684,2209.6786 1666.4684,2209.6786 1666.4684,2209.6786 C1666.4684,2209.6786 1648.4684,2209.6786 1648.4684,2199.6786 L1648.4684,2173.6786" fill="#E2E2F0" style="stroke:#181818;stroke-width:0.5;"/><path d="M1648.4684,2173.6786 C1648.4684,2183.6786 1666.4684,2183.6786 1666.4684,2183.6786 C1666.4684,2183.6786 1684.4684,2183.6786 1684.4684,2173.6786" fill="none" style="stroke:#181818;stroke-width:0.5;"/></g><g class="participant participant-head" data-entity-uid="part7" data-qualified-name="EngRepo" id="part7-head"><text fill="#000000" font-family="sans-serif" font-size="20" font-style="italic" lengthAdjust="spacing" textLength="112.3599" x="1849.8882" y="86.38">&#171;Repository&#187;</text><text fill="#000000" font-family="sans-serif" font-size="20" lengthAdjust="spacing" textLength="224.1998" x="1793.9683" y="113.62">EngineModelRepository</text><path d="M1891.0681,29 C1891.0681,19 1909.0681,19 1909.0681,19 C1909.0681,19 1927.0681,19 1927.0681,29 L1927.0681,55 C1927.0681,65 1909.0681,65 1909.0681,65 C1909.0681,65 1891.0681,65 1891.0681,55 L1891.0681,29" fill="#E2E2F0" style="stroke:#181818;stroke-width:0.5;"/><path d="M1891.0681,29 C1891.0681,39 1909.0681,39 1909.0681,39 C1909.0681,39 1927.0681,39 1927.0681,29" fill="none" style="stroke:#181818;stroke-width:0.5;"/></g><g class="participant participant-tail" data-entity-uid="part7" data-qualified-name="EngRepo" id="part7-tail"><text fill="#000000" font-family="sans-serif" font-size="20" font-style="italic" lengthAdjust="spacing" textLength="112.3599" x="1849.8882" y="2130.5786">&#171;Repository&#187;</text><text fill="#000000" font-family="sans-serif" font-size="20" lengthAdjust="spacing" textLength="224.1998" x="1793.9683" y="2157.8186">EngineModelRepository</text><path d="M1891.0681,2173.6786 C1891.0681,2163.6786 1909.0681,2163.6786 1909.0681,2163.6786 C1909.0681,2163.6786 1927.0681,2163.6786 1927.0681,2173.6786 L1927.0681,2199.6786 C1927.0681,2209.6786 1909.0681,2209.6786 1909.0681,2209.6786 C1909.0681,2209.6786 1891.0681,2209.6786 1891.0681,2199.6786 L1891.0681,2173.6786" fill="#E2E2F0" style="stroke:#181818;stroke-width:0.5;"/><path d="M1891.0681,2173.6786 C1891.0681,2183.6786 1909.0681,2183.6786 1909.0681,2183.6786 C1909.0681,2183.6786 1927.0681,2183.6786 1927.0681,2173.6786" fill="none" style="stroke:#181818;stroke-width:0.5;"/></g><g class="participant participant-head" data-entity-uid="part8" data-qualified-name="AM" id="part8-head"><rect fill="#E2E2F0" height="68.4799" rx="2.5" ry="2.5" style="stroke:#181818;stroke-width:0.5;" width="170.7999" x="2034.168" y="50"/><text fill="#000000" font-family="sans-serif" font-size="20" font-style="italic" lengthAdjust="spacing" textLength="156.7999" x="2041.168" y="78.38">&#171;Aggregate Root&#187;</text><text fill="#000000" font-family="sans-serif" font-size="20" lengthAdjust="spacing" textLength="128.3598" x="2055.388" y="105.62">AircraftModel</text></g><g class="participant participant-tail" data-entity-uid="part8" data-qualified-name="AM" id="part8-tail"><rect fill="#E2E2F0" height="68.4799" rx="2.5" ry="2.5" style="stroke:#181818;stroke-width:0.5;" width="170.7999" x="2034.168" y="2109.1986"/><text fill="#000000" font-family="sans-serif" font-size="20" font-style="italic" lengthAdjust="spacing" textLength="156.7999" x="2041.168" y="2137.5786">&#171;Aggregate Root&#187;</text><text fill="#000000" font-family="sans-serif" font-size="20" lengthAdjust="spacing" textLength="128.3598" x="2055.388" y="2164.8186">AircraftModel</text></g><g class="participant participant-tail" data-entity-uid="part9" data-qualified-name="EC" id="part9-tail"><rect fill="#E2E2F0" height="68.4799" rx="2.5" ry="2.5" style="stroke:#181818;stroke-width:0.5;" width="208.6998" x="2542.6275" y="2109.1986"/><text fill="#000000" font-family="sans-serif" font-size="20" font-style="italic" lengthAdjust="spacing" textLength="68.7199" x="2612.6174" y="2137.5786">&#171;Entity&#187;</text><text fill="#000000" font-family="sans-serif" font-size="20" lengthAdjust="spacing" textLength="194.6998" x="2549.6275" y="2164.8186">EngineConfiguration</text></g><g><title>..UI..</title><rect fill="#FFFFFF" height="1937.4787" style="stroke:#181818;stroke-width:1;" width="10" x="380.8296" y="162.7199"/></g><g><title>..Controller..</title><rect fill="#FFFFFF" height="1896.2387" style="stroke:#181818;stroke-width:1;" width="10" x="660.8693" y="203.9599"/></g><g><title>..Service..</title><rect fill="#FFFFFF" height="1801.7588" style="stroke:#181818;stroke-width:1;" width="10" x="1147.2889" y="299.4398"/></g><g><title>..Repository..</title><rect fill="#FFFFFF" height="41.24" style="stroke:#181818;stroke-width:1;" width="10" x="1416.0686" y="340.6798"/></g><g><title>..Repository..</title><rect fill="#FFFFFF" height="41.24" style="stroke:#181818;stroke-width:1;" width="10" x="1661.4684" y="542.1197"/></g><g><title>..Repository..</title><rect fill="#FFFFFF" height="216.4398" style="stroke:#181818;stroke-width:1;" width="10" x="1661.4684" y="1537.599"/></g><g><title>..Repository..</title><rect fill="#FFFFFF" height="41.24" style="stroke:#181818;stroke-width:1;" width="10" x="1904.0681" y="792.0395"/></g><g><title>..Aggregate Root..</title><rect fill="#FFFFFF" height="122.7199" style="stroke:#181818;stroke-width:1;" width="10" x="2114.5679" y="978.2393"/></g><g><title>..Aggregate Root..</title><rect fill="#FFFFFF" height="161.9599" style="stroke:#181818;stroke-width:1;" width="10" x="2114.5679" y="1190.6792"/></g><g><title>..Aggregate Root..</title><rect fill="#FFFFFF" height="95.4799" style="stroke:#181818;stroke-width:1;" width="10" x="2114.5679" y="1400.8791"/></g><g><title>..Entity..</title><rect fill="#FFFFFF" height="69.4799" style="stroke:#181818;stroke-width:1;" width="10" x="2641.9774" y="1241.9192"/></g><g class="message" data-entity-1="part1" data-entity-2="part2" id="msg1"><polygon fill="#181818" points="368.8296,158.7199,378.8296,162.7199,368.8296,166.7199,372.8296,162.7199" style="stroke:#181818;stroke-width:1;"/><line style="stroke:#181818;stroke-width:1;" x1="116.9299" x2="374.8296" y1="162.7199" y2="162.7199"/><text fill="#000000" font-family="sans-serif" font-size="20" lengthAdjust="spacing" textLength="244.8997" x="123.9299" y="154.8599">enters aircraft model data</text></g><g class="message" data-entity-1="part2" data-entity-2="part3" id="msg2"><polygon fill="#181818" points="648.8693,199.9599,658.8693,203.9599,648.8693,207.9599,652.8693,203.9599" style="stroke:#181818;stroke-width:1;"/><line style="stroke:#181818;stroke-width:1;" x1="390.8296" x2="654.8693" y1="203.9599" y2="203.9599"/><text fill="#000000" font-family="sans-serif" font-size="20" lengthAdjust="spacing" textLength="215.2998" x="397.8296" y="196.0999">createAircraftModel(...)</text></g><g class="message" data-entity-1="part3" data-entity-2="part3" id="msg3"><line style="stroke:#181818;stroke-width:1;" x1="670.8693" x2="712.8693" y1="245.1999" y2="245.1999"/><line style="stroke:#181818;stroke-width:1;" x1="712.8693" x2="712.8693" y1="245.1999" y2="258.1999"/><line style="stroke:#181818;stroke-width:1;" x1="671.8693" x2="712.8693" y1="258.1999" y2="258.1999"/><polygon fill="#181818" points="681.8693,254.1999,671.8693,258.1999,681.8693,262.1999,677.8693,258.1999" style="stroke:#181818;stroke-width:1;"/><text fill="#000000" font-family="sans-serif" font-size="20" lengthAdjust="spacing" textLength="452.4196" x="677.8693" y="237.3399">ensure role (ADMIN or BACKOFFICE_OPERATOR)</text></g><g class="message" data-entity-1="part3" data-entity-2="part4" id="msg4"><polygon fill="#181818" points="1135.2889,295.4398,1145.2889,299.4398,1135.2889,303.4398,1139.2889,299.4398" style="stroke:#181818;stroke-width:1;"/><line style="stroke:#181818;stroke-width:1;" x1="670.8693" x2="1141.2889" y1="299.4398" y2="299.4398"/><text fill="#000000" font-family="sans-serif" font-size="20" lengthAdjust="spacing" textLength="215.2998" x="677.8693" y="291.5799">createAircraftModel(...)</text></g><g class="message" data-entity-1="part4" data-entity-2="part5" id="msg5"><polygon fill="#181818" points="1404.0686,336.6798,1414.0686,340.6798,1404.0686,344.6798,1408.0686,340.6798" style="stroke:#181818;stroke-width:1;"/><line style="stroke:#181818;stroke-width:1;" x1="1157.2889" x2="1410.0686" y1="340.6798" y2="340.6798"/><text fill="#000000" font-family="sans-serif" font-size="20" lengthAdjust="spacing" textLength="239.7798" x="1164.2889" y="332.8198">findById(manufacturerId)</text></g><g class="message" data-entity-1="part5" data-entity-2="part4" id="msg6"><polygon fill="#181818" points="1168.2889,377.9198,1158.2889,381.9198,1168.2889,385.9198,1164.2889,381.9198" style="stroke:#181818;stroke-width:1;"/><line style="stroke:#181818;stroke-width:1;stroke-dasharray:2,2;" x1="1162.2889" x2="1420.0686" y1="381.9198" y2="381.9198"/><text fill="#000000" font-family="sans-serif" font-size="20" lengthAdjust="spacing" textLength="138.3998" x="1174.2889" y="374.0598">manufacturer?</text></g><path d="M476.4695,396.9198 L548.0894,396.9198 L548.0894,416.1598 L538.0894,426.1598 L476.4695,426.1598 L476.4695,396.9198" fill="#EEEEEE" style="stroke:#000000;stroke-width:1.5;"/><rect fill="none" height="1364.119" style="stroke:#000000;stroke-width:1.5;" width="2304.8578" x="476.4695" y="396.9198"/><text fill="#000000" font-family="sans-serif" font-size="20" font-weight="bold" lengthAdjust="spacing" textLength="26.62" x="491.4695" y="419.2998">alt</text><text fill="#000000" font-family="sans-serif" font-size="20" font-weight="bold" lengthAdjust="spacing" textLength="255.7197" x="563.0894" y="420.2998">[manufacturer not found]</text><g class="message" data-entity-1="part4" data-entity-2="part3" id="msg7"><polygon fill="#181818" points="681.8693,467.6397,671.8693,471.6397,681.8693,475.6397,677.8693,471.6397" style="stroke:#181818;stroke-width:1;"/><line style="stroke:#181818;stroke-width:1;stroke-dasharray:2,2;" x1="675.8693" x2="1146.2889" y1="471.6397" y2="471.6397"/><text fill="#000000" font-family="sans-serif" font-size="20" lengthAdjust="spacing" textLength="375.7595" x="687.8693" y="463.7797">throw ManufacturerNotFoundException</text></g><line style="stroke:#000000;stroke-width:1;stroke-dasharray:2,2;" x1="476.4695" x2="2781.3273" y1="480.6397" y2="480.6397"/><text fill="#000000" font-family="sans-serif" font-size="20" font-weight="bold" lengthAdjust="spacing" textLength="71.4799" x="481.4695" y="502.0197">[exists]</text><g class="message" data-entity-1="part4" data-entity-2="part6" id="msg8"><polygon fill="#181818" points="1649.4684,538.1197,1659.4684,542.1197,1649.4684,546.1197,1653.4684,542.1197" style="stroke:#181818;stroke-width:1;"/><line style="stroke:#181818;stroke-width:1;" x1="1157.2889" x2="1655.4684" y1="542.1197" y2="542.1197"/><text fill="#000000" font-family="sans-serif" font-size="20" lengthAdjust="spacing" textLength="449.4395" x="1164.2889" y="534.2597">existsByNameAndManufacturer(name, manuId)</text></g><g class="message" data-entity-1="part6" data-entity-2="part4" id="msg9"><polygon fill="#181818" points="1168.2889,579.3596,1158.2889,583.3596,1168.2889,587.3596,1164.2889,583.3596" style="stroke:#181818;stroke-width:1;"/><line style="stroke:#181818;stroke-width:1;stroke-dasharray:2,2;" x1="1162.2889" x2="1665.4684" y1="583.3596" y2="583.3596"/><text fill="#000000" font-family="sans-serif" font-size="20" lengthAdjust="spacing" textLength="62.0799" x="1174.2889" y="575.4997">exists?</text></g><path d="M486.4695,598.3596 L558.0894,598.3596 L558.0894,617.5996 L548.0894,627.5996 L486.4695,627.5996 L486.4695,598.3596" fill="#EEEEEE" style="stroke:#000000;stroke-width:1.5;"/><rect fill="none" height="1155.6792" style="stroke:#000000;stroke-width:1.5;" width="2284.8578" x="486.4695" y="598.3596"/><text fill="#000000" font-family="sans-serif" font-size="20" font-weight="bold" lengthAdjust="spacing" textLength="26.62" x="501.4695" y="620.7396">alt</text><text fill="#000000" font-family="sans-serif" font-size="20" font-weight="bold" lengthAdjust="spacing" textLength="151.5399" x="573.0894" y="621.7396">[already exists]</text><g class="message" data-entity-1="part4" data-entity-2="part3" id="msg10"><polygon fill="#181818" points="681.8693,669.0796,671.8693,673.0796,681.8693,677.0796,677.8693,673.0796" style="stroke:#181818;stroke-width:1;"/><line style="stroke:#181818;stroke-width:1;stroke-dasharray:2,2;" x1="675.8693" x2="1146.2889" y1="673.0796" y2="673.0796"/><text fill="#000000" font-family="sans-serif" font-size="20" lengthAdjust="spacing" textLength="405.3795" x="687.8693" y="665.2196">throw AircraftModelAlreadyExistsException</text></g><line style="stroke:#000000;stroke-width:1;stroke-dasharray:2,2;" x1="486.4695" x2="2771.3273" y1="682.0796" y2="682.0796"/><text fill="#000000" font-family="sans-serif" font-size="20" font-weight="bold" lengthAdjust="spacing" textLength="82.7999" x="491.4695" y="703.4596">[unique]</text><path d="M496.4695,717.3195 L585.0694,717.3195 L585.0694,736.5595 L575.0694,746.5595 L496.4695,746.5595 L496.4695,717.3195" fill="#EEEEEE" style="stroke:#000000;stroke-width:1.5;"/><rect fill="none" height="220.6798" style="stroke:#000000;stroke-width:1.5;" width="1537.6985" x="496.4695" y="717.3195"/><text fill="#000000" font-family="sans-serif" font-size="20" font-weight="bold" lengthAdjust="spacing" textLength="43.5999" x="511.4695" y="739.6995">loop</text><text fill="#000000" font-family="sans-serif" font-size="20" font-weight="bold" lengthAdjust="spacing" textLength="229.7198" x="600.0694" y="740.6995">[for each EngineModel]</text><g class="message" data-entity-1="part4" data-entity-2="part7" id="msg11"><polygon fill="#181818" points="1892.0681,788.0395,1902.0681,792.0395,1892.0681,796.0395,1896.0681,792.0395" style="stroke:#181818;stroke-width:1;"/><line style="stroke:#181818;stroke-width:1;" x1="1157.2889" x2="1898.0681" y1="792.0395" y2="792.0395"/><text fill="#000000" font-family="sans-serif" font-size="20" lengthAdjust="spacing" textLength="292.7597" x="1164.2889" y="784.1795">findByModelId(engineModelId)</text></g><g class="message" data-entity-1="part7" data-entity-2="part4" id="msg12"><polygon fill="#181818" points="1168.2889,829.2794,1158.2889,833.2794,1168.2889,837.2794,1164.2889,833.2794" style="stroke:#181818;stroke-width:1;"/><line style="stroke:#181818;stroke-width:1;stroke-dasharray:2,2;" x1="1162.2889" x2="1908.0681" y1="833.2794" y2="833.2794"/><text fill="#000000" font-family="sans-serif" font-size="20" lengthAdjust="spacing" textLength="73.4199" x="1174.2889" y="825.4195">engine?</text></g><path d="M506.4695,848.2794 L578.0894,848.2794 L578.0894,867.5194 L568.0894,877.5194 L506.4695,877.5194 L506.4695,848.2794" fill="#EEEEEE" style="stroke:#000000;stroke-width:1.5;"/><rect fill="none" height="82.7199" style="stroke:#000000;stroke-width:1.5;" width="760.3593" x="506.4695" y="848.2794"/><text fill="#000000" font-family="sans-serif" font-size="20" font-weight="bold" lengthAdjust="spacing" textLength="26.62" x="521.4695" y="870.6594">alt</text><text fill="#000000" font-family="sans-serif" font-size="20" font-weight="bold" lengthAdjust="spacing" textLength="111.4999" x="593.0894" y="871.6594">[not found]</text><g class="message" data-entity-1="part4" data-entity-2="part3" id="msg13"><polygon fill="#181818" points="681.8693,918.9994,671.8693,922.9994,681.8693,926.9994,677.8693,922.9994" style="stroke:#181818;stroke-width:1;"/><line style="stroke:#181818;stroke-width:1;stroke-dasharray:2,2;" x1="675.8693" x2="1146.2889" y1="922.9994" y2="922.9994"/><text fill="#000000" font-family="sans-serif" font-size="20" lengthAdjust="spacing" textLength="370.1595" x="687.8693" y="915.1394">throw EngineModelNotFoundException</text></g><g class="message" data-entity-1="part4" data-entity-2="part8" id="msg14"><polygon fill="#181818" points="2102.5679,974.2393,2112.5679,978.2393,2102.5679,982.2393,2106.5679,978.2393" style="stroke:#181818;stroke-width:1;"/><line style="stroke:#181818;stroke-width:1;" x1="1157.2889" x2="2108.5679" y1="978.2393" y2="978.2393"/><text fill="#000000" font-family="sans-serif" font-size="20" lengthAdjust="spacing" textLength="200.9998" x="1164.2889" y="970.3794">new AircraftModel(...)</text></g><g class="message" data-entity-1="part8" data-entity-2="part8" id="msg15"><line style="stroke:#181818;stroke-width:1;" x1="2124.5679" x2="2166.5679" y1="1046.7193" y2="1046.7193"/><line style="stroke:#181818;stroke-width:1;" x1="2166.5679" x2="2166.5679" y1="1046.7193" y2="1059.7193"/><line style="stroke:#181818;stroke-width:1;" x1="2125.5679" x2="2166.5679" y1="1059.7193" y2="1059.7193"/><polygon fill="#181818" points="2135.5679,1055.7193,2125.5679,1059.7193,2135.5679,1063.7193,2131.5679,1059.7193" style="stroke:#181818;stroke-width:1;"/><text fill="#000000" font-family="sans-serif" font-size="20" lengthAdjust="spacing" textLength="300.3196" x="2131.5679" y="1011.6193">validates: non-null components,</text><text fill="#000000" font-family="sans-serif" font-size="20" lengthAdjust="spacing" textLength="269.9197" x="2131.5679" y="1038.8593">weight order, positive values</text></g><g class="message" data-entity-1="part8" data-entity-2="part4" id="msg16"><polygon fill="#181818" points="1168.2889,1096.9593,1158.2889,1100.9593,1168.2889,1104.9593,1164.2889,1100.9593" style="stroke:#181818;stroke-width:1;"/><line style="stroke:#181818;stroke-width:1;stroke-dasharray:2,2;" x1="1162.2889" x2="2118.5679" y1="1100.9593" y2="1100.9593"/><text fill="#000000" font-family="sans-serif" font-size="20" lengthAdjust="spacing" textLength="177.5598" x="1174.2889" y="1093.0993">valid AircraftModel</text></g><path d="M1037.749,1115.9593 L1126.3489,1115.9593 L1126.3489,1135.1992 L1116.3489,1145.1992 L1037.749,1145.1992 L1037.749,1115.9593" fill="#EEEEEE" style="stroke:#000000;stroke-width:1.5;"/><rect fill="none" height="244.6798" style="stroke:#000000;stroke-width:1.5;" width="1723.5783" x="1037.749" y="1115.9593"/><text fill="#000000" font-family="sans-serif" font-size="20" font-weight="bold" lengthAdjust="spacing" textLength="43.5999" x="1052.749" y="1138.3393">loop</text><text fill="#000000" font-family="sans-serif" font-size="20" font-weight="bold" lengthAdjust="spacing" textLength="250.8797" x="1141.3489" y="1139.3393">[for each engineModelId]</text><g class="message" data-entity-1="part4" data-entity-2="part8" id="msg17"><polygon fill="#181818" points="2102.5679,1186.6792,2112.5679,1190.6792,2102.5679,1194.6792,2106.5679,1190.6792" style="stroke:#181818;stroke-width:1;"/><line style="stroke:#181818;stroke-width:1;" x1="1157.2889" x2="2108.5679" y1="1190.6792" y2="1190.6792"/><text fill="#000000" font-family="sans-serif" font-size="20" lengthAdjust="spacing" textLength="385.3195" x="1164.2889" y="1182.8192">addEngineConfiguration(engineModelId)</text></g><g class="message" data-entity-1="part8" data-entity-2="part9" id="msg18"><polygon fill="#181818" points="2530.6275,1227.9192,2540.6275,1231.9192,2530.6275,1235.9192,2534.6275,1231.9192" style="stroke:#181818;stroke-width:1;"/><line style="stroke:#181818;stroke-width:1;" x1="2124.5679" x2="2536.6275" y1="1231.9192" y2="1231.9192"/><text fill="#000000" font-family="sans-serif" font-size="20" lengthAdjust="spacing" textLength="394.0595" x="2131.5679" y="1224.0592">new EngineConfiguration(engineModelId)</text></g><rect fill="#E2E2F0" height="68.4799" rx="2.5" ry="2.5" style="stroke:#181818;stroke-width:0.5;" width="208.6998" x="2542.6275" y="1198.6792"/><text fill="#000000" font-family="sans-serif" font-size="20" font-style="italic" lengthAdjust="spacing" textLength="68.7199" x="2612.6174" y="1227.0592">&#171;Entity&#187;</text><text fill="#000000" font-family="sans-serif" font-size="20" lengthAdjust="spacing" textLength="194.6998" x="2549.6275" y="1254.2992">EngineConfiguration</text><g class="message" data-entity-1="part9" data-entity-2="part8" id="msg20"><polygon fill="#181818" points="2135.5679,1307.3991,2125.5679,1311.3991,2135.5679,1315.3991,2131.5679,1311.3991" style="stroke:#181818;stroke-width:1;"/><line style="stroke:#181818;stroke-width:1;stroke-dasharray:2,2;" x1="2129.5679" x2="2645.9774" y1="1311.3991" y2="1311.3991"/><text fill="#000000" font-family="sans-serif" font-size="20" lengthAdjust="spacing" textLength="102.5999" x="2141.5679" y="1303.5391">configured</text></g><g class="message" data-entity-1="part8" data-entity-2="part4" id="msg21"><polygon fill="#181818" points="1168.2889,1348.6391,1158.2889,1352.6391,1168.2889,1356.6391,1164.2889,1352.6391" style="stroke:#181818;stroke-width:1;"/><line style="stroke:#181818;stroke-width:1;stroke-dasharray:2,2;" x1="1162.2889" x2="2118.5679" y1="1352.6391" y2="1352.6391"/><text fill="#000000" font-family="sans-serif" font-size="20" lengthAdjust="spacing" textLength="191.6798" x="1174.2889" y="1344.7791">configuration added</text></g><g class="message" data-entity-1="part4" data-entity-2="part8" id="msg22"><polygon fill="#181818" points="2102.5679,1396.8791,2112.5679,1400.8791,2102.5679,1404.8791,2106.5679,1400.8791" style="stroke:#181818;stroke-width:1;"/><line style="stroke:#181818;stroke-width:1;" x1="1157.2889" x2="2108.5679" y1="1400.8791" y2="1400.8791"/><text fill="#000000" font-family="sans-serif" font-size="20" lengthAdjust="spacing" textLength="206.9798" x="1164.2889" y="1393.0191">validateEngineCount()</text></g><g class="message" data-entity-1="part8" data-entity-2="part8" id="msg23"><line style="stroke:#181818;stroke-width:1;" x1="2124.5679" x2="2166.5679" y1="1442.119" y2="1442.119"/><line style="stroke:#181818;stroke-width:1;" x1="2166.5679" x2="2166.5679" y1="1442.119" y2="1455.119"/><line style="stroke:#181818;stroke-width:1;" x1="2125.5679" x2="2166.5679" y1="1455.119" y2="1455.119"/><polygon fill="#181818" points="2135.5679,1451.119,2125.5679,1455.119,2135.5679,1459.119,2131.5679,1455.119" style="stroke:#181818;stroke-width:1;"/><text fill="#000000" font-family="sans-serif" font-size="20" lengthAdjust="spacing" textLength="329.2596" x="2131.5679" y="1434.2591">assert: certifiedConfigurations &gt;= 1</text></g><g class="message" data-entity-1="part8" data-entity-2="part4" id="msg24"><polygon fill="#181818" points="1168.2889,1492.359,1158.2889,1496.359,1168.2889,1500.359,1164.2889,1496.359" style="stroke:#181818;stroke-width:1;"/><line style="stroke:#181818;stroke-width:1;stroke-dasharray:2,2;" x1="1162.2889" x2="2118.5679" y1="1496.359" y2="1496.359"/><text fill="#000000" font-family="sans-serif" font-size="20" lengthAdjust="spacing" textLength="163.5198" x="1174.2889" y="1488.499">validation passed</text></g><g class="message" data-entity-1="part4" data-entity-2="part6" id="msg25"><polygon fill="#181818" points="1649.4684,1533.599,1659.4684,1537.599,1649.4684,1541.599,1653.4684,1537.599" style="stroke:#181818;stroke-width:1;"/><line style="stroke:#181818;stroke-width:1;" x1="1157.2889" x2="1655.4684" y1="1537.599" y2="1537.599"/><text fill="#000000" font-family="sans-serif" font-size="20" lengthAdjust="spacing" textLength="181.0398" x="1164.2889" y="1529.739">save(aircraftModel)</text></g><path d="M506.4695,1552.599 L578.0894,1552.599 L578.0894,1571.839 L568.0894,1581.839 L506.4695,1581.839 L506.4695,1552.599" fill="#EEEEEE" style="stroke:#000000;stroke-width:1.5;"/><rect fill="none" height="194.4398" style="stroke:#000000;stroke-width:1.5;" width="1287.4988" x="506.4695" y="1552.599"/><text fill="#000000" font-family="sans-serif" font-size="20" font-weight="bold" lengthAdjust="spacing" textLength="26.62" x="521.4695" y="1574.979">alt</text><text fill="#000000" font-family="sans-serif" font-size="20" font-weight="bold" lengthAdjust="spacing" textLength="193.6998" x="593.0894" y="1575.979">[integrity violation]</text><g class="message" data-entity-1="part6" data-entity-2="part4" id="msg26"><polygon fill="#181818" points="1168.2889,1623.3189,1158.2889,1627.3189,1168.2889,1631.3189,1164.2889,1627.3189" style="stroke:#181818;stroke-width:1;"/><line style="stroke:#181818;stroke-width:1;stroke-dasharray:2,2;" x1="1162.2889" x2="1660.4684" y1="1627.3189" y2="1627.3189"/><text fill="#000000" font-family="sans-serif" font-size="20" lengthAdjust="spacing" textLength="315.8396" x="1174.2889" y="1619.4589">throw IntegrityViolationException</text></g><g class="message" data-entity-1="part4" data-entity-2="part3" id="msg27"><polygon fill="#181818" points="681.8693,1664.5589,671.8693,1668.5589,681.8693,1672.5589,677.8693,1668.5589" style="stroke:#181818;stroke-width:1;"/><line style="stroke:#181818;stroke-width:1;stroke-dasharray:2,2;" x1="675.8693" x2="1146.2889" y1="1668.5589" y2="1668.5589"/><text fill="#000000" font-family="sans-serif" font-size="20" lengthAdjust="spacing" textLength="405.3795" x="687.8693" y="1660.6989">throw AircraftModelAlreadyExistsException</text></g><line style="stroke:#000000;stroke-width:1;stroke-dasharray:2,2;" x1="506.4695" x2="1793.9683" y1="1677.5589" y2="1677.5589"/><text fill="#000000" font-family="sans-serif" font-size="20" font-weight="bold" lengthAdjust="spacing" textLength="88.9399" x="511.4695" y="1698.9389">[success]</text><g class="message" data-entity-1="part6" data-entity-2="part4" id="msg28"><polygon fill="#181818" points="1168.2889,1735.0388,1158.2889,1739.0388,1168.2889,1743.0388,1164.2889,1739.0388" style="stroke:#181818;stroke-width:1;"/><line style="stroke:#181818;stroke-width:1;stroke-dasharray:2,2;" x1="1162.2889" x2="1660.4684" y1="1739.0388" y2="1739.0388"/><text fill="#000000" font-family="sans-serif" font-size="20" lengthAdjust="spacing" textLength="86.9599" x="1174.2889" y="1731.1789">persisted</text></g><path d="M10,1775.0388 L81.62,1775.0388 L81.62,1794.2788 L71.62,1804.2788 L10,1804.2788 L10,1775.0388" fill="#EEEEEE" style="stroke:#000000;stroke-width:1.5;"/><rect fill="none" height="318.1598" style="stroke:#000000;stroke-width:1.5;" width="1256.8288" x="10" y="1775.0388"/><text fill="#000000" font-family="sans-serif" font-size="20" font-weight="bold" lengthAdjust="spacing" textLength="26.62" x="25" y="1797.4188">alt</text><text fill="#000000" font-family="sans-serif" font-size="20" font-weight="bold" lengthAdjust="spacing" textLength="88.9399" x="96.62" y="1798.4188">[success]</text><g class="message" data-entity-1="part4" data-entity-2="part3" id="msg29"><polygon fill="#181818" points="681.8693,1845.7588,671.8693,1849.7588,681.8693,1853.7588,677.8693,1849.7588" style="stroke:#181818;stroke-width:1;"/><line style="stroke:#181818;stroke-width:1;stroke-dasharray:2,2;" x1="675.8693" x2="1146.2889" y1="1849.7588" y2="1849.7588"/><text fill="#000000" font-family="sans-serif" font-size="20" lengthAdjust="spacing" textLength="128.3598" x="687.8693" y="1841.8988">AircraftModel</text></g><g class="message" data-entity-1="part3" data-entity-2="part2" id="msg30"><polygon fill="#181818" points="401.8296,1886.9987,391.8296,1890.9987,401.8296,1894.9987,397.8296,1890.9987" style="stroke:#181818;stroke-width:1;"/><line style="stroke:#181818;stroke-width:1;stroke-dasharray:2,2;" x1="395.8296" x2="659.8693" y1="1890.9987" y2="1890.9987"/><text fill="#000000" font-family="sans-serif" font-size="20" lengthAdjust="spacing" textLength="128.3598" x="407.8296" y="1883.1388">AircraftModel</text></g><g class="message" data-entity-1="part2" data-entity-2="part1" id="msg31"><polygon fill="#181818" points="127.9299,1928.2387,117.9299,1932.2387,127.9299,1936.2387,123.9299,1932.2387" style="stroke:#181818;stroke-width:1;"/><line style="stroke:#181818;stroke-width:1;stroke-dasharray:2,2;" x1="121.9299" x2="379.8296" y1="1932.2387" y2="1932.2387"/><text fill="#000000" font-family="sans-serif" font-size="20" lengthAdjust="spacing" textLength="71.5799" x="133.9299" y="1924.3787">success</text></g><line style="stroke:#000000;stroke-width:1;stroke-dasharray:2,2;" x1="10" x2="1266.8288" y1="1941.2387" y2="1941.2387"/><text fill="#000000" font-family="sans-serif" font-size="20" font-weight="bold" lengthAdjust="spacing" textLength="64.4999" x="15" y="1962.6187">[error]</text><g class="message" data-entity-1="part4" data-entity-2="part3" id="msg32"><polygon fill="#181818" points="681.8693,1998.7187,671.8693,2002.7187,681.8693,2006.7187,677.8693,2002.7187" style="stroke:#181818;stroke-width:1;"/><line style="stroke:#181818;stroke-width:1;stroke-dasharray:2,2;" x1="675.8693" x2="1146.2889" y1="2002.7187" y2="2002.7187"/><text fill="#000000" font-family="sans-serif" font-size="20" lengthAdjust="spacing" textLength="91.8799" x="687.8693" y="1994.8587">exception</text></g><g class="message" data-entity-1="part3" data-entity-2="part2" id="msg33"><polygon fill="#181818" points="401.8296,2039.9586,391.8296,2043.9586,401.8296,2047.9586,397.8296,2043.9586" style="stroke:#181818;stroke-width:1;"/><line style="stroke:#181818;stroke-width:1;stroke-dasharray:2,2;" x1="395.8296" x2="659.8693" y1="2043.9586" y2="2043.9586"/><text fill="#000000" font-family="sans-serif" font-size="20" lengthAdjust="spacing" textLength="204.8598" x="407.8296" y="2036.0987">propagates exception</text></g><g class="message" data-entity-1="part2" data-entity-2="part1" id="msg34"><polygon fill="#181818" points="127.9299,2081.1986,117.9299,2085.1986,127.9299,2089.1986,123.9299,2085.1986" style="stroke:#181818;stroke-width:1;"/><line style="stroke:#181818;stroke-width:1;stroke-dasharray:2,2;" x1="121.9299" x2="379.8296" y1="2085.1986" y2="2085.1986"/><text fill="#000000" font-family="sans-serif" font-size="20" lengthAdjust="spacing" textLength="137.2999" x="133.9299" y="2077.3386">error message</text></g><?plantuml-src fLPDRziu4BthLn0vkKKIxFPej0vahGC82yU5K_Uqm88LHmeHcLH9octwwpkaJ8cKv3ROpI58o7blPjvyYFgPYuOgUgnbyGoCC2XfMvjxASmZ_m7atHy9BOnKv6fDYsTPbhm0icj0KJoy8bIJzOwyVvzQczKgGIh32zvGOSZL7Ygk3QYKgqBHqcmbW_gGEzGXHzGX7qCo1TH01CWm52Nh6ZftcL4rGeVJCKK4VWHrmeWTyl5K8F1yWYX63Vr2DP2hBHLjYMcs2jGU6gavPlFYG7XbJn0uN4JOoDqOxCykmpUYuWBcm7Wp1xsSgqEbMrkDgb9GeP1aBwKPWpgNA639gnRhoANe76O8tGZ3ZVMJO5rlLhPEIm82gwW9FNiZH-kEs2HiS_2JzNJ8amID4U8gj2J5j9IBszlRDmF46YQ9CnzW83IMWM1jWIpIlxRv0y7kMwVPtxlx-ppR_BlxkDcddtRxDmFKLlOr3j4kIQmnOdnXbwJaWgrVShOu1csGim1tjaqyvgRt6KBk4WOJI49h4raH8GqfPIjOGl37HJDaRvwK_4R2VdoGE8nelVbUG6DhbK2DZGFVSRJqGB4Accrvlbs_FD0Zf8A5V0k1PzSk99kZ9HY2zXJkU20Syks8xznzc6qFx0WnPrfZETXB6EZ5VAEQfHrmut13rXRiCcy5_zf2JrXBsQ2UYc0qJoGOfzuYqCZFb2-wCyJAmm3pelYVFiSpDhhqV850ZkakiWg4yYIn2vGhxef9w6F5WZod3HAY8M2qVoSZHN1VB8c0KGswkPb8a6xxCyHvz8dM77S1Q2IIuaQqTKqAUMoamBsXh_yHtu1NJmR7c86w9cwNyHDON0iwOknbT9nnJCcCd1ZGXKQ8AZhN2YvqojZCDdnLEmHQ37fiihTlpth-LzvD5dTOvbHnqHPdCc0NsokR13Minp0Kc_bbcY2tYptZg-xpR8LPlBfbgDQW3CQ4ltd9WKKwQRBwGFxyHMDqAJIMXVskBMQsewOdMD2mjsO27wqqFwSSFuMLmayaEN5PqycypItDRcHpZ_piWVCJ-xysPBybTLiKeFLlOyENdBQFj7XBp6WQVnkiaMiDgqdeQnJzT8AxRxP_MKplxHi2R_7riUo9ko-UKbBD-O18WPY_KRAXzYMaHsQX6yTCZkY9Lj2b5IJkNYd1_uVy9m00?></g></svg>