<?plantuml 1.2026.2?><svg xmlns="http://www.w3.org/2000/svg" xmlns:xlink="http://www.w3.org/1999/xlink" contentStyleType="text/css" data-diagram-type="SEQUENCE" height="1862px" preserveAspectRatio="none" style="width:2300px;height:1862px;background:#FFFFFF;" version="1.1" viewBox="0 0 2300 1862" width="2300px" zoomAndPan="magnify"><title>FlightSimulationReport Aggregate</title><defs/><g><text fill="#000000" font-family="sans-serif" font-size="14" font-weight="bold" lengthAdjust="spacing" textLength="241.0231" x="1030.9572" y="29.9659">FlightSimulationReport Aggregate</text><g><title>SimulationUI</title><rect fill="#FFFFFF" height="1515.599" style="stroke:#181818;stroke-width:1;" width="10" x="404.3696" y="202.7878"/></g><g><title>SimulationController</title><rect fill="#FFFFFF" height="1378.6391" style="stroke:#181818;stroke-width:1;" width="10" x="731.9292" y="244.0278"/></g><g><title>FlightRepository</title><rect fill="#FFFFFF" height="41.24" style="stroke:#181818;stroke-width:1;" width="10" x="1090.0688" y="285.2678"/></g><g><title>FlightRepository</title><rect fill="#FFFFFF" height="41.24" style="stroke:#181818;stroke-width:1;" width="10" x="1090.0688" y="1318.7471"/></g><g><title>FlightSimulationReportRepository</title><rect fill="#FFFFFF" height="41.24" style="stroke:#181818;stroke-width:1;" width="10" x="1341.2985" y="1401.2271"/></g><g><title>Flight</title><rect fill="#FFFFFF" height="41.24" style="stroke:#181818;stroke-width:1;" width="10" x="1581.2682" y="367.7477"/></g><g><title>Flight</title><rect fill="#FFFFFF" height="41.24" style="stroke:#181818;stroke-width:1;" width="10" x="1581.2682" y="1126.5472"/></g><g><title>FlightPlan</title><rect fill="#FFFFFF" height="41.24" style="stroke:#181818;stroke-width:1;" width="10" x="1735.9981" y="450.2277"/></g><g><title>FlightPlan</title><rect fill="#FFFFFF" height="41.24" style="stroke:#181818;stroke-width:1;" width="10" x="1735.9981" y="1236.2672"/></g><g><title>FlightSimulationReport</title><rect fill="#FFFFFF" height="339.9198" style="stroke:#181818;stroke-width:1;" width="10" x="1937.6779" y="745.3875"/></g><g><title>C Simulator</title><rect fill="#FFFFFF" height="122.9599" style="stroke:#181818;stroke-width:1;" width="10" x="2217.4376" y="581.1876"/></g><rect fill="none" height="1219.9192" rx="2.5" ry="2.5" style="stroke:#000000;stroke-width:1.5;" width="2283.9375" x="10" y="506.4677"/><g class="participant-lifeline" data-entity-uid="part1" data-qualified-name="FCO" id="part1-lifeline"><g><title>Flight Control</title><rect fill="#000000" fill-opacity="0.00000" height="1583.839" width="8" x="82.8099" y="159.5479"/><line style="stroke:#181818;stroke-width:0.5;stroke-dasharray:5,5;" x1="86" x2="86" y1="159.5479" y2="1743.3868"/></g></g><g class="participant-lifeline" data-entity-uid="part2" data-qualified-name="UI" id="part2-lifeline"><g><title>SimulationUI</title><rect fill="#000000" fill-opacity="0.00000" height="1583.839" width="8" x="405.3696" y="159.5479"/><line style="stroke:#181818;stroke-width:0.5;stroke-dasharray:5,5;" x1="408.4596" x2="408.4596" y1="159.5479" y2="1743.3868"/></g></g><g class="participant-lifeline" data-entity-uid="part3" data-qualified-name="SC" id="part3-lifeline"><g><title>SimulationController</title><rect fill="#000000" fill-opacity="0.00000" height="1583.839" width="8" x="732.9292" y="159.5479"/><line style="stroke:#181818;stroke-width:0.5;stroke-dasharray:5,5;" x1="736.4493" x2="736.4493" y1="159.5479" y2="1743.3868"/></g></g><g class="participant-lifeline" data-entity-uid="part4" data-qualified-name="FR" id="part4-lifeline"><g><title>FlightRepository</title><rect fill="#000000" fill-opacity="0.00000" height="1583.839" width="8" x="1091.0688" y="159.5479"/><line style="stroke:#181818;stroke-width:0.5;stroke-dasharray:5,5;" x1="1094.4589" x2="1094.4589" y1="159.5479" y2="1743.3868"/></g></g><g class="participant-lifeline" data-entity-uid="part5" data-qualified-name="FSRR" id="part5-lifeline"><g><title>FlightSimulationReportRepository</title><rect fill="#000000" fill-opacity="0.00000" height="1583.839" width="8" x="1342.2985" y="159.5479"/><line style="stroke:#181818;stroke-width:0.5;stroke-dasharray:5,5;" x1="1345.6787" x2="1345.6787" y1="159.5479" y2="1743.3868"/></g></g><g class="participant-lifeline" data-entity-uid="part6" data-qualified-name="F" id="part6-lifeline"><g><title>Flight</title><rect fill="#000000" fill-opacity="0.00000" height="1583.839" width="8" x="1582.2682" y="159.5479"/><line style="stroke:#181818;stroke-width:0.5;stroke-dasharray:5,5;" x1="1585.9183" x2="1585.9183" y1="159.5479" y2="1743.3868"/></g></g><g class="participant-lifeline" data-entity-uid="part7" data-qualified-name="FP" id="part7-lifeline"><g><title>FlightPlan</title><rect fill="#000000" fill-opacity="0.00000" height="1583.839" width="8" x="1736.9981" y="159.5479"/><line style="stroke:#181818;stroke-width:0.5;stroke-dasharray:5,5;" x1="1740.6182" x2="1740.6182" y1="159.5479" y2="1743.3868"/></g></g><g class="participant-lifeline" data-entity-uid="part8" data-qualified-name="FSR" id="part8-lifeline"><g><title>FlightSimulationReport</title><rect fill="#000000" fill-opacity="0.00000" height="1583.839" width="8" x="1938.6779" y="159.5479"/><line style="stroke:#181818;stroke-width:0.5;stroke-dasharray:5,5;" x1="1942.378" x2="1942.378" y1="159.5479" y2="1743.3868"/></g></g><g class="participant-lifeline" data-entity-uid="part9" data-qualified-name="CS" id="part9-lifeline"><g><title>C Simulator</title><rect fill="#000000" fill-opacity="0.00000" height="1583.839" width="8" x="2218.4376" y="159.5479"/><line style="stroke:#181818;stroke-width:0.5;stroke-dasharray:5,5;" x1="2221.9377" x2="2221.9377" y1="159.5479" y2="1743.3868"/></g></g><g class="participant participant-head" data-entity-uid="part1" data-qualified-name="FCO" id="part1-head"><text fill="#000000" font-family="sans-serif" font-size="20" lengthAdjust="spacing" textLength="127.6198" x="20" y="126.4479">Flight Control</text><text fill="#000000" font-family="sans-serif" font-size="20" lengthAdjust="spacing" textLength="86.2599" x="40.68" y="153.6879">Operator</text><ellipse cx="86.8099" cy="53.5679" fill="#E2E2F0" rx="8" ry="8" style="stroke:#181818;stroke-width:0.5;"/><path d="M86.8099,61.5679 L86.8099,88.5679 M73.8099,69.5679 L99.8099,69.5679 M86.8099,88.5679 L73.8099,103.5679 M86.8099,88.5679 L99.8099,103.5679" fill="none" style="stroke:#181818;stroke-width:0.5;"/></g><g class="participant participant-tail" data-entity-uid="part1" data-qualified-name="FCO" id="part1-tail"><text fill="#000000" font-family="sans-serif" font-size="20" lengthAdjust="spacing" textLength="127.6198" x="20" y="1763.7668">Flight Control</text><text fill="#000000" font-family="sans-serif" font-size="20" lengthAdjust="spacing" textLength="86.2599" x="40.68" y="1791.0068">Operator</text><ellipse cx="86.8099" cy="1805.3668" fill="#E2E2F0" rx="8" ry="8" style="stroke:#181818;stroke-width:0.5;"/><path d="M86.8099,1813.3668 L86.8099,1840.3668 M73.8099,1821.3668 L99.8099,1821.3668 M86.8099,1840.3668 L73.8099,1855.3668 M86.8099,1840.3668 L99.8099,1855.3668" fill="none" style="stroke:#181818;stroke-width:0.5;"/></g><g class="participant participant-head" data-entity-uid="part2" data-qualified-name="UI" id="part2-head"><rect fill="#E2E2F0" height="68.4799" rx="2.5" ry="2.5" style="stroke:#181818;stroke-width:0.5;" width="135.8199" x="341.4596" y="90.0679"/><text fill="#000000" font-family="sans-serif" font-size="20" lengthAdjust="spacing" textLength="121.8199" x="348.4596" y="118.4479">SimulationUI</text><text fill="#000000" font-family="sans-serif" font-size="20" lengthAdjust="spacing" textLength="41.76" x="388.4896" y="145.6879">&#171;UI&#187;</text></g><g class="participant participant-tail" data-entity-uid="part2" data-qualified-name="UI" id="part2-tail"><rect fill="#E2E2F0" height="68.4799" rx="2.5" ry="2.5" style="stroke:#181818;stroke-width:0.5;" width="135.8199" x="341.4596" y="1742.3868"/><text fill="#000000" font-family="sans-serif" font-size="20" lengthAdjust="spacing" textLength="121.8199" x="348.4596" y="1770.7668">SimulationUI</text><text fill="#000000" font-family="sans-serif" font-size="20" lengthAdjust="spacing" textLength="41.76" x="388.4896" y="1798.0068">&#171;UI&#187;</text></g><g class="participant participant-head" data-entity-uid="part3" data-qualified-name="SC" id="part3-head"><rect fill="#E2E2F0" height="68.4799" rx="2.5" ry="2.5" style="stroke:#181818;stroke-width:0.5;" width="208.9598" x="632.4493" y="90.0679"/><text fill="#000000" font-family="sans-serif" font-size="20" lengthAdjust="spacing" textLength="194.9598" x="639.4493" y="118.4479">SimulationController</text><text fill="#000000" font-family="sans-serif" font-size="20" lengthAdjust="spacing" textLength="114.8999" x="679.4792" y="145.6879">&#171;Controller&#187;</text></g><g class="participant participant-tail" data-entity-uid="part3" data-qualified-name="SC" id="part3-tail"><rect fill="#E2E2F0" height="68.4799" rx="2.5" ry="2.5" style="stroke:#181818;stroke-width:0.5;" width="208.9598" x="632.4493" y="1742.3868"/><text fill="#000000" font-family="sans-serif" font-size="20" lengthAdjust="spacing" textLength="194.9598" x="639.4493" y="1770.7668">SimulationController</text><text fill="#000000" font-family="sans-serif" font-size="20" lengthAdjust="spacing" textLength="114.8999" x="679.4792" y="1798.0068">&#171;Controller&#187;</text></g><g class="participant participant-head" data-entity-uid="part4" data-qualified-name="FR" id="part4-head"><text fill="#000000" font-family="sans-serif" font-size="20" lengthAdjust="spacing" textLength="153.2198" x="1015.4589" y="126.4479">FlightRepository</text><text fill="#000000" font-family="sans-serif" font-size="20" lengthAdjust="spacing" textLength="120.9999" x="1031.5688" y="153.6879">&#171;Repository&#187;</text><path d="M1077.0688,69.0679 C1077.0688,59.0679 1095.0688,59.0679 1095.0688,59.0679 C1095.0688,59.0679 1113.0688,59.0679 1113.0688,69.0679 L1113.0688,95.0679 C1113.0688,105.0679 1095.0688,105.0679 1095.0688,105.0679 C1095.0688,105.0679 1077.0688,105.0679 1077.0688,95.0679 L1077.0688,69.0679" fill="#E2E2F0" style="stroke:#181818;stroke-width:0.5;"/><path d="M1077.0688,69.0679 C1077.0688,79.0679 1095.0688,79.0679 1095.0688,79.0679 C1095.0688,79.0679 1113.0688,79.0679 1113.0688,69.0679" fill="none" style="stroke:#181818;stroke-width:0.5;"/></g><g class="participant participant-tail" data-entity-uid="part4" data-qualified-name="FR" id="part4-tail"><text fill="#000000" font-family="sans-serif" font-size="20" lengthAdjust="spacing" textLength="153.2198" x="1015.4589" y="1763.7668">FlightRepository</text><text fill="#000000" font-family="sans-serif" font-size="20" lengthAdjust="spacing" textLength="120.9999" x="1031.5688" y="1791.0068">&#171;Repository&#187;</text><path d="M1077.0688,1806.8668 C1077.0688,1796.8668 1095.0688,1796.8668 1095.0688,1796.8668 C1095.0688,1796.8668 1113.0688,1796.8668 1113.0688,1806.8668 L1113.0688,1832.8668 C1113.0688,1842.8668 1095.0688,1842.8668 1095.0688,1842.8668 C1095.0688,1842.8668 1077.0688,1842.8668 1077.0688,1832.8668 L1077.0688,1806.8668" fill="#E2E2F0" style="stroke:#181818;stroke-width:0.5;"/><path d="M1077.0688,1806.8668 C1077.0688,1816.8668 1095.0688,1816.8668 1095.0688,1816.8668 C1095.0688,1816.8668 1113.0688,1816.8668 1113.0688,1806.8668" fill="none" style="stroke:#181818;stroke-width:0.5;"/></g><g class="participant participant-head" data-entity-uid="part5" data-qualified-name="FSRR" id="part5-head"><text fill="#000000" font-family="sans-serif" font-size="20" lengthAdjust="spacing" textLength="317.2396" x="1184.6787" y="126.4479">FlightSimulationReportRepository</text><text fill="#000000" font-family="sans-serif" font-size="20" lengthAdjust="spacing" textLength="120.9999" x="1282.7986" y="153.6879">&#171;Repository&#187;</text><path d="M1328.2985,69.0679 C1328.2985,59.0679 1346.2985,59.0679 1346.2985,59.0679 C1346.2985,59.0679 1364.2985,59.0679 1364.2985,69.0679 L1364.2985,95.0679 C1364.2985,105.0679 1346.2985,105.0679 1346.2985,105.0679 C1346.2985,105.0679 1328.2985,105.0679 1328.2985,95.0679 L1328.2985,69.0679" fill="#E2E2F0" style="stroke:#181818;stroke-width:0.5;"/><path d="M1328.2985,69.0679 C1328.2985,79.0679 1346.2985,79.0679 1346.2985,79.0679 C1346.2985,79.0679 1364.2985,79.0679 1364.2985,69.0679" fill="none" style="stroke:#181818;stroke-width:0.5;"/></g><g class="participant participant-tail" data-entity-uid="part5" data-qualified-name="FSRR" id="part5-tail"><text fill="#000000" font-family="sans-serif" font-size="20" lengthAdjust="spacing" textLength="317.2396" x="1184.6787" y="1763.7668">FlightSimulationReportRepository</text><text fill="#000000" font-family="sans-serif" font-size="20" lengthAdjust="spacing" textLength="120.9999" x="1282.7986" y="1791.0068">&#171;Repository&#187;</text><path d="M1328.2985,1806.8668 C1328.2985,1796.8668 1346.2985,1796.8668 1346.2985,1796.8668 C1346.2985,1796.8668 1364.2985,1796.8668 1364.2985,1806.8668 L1364.2985,1832.8668 C1364.2985,1842.8668 1346.2985,1842.8668 1346.2985,1842.8668 C1346.2985,1842.8668 1328.2985,1842.8668 1328.2985,1832.8668 L1328.2985,1806.8668" fill="#E2E2F0" style="stroke:#181818;stroke-width:0.5;"/><path d="M1328.2985,1806.8668 C1328.2985,1816.8668 1346.2985,1816.8668 1346.2985,1816.8668 C1346.2985,1816.8668 1364.2985,1816.8668 1364.2985,1806.8668" fill="none" style="stroke:#181818;stroke-width:0.5;"/></g><g class="participant participant-head" data-entity-uid="part6" data-qualified-name="F" id="part6-head"><rect fill="#E2E2F0" height="68.4799" rx="2.5" ry="2.5" style="stroke:#181818;stroke-width:0.5;" width="136.6999" x="1517.9183" y="90.0679"/><text fill="#000000" font-family="sans-serif" font-size="20" lengthAdjust="spacing" textLength="52.5799" x="1559.9783" y="118.4479">Flight</text><text fill="#000000" font-family="sans-serif" font-size="20" lengthAdjust="spacing" textLength="122.6999" x="1524.9183" y="145.6879">&#171;Entity Root&#187;</text></g><g class="participant participant-tail" data-entity-uid="part6" data-qualified-name="F" id="part6-tail"><rect fill="#E2E2F0" height="68.4799" rx="2.5" ry="2.5" style="stroke:#181818;stroke-width:0.5;" width="136.6999" x="1517.9183" y="1742.3868"/><text fill="#000000" font-family="sans-serif" font-size="20" lengthAdjust="spacing" textLength="52.5799" x="1559.9783" y="1770.7668">Flight</text><text fill="#000000" font-family="sans-serif" font-size="20" lengthAdjust="spacing" textLength="122.6999" x="1524.9183" y="1798.0068">&#171;Entity Root&#187;</text></g><g class="participant participant-head" data-entity-uid="part7" data-qualified-name="FP" id="part7-head"><rect fill="#E2E2F0" height="68.4799" rx="2.5" ry="2.5" style="stroke:#181818;stroke-width:0.5;" width="152.7598" x="1664.6182" y="90.0679"/><text fill="#000000" font-family="sans-serif" font-size="20" lengthAdjust="spacing" textLength="93.4199" x="1694.2882" y="118.4479">FlightPlan</text><text fill="#000000" font-family="sans-serif" font-size="20" lengthAdjust="spacing" textLength="138.7598" x="1671.6182" y="145.6879">&#171;Value Object&#187;</text></g><g class="participant participant-tail" data-entity-uid="part7" data-qualified-name="FP" id="part7-tail"><rect fill="#E2E2F0" height="68.4799" rx="2.5" ry="2.5" style="stroke:#181818;stroke-width:0.5;" width="152.7598" x="1664.6182" y="1742.3868"/><text fill="#000000" font-family="sans-serif" font-size="20" lengthAdjust="spacing" textLength="93.4199" x="1694.2882" y="1770.7668">FlightPlan</text><text fill="#000000" font-family="sans-serif" font-size="20" lengthAdjust="spacing" textLength="138.7598" x="1671.6182" y="1798.0068">&#171;Value Object&#187;</text></g><g class="participant participant-head" data-entity-uid="part8" data-qualified-name="FSR" id="part8-head"><rect fill="#E2E2F0" height="68.4799" rx="2.5" ry="2.5" style="stroke:#181818;stroke-width:0.5;" width="230.5997" x="1827.378" y="90.0679"/><text fill="#000000" font-family="sans-serif" font-size="20" lengthAdjust="spacing" textLength="216.5997" x="1834.378" y="118.4479">FlightSimulationReport</text><text fill="#000000" font-family="sans-serif" font-size="20" lengthAdjust="spacing" textLength="122.6999" x="1881.3279" y="145.6879">&#171;Entity Root&#187;</text></g><g class="participant participant-tail" data-entity-uid="part8" data-qualified-name="FSR" id="part8-tail"><rect fill="#E2E2F0" height="68.4799" rx="2.5" ry="2.5" style="stroke:#181818;stroke-width:0.5;" width="230.5997" x="1827.378" y="1742.3868"/><text fill="#000000" font-family="sans-serif" font-size="20" lengthAdjust="spacing" textLength="216.5997" x="1834.378" y="1770.7668">FlightSimulationReport</text><text fill="#000000" font-family="sans-serif" font-size="20" lengthAdjust="spacing" textLength="122.6999" x="1881.3279" y="1798.0068">&#171;Entity Root&#187;</text></g><g class="participant participant-head" data-entity-uid="part9" data-qualified-name="CS" id="part9-head"><rect fill="#E2E2F0" height="68.4799" rx="2.5" ry="2.5" style="stroke:#181818;stroke-width:0.5;" width="122.9999" x="2160.9377" y="90.0679"/><text fill="#000000" font-family="sans-serif" font-size="20" lengthAdjust="spacing" textLength="108.9999" x="2167.9377" y="118.4479">C Simulator</text><text fill="#000000" font-family="sans-serif" font-size="20" lengthAdjust="spacing" textLength="97.5599" x="2173.6577" y="145.6879">&#171;External&#187;</text></g><g class="participant participant-tail" data-entity-uid="part9" data-qualified-name="CS" id="part9-tail"><rect fill="#E2E2F0" height="68.4799" rx="2.5" ry="2.5" style="stroke:#181818;stroke-width:0.5;" width="122.9999" x="2160.9377" y="1742.3868"/><text fill="#000000" font-family="sans-serif" font-size="20" lengthAdjust="spacing" textLength="108.9999" x="2167.9377" y="1770.7668">C Simulator</text><text fill="#000000" font-family="sans-serif" font-size="20" lengthAdjust="spacing" textLength="97.5599" x="2173.6577" y="1798.0068">&#171;External&#187;</text></g><g><title>SimulationUI</title><rect fill="#FFFFFF" height="1515.599" style="stroke:#181818;stroke-width:1;" width="10" x="404.3696" y="202.7878"/></g><g><title>SimulationController</title><rect fill="#FFFFFF" height="1378.6391" style="stroke:#181818;stroke-width:1;" width="10" x="731.9292" y="244.0278"/></g><g><title>FlightRepository</title><rect fill="#FFFFFF" height="41.24" style="stroke:#181818;stroke-width:1;" width="10" x="1090.0688" y="285.2678"/></g><g><title>FlightRepository</title><rect fill="#FFFFFF" height="41.24" style="stroke:#181818;stroke-width:1;" width="10" x="1090.0688" y="1318.7471"/></g><g><title>FlightSimulationReportRepository</title><rect fill="#FFFFFF" height="41.24" style="stroke:#181818;stroke-width:1;" width="10" x="1341.2985" y="1401.2271"/></g><g><title>Flight</title><rect fill="#FFFFFF" height="41.24" style="stroke:#181818;stroke-width:1;" width="10" x="1581.2682" y="367.7477"/></g><g><title>Flight</title><rect fill="#FFFFFF" height="41.24" style="stroke:#181818;stroke-width:1;" width="10" x="1581.2682" y="1126.5472"/></g><g><title>FlightPlan</title><rect fill="#FFFFFF" height="41.24" style="stroke:#181818;stroke-width:1;" width="10" x="1735.9981" y="450.2277"/></g><g><title>FlightPlan</title><rect fill="#FFFFFF" height="41.24" style="stroke:#181818;stroke-width:1;" width="10" x="1735.9981" y="1236.2672"/></g><g><title>FlightSimulationReport</title><rect fill="#FFFFFF" height="339.9198" style="stroke:#181818;stroke-width:1;" width="10" x="1937.6779" y="745.3875"/></g><g><title>C Simulator</title><rect fill="#FFFFFF" height="122.9599" style="stroke:#181818;stroke-width:1;" width="10" x="2217.4376" y="581.1876"/></g><g class="message" data-entity-1="part1" data-entity-2="part2" id="msg1"><polygon fill="#181818" points="392.3696,198.7878,402.3696,202.7878,392.3696,206.7878,396.3696,202.7878" style="stroke:#181818;stroke-width:1;"/><line style="stroke:#181818;stroke-width:1.5;" x1="86.8099" x2="398.3696" y1="202.7878" y2="202.7878"/><text fill="#000000" font-family="sans-serif" font-size="20" lengthAdjust="spacing" textLength="298.5596" x="96.3099" y="194.9278">runSimulation(flightDesignator)</text></g><g class="message" data-entity-1="part2" data-entity-2="part3" id="msg2"><polygon fill="#181818" points="719.9292,240.0278,729.9292,244.0278,719.9292,248.0278,723.9292,244.0278" style="stroke:#181818;stroke-width:1;"/><line style="stroke:#181818;stroke-width:1.5;" x1="414.3696" x2="725.9292" y1="244.0278" y2="244.0278"/><text fill="#000000" font-family="sans-serif" font-size="20" lengthAdjust="spacing" textLength="298.5596" x="423.8696" y="236.1678">runSimulation(flightDesignator)</text></g><g class="message" data-entity-1="part3" data-entity-2="part4" id="msg3"><polygon fill="#181818" points="1078.0688,281.2678,1088.0688,285.2678,1078.0688,289.2678,1082.0688,285.2678" style="stroke:#181818;stroke-width:1;"/><line style="stroke:#181818;stroke-width:1.5;" x1="741.9292" x2="1084.0688" y1="285.2678" y2="285.2678"/><text fill="#000000" font-family="sans-serif" font-size="20" lengthAdjust="spacing" textLength="329.1396" x="751.4292" y="277.4078">findByDesignator(flightDesignator)</text></g><g class="message" data-entity-1="part4" data-entity-2="part3" id="msg4"><polygon fill="#181818" points="752.9292,322.5078,742.9292,326.5078,752.9292,330.5078,748.9292,326.5078" style="stroke:#181818;stroke-width:1;"/><line style="stroke:#181818;stroke-width:1.5;stroke-dasharray:2,2;" x1="746.9292" x2="1094.0688" y1="326.5078" y2="326.5078"/><text fill="#000000" font-family="sans-serif" font-size="20" lengthAdjust="spacing" textLength="52.5799" x="892.209" y="318.6478">Flight</text></g><g class="message" data-entity-1="part3" data-entity-2="part6" id="msg5"><polygon fill="#181818" points="1569.2682,363.7477,1579.2682,367.7477,1569.2682,371.7477,1573.2682,367.7477" style="stroke:#181818;stroke-width:1;"/><line style="stroke:#181818;stroke-width:1.5;" x1="741.9292" x2="1575.2682" y1="367.7477" y2="367.7477"/><text fill="#000000" font-family="sans-serif" font-size="20" lengthAdjust="spacing" textLength="136.2198" x="1093.4888" y="359.8877">getFlightPlan()</text></g><g class="message" data-entity-1="part6" data-entity-2="part3" id="msg6"><polygon fill="#181818" points="752.9292,404.9877,742.9292,408.9877,752.9292,412.9877,748.9292,408.9877" style="stroke:#181818;stroke-width:1;"/><line style="stroke:#181818;stroke-width:1.5;stroke-dasharray:2,2;" x1="746.9292" x2="1585.2682" y1="408.9877" y2="408.9877"/><text fill="#000000" font-family="sans-serif" font-size="20" lengthAdjust="spacing" textLength="93.4199" x="1117.3888" y="401.1277">FlightPlan</text></g><g class="message" data-entity-1="part3" data-entity-2="part7" id="msg7"><polygon fill="#181818" points="1723.9981,446.2277,1733.9981,450.2277,1723.9981,454.2277,1727.9981,450.2277" style="stroke:#181818;stroke-width:1;"/><line style="stroke:#181818;stroke-width:1.5;" x1="741.9292" x2="1729.9981" y1="450.2277" y2="450.2277"/><text fill="#000000" font-family="sans-serif" font-size="20" lengthAdjust="spacing" textLength="101.3799" x="1188.2737" y="442.3677">getStatus()</text></g><g class="message" data-entity-1="part7" data-entity-2="part3" id="msg8"><polygon fill="#181818" points="752.9292,487.4677,742.9292,491.4677,752.9292,495.4677,748.9292,491.4677" style="stroke:#181818;stroke-width:1;"/><line style="stroke:#181818;stroke-width:1.5;stroke-dasharray:2,2;" x1="746.9292" x2="1739.9981" y1="491.4677" y2="491.4677"/><text fill="#000000" font-family="sans-serif" font-size="20" lengthAdjust="spacing" textLength="151.9998" x="1165.4637" y="483.6077">FlightPlanStatus</text></g><path d="M12.5,506.4677 L81.86,506.4677 L81.86,525.7076 L71.86,535.7076 L10,535.7076 L10,508.9677 A2.5,2.5 0 0 1 12.5,506.4677" fill="#EEEEEE" style="stroke:#000000;stroke-width:1.5;"/><rect fill="none" height="1219.9192" rx="2.5" ry="2.5" style="stroke:#000000;stroke-width:1.5;" width="2283.9375" x="10" y="506.4677"/><text fill="#000000" font-family="sans-serif" font-size="20" font-weight="bold" lengthAdjust="spacing" textLength="26.86" x="25" y="528.8476">alt</text><text fill="#000000" font-family="sans-serif" font-size="20" font-weight="bold" lengthAdjust="spacing" textLength="467.8595" x="96.86" y="529.8476">[FlightPlanStatus == submitted_for_simulation]</text><g class="message" data-entity-1="part3" data-entity-2="part9" id="msg9"><polygon fill="#181818" points="2205.4376,577.1876,2215.4376,581.1876,2205.4376,585.1876,2209.4376,581.1876" style="stroke:#181818;stroke-width:1;"/><line style="stroke:#181818;stroke-width:1.5;" x1="741.9292" x2="2211.4376" y1="581.1876" y2="581.1876"/><text fill="#000000" font-family="sans-serif" font-size="20" lengthAdjust="spacing" textLength="245.8397" x="1356.7635" y="573.3276">simulate(flightDesignator)</text></g><g class="message" data-entity-1="part9" data-entity-2="part3" id="msg10"><polygon fill="#181818" points="752.9292,700.1475,742.9292,704.1475,752.9292,708.1475,748.9292,704.1475" style="stroke:#181818;stroke-width:1;"/><line style="stroke:#181818;stroke-width:1.5;stroke-dasharray:2,2;" x1="746.9292" x2="2221.4376" y1="704.1475" y2="704.1475"/><text fill="#000000" font-family="sans-serif" font-size="20" lengthAdjust="spacing" textLength="76.5999" x="1443.8835" y="614.5676">results[]</text><text fill="#000000" font-family="sans-serif" font-size="20" lengthAdjust="spacing" textLength="139.8798" x="1412.2435" y="641.8075">(flightStatuses,</text><text fill="#000000" font-family="sans-serif" font-size="20" lengthAdjust="spacing" textLength="153.7998" x="1405.2835" y="669.0475">safetyViolations,</text><text fill="#000000" font-family="sans-serif" font-size="20" lengthAdjust="spacing" textLength="169.3598" x="1397.5035" y="696.2875">scheduleStatuses)</text></g><g class="message" data-entity-1="part3" data-entity-2="part8" id="msg11"><polygon fill="#181818" points="1925.6779,741.3875,1935.6779,745.3875,1925.6779,749.3875,1929.6779,745.3875" style="stroke:#181818;stroke-width:1;"/><line style="stroke:#181818;stroke-width:1.5;" x1="741.9292" x2="1931.6779" y1="745.3875" y2="745.3875"/><text fill="#000000" font-family="sans-serif" font-size="20" lengthAdjust="spacing" textLength="224.0197" x="1227.7937" y="737.5275">create(flightDesignator)</text></g><g class="message" data-entity-1="part8" data-entity-2="part8" id="msg12"><line style="stroke:#181818;stroke-width:1.5;" x1="1947.6779" x2="1989.6779" y1="841.1074" y2="841.1074"/><line style="stroke:#181818;stroke-width:1.5;" x1="1989.6779" x2="1989.6779" y1="841.1074" y2="854.1074"/><line style="stroke:#181818;stroke-width:1.5;" x1="1948.6779" x2="1989.6779" y1="854.1074" y2="854.1074"/><polygon fill="#181818" points="1958.6779,850.1074,1948.6779,854.1074,1958.6779,858.1074,1954.6779,854.1074" style="stroke:#181818;stroke-width:1;"/><text fill="#000000" font-family="sans-serif" font-size="20" lengthAdjust="spacing" textLength="170.4598" x="1954.6779" y="778.7674">validateInvariant()</text><text fill="#000000" font-family="sans-serif" font-size="20" lengthAdjust="spacing" textLength="39.76" x="1961.8479" y="806.0074">[1..*</text><text fill="#000000" font-family="sans-serif" font-size="20" lengthAdjust="spacing" textLength="5.2" x="2001.6078" y="806.0074">&#160;</text><text fill="#000000" font-family="sans-serif" font-size="20" lengthAdjust="spacing" textLength="111.1599" x="2006.8078" y="806.0074">FlightStatus</text><text fill="#000000" font-family="sans-serif" font-size="20" lengthAdjust="spacing" textLength="87.7799" x="1996.0178" y="833.2474">required]</text></g><g class="message" data-entity-1="part8" data-entity-2="part8" id="msg13"><line style="stroke:#181818;stroke-width:1.5;" x1="1947.6779" x2="1989.6779" y1="895.3474" y2="895.3474"/><line style="stroke:#181818;stroke-width:1.5;" x1="1989.6779" x2="1989.6779" y1="895.3474" y2="908.3474"/><line style="stroke:#181818;stroke-width:1.5;" x1="1948.6779" x2="1989.6779" y1="908.3474" y2="908.3474"/><polygon fill="#181818" points="1958.6779,904.3474,1948.6779,908.3474,1958.6779,912.3474,1954.6779,908.3474" style="stroke:#181818;stroke-width:1;"/><text fill="#000000" font-family="sans-serif" font-size="20" lengthAdjust="spacing" textLength="213.0198" x="1954.6779" y="887.4874">addFlightStatuses(1..*)</text></g><g class="message" data-entity-1="part8" data-entity-2="part8" id="msg14"><line style="stroke:#181818;stroke-width:1.5;" x1="1947.6779" x2="1989.6779" y1="976.8273" y2="976.8273"/><line style="stroke:#181818;stroke-width:1.5;" x1="1989.6779" x2="1989.6779" y1="976.8273" y2="989.8273"/><line style="stroke:#181818;stroke-width:1.5;" x1="1948.6779" x2="1989.6779" y1="989.8273" y2="989.8273"/><polygon fill="#181818" points="1958.6779,985.8273,1948.6779,989.8273,1958.6779,993.8273,1954.6779,989.8273" style="stroke:#181818;stroke-width:1;"/><text fill="#000000" font-family="sans-serif" font-size="20" lengthAdjust="spacing" textLength="230.8398" x="1954.6779" y="941.7273">addSafetyViolations(0..*)</text><text fill="#000000" font-family="sans-serif" font-size="20" lengthAdjust="spacing" textLength="46.7" x="1996.6178" y="968.9673">[may</text><text fill="#000000" font-family="sans-serif" font-size="20" lengthAdjust="spacing" textLength="5.2" x="2043.3178" y="968.9673">&#160;</text><text fill="#000000" font-family="sans-serif" font-size="20" lengthAdjust="spacing" textLength="23.58" x="2048.5178" y="968.9673">be</text><text fill="#000000" font-family="sans-serif" font-size="20" lengthAdjust="spacing" textLength="5.2" x="2072.0977" y="968.9673">&#160;</text><text fill="#000000" font-family="sans-serif" font-size="20" lengthAdjust="spacing" textLength="66.2799" x="2077.2977" y="968.9673">empty]</text></g><g class="message" data-entity-1="part8" data-entity-2="part8" id="msg15"><line style="stroke:#181818;stroke-width:1.5;" x1="1947.6779" x2="1989.6779" y1="1031.0673" y2="1031.0673"/><line style="stroke:#181818;stroke-width:1.5;" x1="1989.6779" x2="1989.6779" y1="1031.0673" y2="1044.0673"/><line style="stroke:#181818;stroke-width:1.5;" x1="1948.6779" x2="1989.6779" y1="1044.0673" y2="1044.0673"/><polygon fill="#181818" points="1958.6779,1040.0673,1948.6779,1044.0673,1958.6779,1048.0673,1954.6779,1044.0673" style="stroke:#181818;stroke-width:1;"/><text fill="#000000" font-family="sans-serif" font-size="20" lengthAdjust="spacing" textLength="245.7597" x="1954.6779" y="1023.2073">addScheduleStatuses(1..*)</text></g><g class="message" data-entity-1="part8" data-entity-2="part3" id="msg16"><polygon fill="#181818" points="752.9292,1081.3073,742.9292,1085.3073,752.9292,1089.3073,748.9292,1085.3073" style="stroke:#181818;stroke-width:1;"/><line style="stroke:#181818;stroke-width:1.5;stroke-dasharray:2,2;" x1="746.9292" x2="1941.6779" y1="1085.3073" y2="1085.3073"/><text fill="#000000" font-family="sans-serif" font-size="20" lengthAdjust="spacing" textLength="59.4199" x="1274.4136" y="1077.4473">report</text><text fill="#000000" font-family="sans-serif" font-size="20" lengthAdjust="spacing" textLength="5.2" x="1333.8335" y="1077.4473">&#160;</text><text fill="#000000" font-family="sans-serif" font-size="20" lengthAdjust="spacing" textLength="71.1599" x="1339.0335" y="1077.4473">created</text></g><g class="message" data-entity-1="part3" data-entity-2="part6" id="msg17"><polygon fill="#181818" points="1569.2682,1122.5472,1579.2682,1126.5472,1569.2682,1130.5472,1573.2682,1126.5472" style="stroke:#181818;stroke-width:1;"/><line style="stroke:#181818;stroke-width:1.5;" x1="741.9292" x2="1575.2682" y1="1126.5472" y2="1126.5472"/><text fill="#000000" font-family="sans-serif" font-size="20" lengthAdjust="spacing" textLength="136.2198" x="1093.4888" y="1118.6872">getFlightPlan()</text></g><g class="message" data-entity-1="part6" data-entity-2="part3" id="msg18"><polygon fill="#181818" points="752.9292,1163.7872,742.9292,1167.7872,752.9292,1171.7872,748.9292,1167.7872" style="stroke:#181818;stroke-width:1;"/><line style="stroke:#181818;stroke-width:1.5;stroke-dasharray:2,2;" x1="746.9292" x2="1585.2682" y1="1167.7872" y2="1167.7872"/><text fill="#000000" font-family="sans-serif" font-size="20" lengthAdjust="spacing" textLength="93.4199" x="1117.3888" y="1159.9272">FlightPlan</text></g><g class="message" data-entity-1="part3" data-entity-2="part7" id="msg19"><polygon fill="#181818" points="1723.9981,1232.2672,1733.9981,1236.2672,1723.9981,1240.2672,1727.9981,1236.2672" style="stroke:#181818;stroke-width:1;"/><line style="stroke:#181818;stroke-width:1.5;" x1="741.9292" x2="1729.9981" y1="1236.2672" y2="1236.2672"/><text fill="#000000" font-family="sans-serif" font-size="20" lengthAdjust="spacing" textLength="263.4997" x="1107.2138" y="1201.1672">updateStatus(sim_approved</text><text fill="#000000" font-family="sans-serif" font-size="20" lengthAdjust="spacing" textLength="11.02" x="1168.5037" y="1228.4072">|</text><text fill="#000000" font-family="sans-serif" font-size="20" lengthAdjust="spacing" textLength="5.2" x="1179.5237" y="1228.4072">&#160;</text><text fill="#000000" font-family="sans-serif" font-size="20" lengthAdjust="spacing" textLength="124.6998" x="1184.7237" y="1228.4072">sim_rejected)</text></g><g class="message" data-entity-1="part7" data-entity-2="part3" id="msg20"><polygon fill="#181818" points="752.9292,1273.5071,742.9292,1277.5071,752.9292,1281.5071,748.9292,1277.5071" style="stroke:#181818;stroke-width:1;"/><line style="stroke:#181818;stroke-width:1.5;stroke-dasharray:2,2;" x1="746.9292" x2="1739.9981" y1="1277.5071" y2="1277.5071"/><text fill="#000000" font-family="sans-serif" font-size="20" lengthAdjust="spacing" textLength="22.78" x="1230.0736" y="1269.6471">ok</text></g><g class="message" data-entity-1="part3" data-entity-2="part4" id="msg21"><polygon fill="#181818" points="1078.0688,1314.7471,1088.0688,1318.7471,1078.0688,1322.7471,1082.0688,1318.7471" style="stroke:#181818;stroke-width:1;"/><line style="stroke:#181818;stroke-width:1.5;" x1="741.9292" x2="1084.0688" y1="1318.7471" y2="1318.7471"/><text fill="#000000" font-family="sans-serif" font-size="20" lengthAdjust="spacing" textLength="106.8199" x="862.589" y="1310.8871">save(Flight)</text></g><g class="message" data-entity-1="part4" data-entity-2="part3" id="msg22"><polygon fill="#181818" points="752.9292,1355.9871,742.9292,1359.9871,752.9292,1363.9871,748.9292,1359.9871" style="stroke:#181818;stroke-width:1;"/><line style="stroke:#181818;stroke-width:1.5;stroke-dasharray:2,2;" x1="746.9292" x2="1094.0688" y1="1359.9871" y2="1359.9871"/><text fill="#000000" font-family="sans-serif" font-size="20" lengthAdjust="spacing" textLength="22.78" x="907.109" y="1352.1271">ok</text></g><g class="message" data-entity-1="part3" data-entity-2="part5" id="msg23"><polygon fill="#181818" points="1329.2985,1397.2271,1339.2985,1401.2271,1329.2985,1405.2271,1333.2985,1401.2271" style="stroke:#181818;stroke-width:1;"/><line style="stroke:#181818;stroke-width:1.5;" x1="741.9292" x2="1335.2985" y1="1401.2271" y2="1401.2271"/><text fill="#000000" font-family="sans-serif" font-size="20" lengthAdjust="spacing" textLength="270.8397" x="906.194" y="1393.3671">save(FlightSimulationReport)</text></g><g class="message" data-entity-1="part5" data-entity-2="part3" id="msg24"><polygon fill="#181818" points="752.9292,1438.467,742.9292,1442.467,752.9292,1446.467,748.9292,1442.467" style="stroke:#181818;stroke-width:1;"/><line style="stroke:#181818;stroke-width:1.5;stroke-dasharray:2,2;" x1="746.9292" x2="1345.2985" y1="1442.467" y2="1442.467"/><text fill="#000000" font-family="sans-serif" font-size="20" lengthAdjust="spacing" textLength="22.78" x="1032.7238" y="1434.607">ok</text></g><g class="message" data-entity-1="part3" data-entity-2="part2" id="msg25"><polygon fill="#181818" points="425.3696,1479.707,415.3696,1483.707,425.3696,1487.707,421.3696,1483.707" style="stroke:#181818;stroke-width:1;"/><line style="stroke:#181818;stroke-width:1.5;stroke-dasharray:2,2;" x1="419.3696" x2="730.9292" y1="1483.707" y2="1483.707"/><text fill="#000000" font-family="sans-serif" font-size="20" lengthAdjust="spacing" textLength="216.5997" x="464.8495" y="1475.847">FlightSimulationReport</text></g><g class="message" data-entity-1="part2" data-entity-2="part1" id="msg26"><polygon fill="#181818" points="97.8099,1548.187,87.8099,1552.187,97.8099,1556.187,93.8099,1552.187" style="stroke:#181818;stroke-width:1;"/><line style="stroke:#181818;stroke-width:1.5;stroke-dasharray:2,2;" x1="91.8099" x2="403.3696" y1="1552.187" y2="1552.187"/><text fill="#000000" font-family="sans-serif" font-size="20" lengthAdjust="spacing" textLength="100.4199" x="163.0698" y="1517.087">Simulation</text><text fill="#000000" font-family="sans-serif" font-size="20" lengthAdjust="spacing" textLength="5.2" x="263.4897" y="1517.087">&#160;</text><text fill="#000000" font-family="sans-serif" font-size="20" lengthAdjust="spacing" textLength="59.4199" x="268.6897" y="1517.087">report</text><text fill="#000000" font-family="sans-serif" font-size="20" lengthAdjust="spacing" textLength="89.4999" x="200.8398" y="1544.327">displayed</text></g><line style="stroke:#000000;stroke-width:1;stroke-dasharray:2,2;" x1="10" x2="2293.9375" y1="1561.187" y2="1561.187"/><text fill="#000000" font-family="sans-serif" font-size="20" font-weight="bold" lengthAdjust="spacing" textLength="462.1396" x="15" y="1582.5669">[FlightPlanStatus != submitted_for_simulation]</text><g class="message" data-entity-1="part3" data-entity-2="part2" id="msg27"><polygon fill="#181818" points="425.3696,1618.6669,415.3696,1622.6669,425.3696,1626.6669,421.3696,1622.6669" style="stroke:#181818;stroke-width:1;"/><line style="stroke:#181818;stroke-width:1.5;stroke-dasharray:2,2;" x1="419.3696" x2="735.9292" y1="1622.6669" y2="1622.6669"/><text fill="#000000" font-family="sans-serif" font-size="20" lengthAdjust="spacing" textLength="48.16" x="551.5694" y="1614.8069">error</text></g><g class="message" data-entity-1="part2" data-entity-2="part1" id="msg28"><polygon fill="#181818" points="97.8099,1714.3868,87.8099,1718.3868,97.8099,1722.3868,93.8099,1718.3868" style="stroke:#181818;stroke-width:1;"/><line style="stroke:#181818;stroke-width:1.5;stroke-dasharray:2,2;" x1="91.8099" x2="408.3696" y1="1718.3868" y2="1718.3868"/><text fill="#000000" font-family="sans-serif" font-size="20" lengthAdjust="spacing" textLength="48" x="150.5198" y="1656.0469">Error</text><text fill="#000000" font-family="sans-serif" font-size="20" lengthAdjust="spacing" textLength="5.2" x="198.5198" y="1656.0469">&#160;</text><text fill="#000000" font-family="sans-serif" font-size="20" lengthAdjust="spacing" textLength="6.44" x="203.7198" y="1656.0469">-</text><text fill="#000000" font-family="sans-serif" font-size="20" lengthAdjust="spacing" textLength="5.2" x="210.1598" y="1656.0469">&#160;</text><text fill="#000000" font-family="sans-serif" font-size="20" lengthAdjust="spacing" textLength="93.4199" x="215.3598" y="1656.0469">FlightPlan</text><text fill="#000000" font-family="sans-serif" font-size="20" lengthAdjust="spacing" textLength="5.2" x="308.7797" y="1656.0469">&#160;</text><text fill="#000000" font-family="sans-serif" font-size="20" lengthAdjust="spacing" textLength="31.68" x="313.9797" y="1656.0469">not</text><text fill="#000000" font-family="sans-serif" font-size="20" lengthAdjust="spacing" textLength="96.1199" x="183.8098" y="1683.2869">submitted</text><text fill="#000000" font-family="sans-serif" font-size="20" lengthAdjust="spacing" textLength="5.2" x="279.9297" y="1683.2869">&#160;</text><text fill="#000000" font-family="sans-serif" font-size="20" lengthAdjust="spacing" textLength="27.24" x="285.1297" y="1683.2869">for</text><text fill="#000000" font-family="sans-serif" font-size="20" lengthAdjust="spacing" textLength="99.0199" x="198.5798" y="1710.5268">simulation</text></g><?plantuml-src bLPBJzj04BxxLqmvXGeGLEe50HAaHE9GOTc52q7HnfuassnstTrr85L_V6TZEtudu5lY-HxpshLPSfampLP2HKkC8SOPIuKTAMb3_XVXsxddMMu5maZm-OB-NAM2MQvaW8dI5cxdSurpPj7pJC45Pi5YzSRb76PC6Ao-mJyfoWX_eZ5iZhT4AY52QL5NeZIQH4bJHDsXK6-tMgiti3gjqccLoZXIMgA6xnqoMz2l1O-MagZWugmQj6BlkK2MgikLHLPfECgIXI6LGIinbey9QaPlZe0P60qVFMAmFE89anQEog8yFOpbrTNJmytDDlBfeIymPnQe7Q3ybGF3eHSpowRCO676rTjmyh1nYF9NZXW5BKIpLuSOmY2esyreNF2zf27OGA2KBQAxGdt1f0j_PY95U9p-ncWNxtS1cXPxjCA6iI7aGBKjt_qxZOza8WyVXfv7FOBJ6se0N89EPQapc6s5Vw2XoNC4nwxdV4qJxDe5z128eE7m0r0NleDJqxP_k8VGn34AY6F6PNotAL4zD3KgwYPK7k8vBInbXTkzZh4AQkfJ_1njsPn1brPTggdaO9rgBJ4_KmijiwdfLFBhKdwNLWRlLFHBIIPi2mFNrs3IwOfRY_5aflJ4x7fN4yxy3aFIpIDmJrDgAT1iGUCXdbqQT73HwMbUNiV5j6JMq9o0OJEqcsUkCaVcP2nDjC0u5LW4rKKhgRkHRcT0Uq6QaSPF9E1sgPc1uzdHhPdWT9BWWrmppMdT1iTZ-N9nTlQrk0AoOciwOhd6-7K_7OlZKQqG0qTrV10KDgerE7SmSh9Y6vWYu2gncyFQOQF2-zJB9cvljgokSLzBN26xUh9dvVQitU7Lwr-_nWgcYMjVleKqtnEM95gjwNB_vyPzej4TonZt-VBRnYgBgfQzZlnEIwuHXgrnaENKfzenbS67L8EUpMZeDc-Q_lNet8-FUN7WbflY6khsKGjtDuzpJvVN9PIHnKJ6t2I2RIepYVHrrJu7ltpY72pS8NqfQQ-H4DreBLltBX1EAweWbIq5WGIX8bYXe_iLPUpz1m00?></g></svg>